#N canvas -32000 -32000 128 0 10;
#N canvas -1928 4 1904 1009 metaData 1;
#X obj 292 121 cnv 30 768 54 empty empty empty 20 12 0 14 -4033 -66577
0;
#X obj 826 284 cnv 30 368 91 empty empty empty 20 12 0 14 -4033 -66577
0;
#X obj 639 127 inlet;
#X obj 380 259 cnv 30 309 160 empty empty empty 20 12 0 14 -260113
-66577 0;
#X obj 492 386 outlet;
#X obj 521 361 outlet;
#X obj 550 337 outlet;
#X text 385 385 outlet 1: name;
#X text 385 360 outlet 2: bpm;
#X text 385 336 outlet 3: time played;
#X text 721 125 inlet 1: (full) path to the file loads its metadata
or creats a metadata file if there is none yet;
#X obj 639 150 route bang;
#X text 303 131 if a "bang" is sent \, the name \, bpm \, time played
etc of current file are output again;
#X obj 836 296 inlet;
#X text 887 290 inlet 2: takes the message "save bpm" as argument;
#X text 887 309 it then saves the current bpm to meta file;
#X obj 580 313 outlet;
#X text 385 313 outlet 4: bool hasImage;
#N canvas 0 12 942 1000 saveStuff 0;
#X obj 123 158 cnv 30 371 45 empty empty empty 20 12 0 14 -4033 -66577
0;
#X floatatom 80 397 5 0 0 0 - - -, f 5;
#X obj 65 420 i;
#X obj 1035 338 r \$0-pointer;
#X obj 1020 396 + 1;
#X obj 1020 457 textEditor init*metaData.txt;
#X msg 1020 427 readLine \$1;
#X obj 1020 363 i;
#X obj 133 170 inlet;
#X text 184 183 it then saves the current bpm to meta file;
#X obj 310 222 print wrong input;
#X obj 488 260 print that cannot be saved yet;
#X obj 65 440 prepend replace bpm;
#X obj 80 375 r bpm;
#X msg 1188 363 load local metaData.txt;
#X text 184 165 takes the message "save bpm" as argument;
#X obj 133 205 route save;
#X msg 133 265 1;
#X obj 50 346 t b b b f b;
#X msg 191 265 2;
#X obj 191 346 t b b b f b;
#X floatatom 221 393 5 0 0 0 - - -, f 5;
#X obj 206 416 i;
#X obj 221 371 r timePlayed;
#X obj 206 440 prepend replace timePlayed;
#X obj 221 371 r timePlayed;
#X floatatom 1061 363 5 0 0 0 - - -, f 5;
#X obj 206 503 l2s;
#X symbolatom 206 528 64 0 0 0 - - -, f 64;
#X msg 467 346 3;
#X obj 386 346 t b l b b b;
#X obj 401 440 prepend replace imageName;
#X obj 401 373 exchangeFileEnding jpg;
#X symbolatom 401 398 10 0 0 0 - - -, f 10;
#X obj 590 346 t b l b b b;
#X msg 671 346 4;
#X obj 605 440 prepend replace comment;
#X obj 777 346 t b l b b b;
#X msg 858 346 5;
#X obj 133 243 route bpm timePlayed imageName comment link;
#X obj 792 440 prepend replace link;
#X obj 1188 237 del 2000;
#X msg 957 428 save;
#X obj 894 389 bng 15 250 50 0 empty empty empty 17 7 0 10 -262144
-1 -1;
#X obj 1076 222 bng 15 250 50 0 empty empty empty 17 7 0 10 -262144
-1 -1;
#X msg 1035 311 0;
#X obj 1035 291 loadbang;
#X connect 1 0 2 1;
#X connect 2 0 12 0;
#X connect 3 0 7 1;
#X connect 4 0 6 0;
#X connect 6 0 5 0;
#X connect 7 0 4 0;
#X connect 8 0 16 0;
#X connect 12 0 27 0;
#X connect 12 0 5 0;
#X connect 13 0 1 0;
#X connect 14 0 5 0;
#X connect 16 0 39 0;
#X connect 16 0 44 0;
#X connect 16 1 10 0;
#X connect 17 0 18 0;
#X connect 18 0 43 0;
#X connect 18 1 2 0;
#X connect 18 2 7 0;
#X connect 18 3 26 0;
#X connect 18 4 14 0;
#X connect 19 0 20 0;
#X connect 20 0 43 0;
#X connect 20 1 22 0;
#X connect 20 2 7 0;
#X connect 20 3 26 0;
#X connect 20 4 14 0;
#X connect 21 0 22 1;
#X connect 22 0 24 0;
#X connect 23 0 21 0;
#X connect 24 0 27 0;
#X connect 24 0 5 0;
#X connect 26 0 4 1;
#X connect 27 0 28 0;
#X connect 29 0 26 0;
#X connect 30 0 43 0;
#X connect 30 1 32 0;
#X connect 30 2 7 0;
#X connect 30 3 29 0;
#X connect 30 4 14 0;
#X connect 31 0 27 0;
#X connect 31 0 5 0;
#X connect 32 0 33 0;
#X connect 33 0 31 0;
#X connect 34 0 43 0;
#X connect 34 1 36 0;
#X connect 34 2 7 0;
#X connect 34 3 35 0;
#X connect 34 4 14 0;
#X connect 35 0 26 0;
#X connect 36 0 27 0;
#X connect 36 0 5 0;
#X connect 37 0 43 0;
#X connect 37 1 40 0;
#X connect 37 2 7 0;
#X connect 37 3 38 0;
#X connect 37 4 14 0;
#X connect 38 0 26 0;
#X connect 39 0 17 0;
#X connect 39 1 19 0;
#X connect 39 2 30 0;
#X connect 39 3 34 0;
#X connect 39 4 37 0;
#X connect 39 5 11 0;
#X connect 40 0 27 0;
#X connect 40 0 5 0;
#X connect 41 0 14 0;
#X connect 42 0 5 0;
#X connect 43 0 42 0;
#X connect 44 0 41 0;
#X connect 45 0 7 1;
#X connect 46 0 45 0;
#X restore 836 352 pd saveStuff;
#N canvas 0 65 942 993 readMetaData 0;
#X obj 195 104 inlet;
#X obj 475 109 inlet;
#X obj 354 224 r \$0-pointer;
#X msg 358 421 readLine \$1;
#X floatatom 354 251 5 0 0 0 - - -, f 5;
#X msg 195 428 load local metaData.txt;
#X obj 195 197 del 250;
#X obj 541 489 hradio 15 0 0 9 empty empty empty 0 -8 0 10 -262144
-1 -1 0;
#X obj 358 363 i;
#X obj 358 390 + 0;
#X obj 502 346 t b f f;
#X obj 581 521 l2s;
#X obj 469 290 cnv 30 418 50 empty empty empty 20 12 0 14 -4096 -66577
0;
#X text 522 300 for loop must be increased if more elements need to
be read (not just bpm and tim eplayed);
#X obj 475 292 bng 15 250 50 0 empty empty empty 17 7 0 10 -262144
-1 -1;
#X obj 358 526 zl nth 2;
#X obj 379 554 zl nth 2;
#X obj 401 583 zl nth 2;
#X obj 244 624 cnv 30 273 152 empty empty empty 20 12 0 14 -258049
-66577 0;
#X obj 358 628 outlet;
#X obj 379 655 outlet;
#X obj 401 681 outlet;
#X text 254 627 outlet 1: name;
#X text 254 654 outlet 2: bpm;
#X text 254 680 outlet 3: time played;
#X obj 475 148 bng 15 250 50 0 empty empty empty 17 7 0 10 -262144
-1 -1;
#X obj 475 171 t b b;
#X obj 475 196 del 100;
#X obj 354 275 t b f b;
#X obj 425 707 outlet;
#X text 254 707 outlet 4: bool hasImage;
#X obj 424 530 list trim;
#X obj 401 583 zl nth 2;
#X obj 447 730 outlet;
#X obj 446 556 list trim;
#X obj 475 316 for 6;
#X obj 358 504 demux . . . . . ., f 19;
#X obj 469 583 list trim;
#X obj 469 754 outlet;
#X text 254 733 outlet 5: comment;
#X text 254 755 outlet 6: link (youtube zB);
#X symbolatom 583 546 25 0 0 0 - - -, f 25;
#X floatatom 439 392 5 0 0 0 - - -, f 5;
#X obj 358 462 textEditor2 init*metaData.txt;
#X connect 0 0 6 0;
#X connect 1 0 25 0;
#X connect 2 0 4 0;
#X connect 3 0 43 0;
#X connect 4 0 28 0;
#X connect 5 0 43 0;
#X connect 6 0 5 0;
#X connect 7 0 36 1;
#X connect 8 0 9 0;
#X connect 9 0 3 0;
#X connect 9 0 42 0;
#X connect 10 0 8 0;
#X connect 10 1 9 1;
#X connect 10 2 7 0;
#X connect 11 0 41 0;
#X connect 14 0 35 0;
#X connect 15 0 19 0;
#X connect 16 0 20 0;
#X connect 17 0 21 0;
#X connect 25 0 26 0;
#X connect 26 0 27 0;
#X connect 26 1 5 0;
#X connect 27 0 14 0;
#X connect 28 0 14 0;
#X connect 28 1 8 1;
#X connect 28 2 5 0;
#X connect 31 0 29 0;
#X connect 34 0 33 0;
#X connect 35 1 10 0;
#X connect 36 0 15 0;
#X connect 36 1 16 0;
#X connect 36 2 17 0;
#X connect 36 3 31 0;
#X connect 36 4 34 0;
#X connect 36 5 37 0;
#X connect 36 5 11 0;
#X connect 37 0 38 0;
#X connect 43 0 36 0;
#X restore 492 236 pd readMetaData;
#X f 25;
#N canvas 0 0 1888 993 searchMetaFile 0;
#X obj 612 577 prepend replace;
#X msg 701 552 save;
#X msg 612 552 75;
#X obj 1269 434 s2l /;
#X obj 1269 484 zl nth 1;
#X obj 1269 459 zl rev;
#X floatatom 846 731 5 0 0 0 - - -, f 5;
#X floatatom 929 636 5 0 0 0 - - -, f 5;
#X obj 764 267 counter;
#X floatatom 764 295 5 0 0 0 - - -, f 5;
#X obj 898 408 bng 24 250 50 0 empty empty empty 17 7 0 10 -262144
-1 -1;
#X obj 737 181 bng 33 250 50 0 empty empty empty 17 7 0 10 -258049
-1 -1;
#X obj 792 245 bng 15 250 50 0 empty empty empty 17 7 0 10 -262144
-1 -1;
#X msg 764 552 readLine \$1;
#X obj 764 731 list trim;
#X obj 1269 505 symbol;
#X obj 764 755 route name;
#X obj 764 776 route metaData;
#X obj 764 605 textEditor init*metaData.txt;
#X obj 792 219 loadbang;
#X obj 558 793 bng 15 250 50 0 empty empty empty 17 7 0 10 -262144
-1 -1;
#X obj 561 213 bng 15 250 50 0 empty empty empty 17 7 0 10 -262144
-1 -1;
#X obj 821 814 bng 15 250 50 0 empty empty empty 17 7 0 10 -262144
-1 -1;
#X obj 515 829 bng 15 250 50 0 empty empty empty 17 7 0 10 -262144
-1 -1;
#X obj 515 165 bng 15 250 50 0 empty empty empty 17 7 0 10 -262144
-1 -1;
#X obj 898 230 bng 15 250 50 0 empty empty empty 17 7 0 10 -262144
-1 -1;
#X floatatom 648 372 5 0 0 0 - - -, f 5;
#X obj 648 348 i;
#X symbolatom 1095 762 52 0 0 0 - - -, f 52;
#X obj 1198 489 bng 15 250 50 0 empty empty empty 17 7 0 10 -262144
-1 -1;
#X obj 1198 165 bng 15 250 50 0 empty empty empty 17 7 0 10 -262144
-1 -1;
#X text 925 408 end reached;
#X obj 939 448 print no such entry -> new entry created;
#N canvas 0 0 1349 665 newEntry 0;
#X obj 436 141 inlet;
#X msg 670 317 bpm 50;
#X obj 436 231 t b b b b b b s;
#X obj 469 167 inlet;
#X obj 479 446 outlet;
#X obj 479 410 prepend newEntry;
#X obj 436 196 symbol;
#X msg 558 317 timePlayed 0;
#X msg 401 317 placeHolder;
#X msg 479 317 placeHolder;
#X msg 316 317 placeHolder;
#X msg 228 317 placeHolder;
#X obj 751 319 prepend name;
#X connect 0 0 6 0;
#X connect 1 0 5 0;
#X connect 2 0 11 0;
#X connect 2 1 10 0;
#X connect 2 2 8 0;
#X connect 2 3 9 0;
#X connect 2 4 7 0;
#X connect 2 5 1 0;
#X connect 2 6 12 0;
#X connect 3 0 6 1;
#X connect 5 0 4 0;
#X connect 6 0 2 0;
#X connect 7 0 5 0;
#X connect 8 0 5 0;
#X connect 9 0 5 0;
#X connect 10 0 5 0;
#X connect 11 0 5 0;
#X connect 12 0 5 0;
#X restore 898 552 pd newEntry;
#X obj 737 224 t b b;
#X obj 972 594 loadbang;
#X obj 972 619 del 500;
#X obj 648 396 s \$0-pointer;
#X obj 701 432 del 100;
#X obj 1238 432 bng 15 250 50 0 empty empty empty 17 7 0 10 -262144
-1 -1;
#X obj 1238 145 bng 15 250 50 0 empty empty empty 17 7 0 10 -262144
-1 -1;
#X obj 737 160 del 350;
#X obj 1449 160 outlet;
#X obj 553 64 cnv 30 773 50 empty empty empty 20 12 0 14 -4033 -66577
0;
#X obj 1271 82 inlet;
#X text 575 80 inlet 1: (full) path to the file loads its metadata
or creats a metadata file if there is none yet;
#X text 922 80 if a "bang" is sent \, the name \, bpm \, time played
etc of current file are output again;
#X floatatom 775 494 5 0 0 0 - - -, f 5;
#X floatatom 824 495 5 0 0 0 - - -, f 5;
#X obj 1270 693 bng 15 250 50 0 empty empty empty 17 7 0 10 -262144
-1 -1;
#X obj 621 228 t b b;
#X obj 764 331 t f f;
#X obj 764 391 moses 427;
#X obj 1198 535 t b s s b;
#X obj 353 231 print found;
#X obj 284 494 print route number;
#X floatatom 838 363 5 0 0 0 - - -, f 5;
#X connect 0 0 18 0;
#X connect 1 0 18 0;
#X connect 2 0 0 0;
#X connect 3 0 5 0;
#X connect 4 0 15 0;
#X connect 5 0 4 0;
#X connect 7 0 52 1;
#X connect 8 0 9 0;
#X connect 9 0 51 0;
#X connect 10 0 25 0;
#X connect 10 0 32 0;
#X connect 10 0 33 0;
#X connect 10 0 39 0;
#X connect 10 0 38 0;
#X connect 11 0 34 0;
#X connect 12 0 8 2;
#X connect 13 0 18 0;
#X connect 14 0 16 0;
#X connect 15 0 53 0;
#X connect 16 0 17 0;
#X connect 16 1 22 0;
#X connect 17 0 20 0;
#X connect 17 1 22 0;
#X connect 18 0 14 0;
#X connect 18 1 6 0;
#X connect 18 2 7 0;
#X connect 19 0 12 0;
#X connect 20 0 21 0;
#X connect 21 0 50 0;
#X connect 22 0 23 0;
#X connect 23 0 24 0;
#X connect 24 0 11 0;
#X connect 25 0 12 0;
#X connect 26 0 37 0;
#X connect 27 0 26 0;
#X connect 28 0 17 1;
#X connect 29 0 30 0;
#X connect 30 0 11 0;
#X connect 33 0 18 0;
#X connect 34 1 8 0;
#X connect 35 0 36 0;
#X connect 36 0 7 0;
#X connect 38 0 1 0;
#X connect 39 0 40 0;
#X connect 40 0 41 0;
#X connect 40 0 42 0;
#X connect 41 0 11 0;
#X connect 44 0 3 0;
#X connect 47 0 13 0;
#X connect 49 0 28 0;
#X connect 50 0 12 0;
#X connect 50 1 27 0;
#X connect 50 1 54 0;
#X connect 51 0 27 1;
#X connect 51 1 52 0;
#X connect 52 0 47 0;
#X connect 52 1 10 0;
#X connect 52 1 48 0;
#X connect 52 1 55 0;
#X connect 53 0 29 0;
#X connect 53 1 33 1;
#X connect 53 2 28 0;
#X connect 53 3 8 2;
#X connect 56 0 52 0;
#X restore 696 199 pd searchMetaFile;
#X obj 609 288 outlet;
#X text 385 288 outlet 5: comments;
#X obj 639 266 outlet;
#X text 385 264 outlet 6: link (youtube zB);
#X obj 747 62 bng 15 250 50 0 empty empty empty 17 7 0 10 -262144 -1
-1;
#X obj 725 231 bng 15 250 50 0 empty empty empty 17 7 0 10 -262144
-1 -1;
#N canvas -1928 4 1904 986 searchFileNew 1;
#X obj 774 275 inlet;
#X obj 773 298 s2l /;
#X obj 773 348 zl nth 1;
#X obj 773 323 zl rev;
#X obj 773 369 symbol;
#X symbolatom 986 331 152 0 0 0 - - -, f 152;
#X obj 986 279 openpanel;
#X msg 986 249 symbol /Exercises;
#X obj 986 216 bng 15 250 50 0 empty \$0-browseForExercise browse\ for\ exercise
21 7 0 10 -262144 -1 -1;
#X obj 1178 280 bng 15 250 50 0 empty empty empty 17 7 0 10 -262144
-1 -1;
#X symbolatom 773 394 57 0 0 0 - - -, f 57;
#X obj 426 420 textEditor init*metaData.txt;
#X obj 426 445 list trim;
#X obj 426 470 route name;
#X obj 426 495 route metaData;
#X symbolatom 627 533 78 0 0 0 - - -, f 78;
#X msg 426 390 readLine \$1;
#X obj 426 246 counter;
#X obj 426 144 bng 15 250 50 0 empty empty empty 17 7 0 10 -262144
-1 -1;
#X obj 454 218 bng 15 250 50 0 empty empty empty 17 7 0 10 -262144
-1 -1;
#X floatatom 426 271 5 0 0 0 - - -, f 5;
#X obj 624 312 print;
#X obj 627 512 symbol;
#X obj 426 593 print found;
#X obj 792 447 s \$0-resetCounter;
#X obj 454 195 r \$0-resetCounter;
#X obj 483 533 s \$0-increaseCounter;
#X obj 426 117 r \$0-increaseCounter;
#X obj 426 324 moses 20;
#X obj 426 295 t f f;
#X floatatom 591 447 5 0 0 0 - - -, f 5;
#X obj 521 367 s \$0-resetCounter;
#X obj 453 560 s \$0-resetCounter;
#X obj 426 520 t b b;
#X obj 773 469 s \$0-increaseCounter;
#X obj 773 418 t b b s;
#X obj 625 405 loadbang;
#X obj 625 430 del 1000;
#X obj 294 367 outlet;
#X obj 471 350 t b b;
#X text 268 391 file not found;
#X obj 426 167 del 1;
#X connect 0 0 1 0;
#X connect 1 0 3 0;
#X connect 2 0 4 0;
#X connect 3 0 2 0;
#X connect 4 0 10 0;
#X connect 5 0 1 0;
#X connect 6 0 5 0;
#X connect 7 0 6 0;
#X connect 8 0 7 0;
#X connect 9 0 5 0;
#X connect 10 0 35 0;
#X connect 11 0 12 0;
#X connect 11 2 30 0;
#X connect 12 0 13 0;
#X connect 13 0 14 0;
#X connect 13 1 26 0;
#X connect 14 0 33 0;
#X connect 14 1 22 0;
#X connect 14 1 26 0;
#X connect 16 0 11 0;
#X connect 17 0 20 0;
#X connect 18 0 41 0;
#X connect 19 0 17 2;
#X connect 20 0 29 0;
#X connect 22 0 15 0;
#X connect 25 0 19 0;
#X connect 27 0 18 0;
#X connect 28 0 16 0;
#X connect 28 1 39 0;
#X connect 29 0 28 0;
#X connect 29 1 21 0;
#X connect 30 0 28 1;
#X connect 33 0 23 0;
#X connect 33 1 32 0;
#X connect 35 0 34 0;
#X connect 35 1 24 0;
#X connect 35 2 14 1;
#X connect 36 0 37 0;
#X connect 37 0 30 0;
#X connect 39 0 38 0;
#X connect 39 1 31 0;
#X connect 41 0 17 0;
#X restore 327 575 pd searchFileNew;
#X obj 327 600 print File Not Found;
#N canvas 0 0 1349 665 newEntry 0;
#X obj 436 141 inlet;
#X msg 670 317 bpm 50;
#X obj 436 231 t b b b b b b s;
#X obj 469 167 inlet;
#X obj 479 446 outlet;
#X obj 479 410 prepend newEntry;
#X obj 436 196 symbol;
#X msg 558 317 timePlayed 0;
#X msg 401 317 placeHolder;
#X msg 479 317 placeHolder;
#X msg 316 317 placeHolder;
#X msg 228 317 placeHolder;
#X obj 751 319 prepend name;
#X connect 0 0 6 0;
#X connect 1 0 5 0;
#X connect 2 0 11 0;
#X connect 2 1 10 0;
#X connect 2 2 8 0;
#X connect 2 3 9 0;
#X connect 2 4 7 0;
#X connect 2 5 1 0;
#X connect 2 6 12 0;
#X connect 3 0 6 1;
#X connect 5 0 4 0;
#X connect 6 0 2 0;
#X connect 7 0 5 0;
#X connect 8 0 5 0;
#X connect 9 0 5 0;
#X connect 10 0 5 0;
#X connect 11 0 5 0;
#X connect 12 0 5 0;
#X restore 484 571 pd newEntry;
#X connect 2 0 11 0;
#X connect 11 0 19 1;
#X connect 11 1 20 0;
#X connect 13 0 18 0;
#X connect 19 0 4 0;
#X connect 19 1 5 0;
#X connect 19 2 6 0;
#X connect 19 3 16 0;
#X connect 19 4 21 0;
#X connect 19 5 23 0;
#X connect 20 0 19 0;
#X connect 25 0 11 0;
#X connect 26 0 19 1;
#X connect 27 0 28 0;
#X restore 1045 481 pd metaData;
#X f 12;
#X symbolatom 1045 330 97 0 0 0 - - -, f 97;
#X obj 1045 278 openpanel;
#X msg 1045 248 symbol /Exercises;
#X obj 1045 215 bng 15 250 50 0 empty \$0-browseForExercise browse\ for\ exercise
21 7 0 10 -262144 -1 -1;
#X obj 1237 279 bng 15 250 50 0 empty empty empty 17 7 0 10 -262144
-1 -1;
#X connect 1 0 0 0;
#X connect 2 0 1 0;
#X connect 3 0 2 0;
#X connect 4 0 3 0;
#X connect 5 0 1 0;
