#N canvas 0 0 1888 970 10;
#X obj 630 113 image D:/Diverses/PureData/2019onwards/Pd_GuitarApp/images/fretboard.jpg
0;
#X msg -220 -93 open \$1;
#X msg -219 -154 D:/Diverses/PureData/2019onwards/Pd_GuitarApp/images/fretboard.jpg
;
#X obj -219 -116 symbol;
#X obj -219 -178 loadbang;
#N canvas 0 0 1888 970 E_String 0;
#X obj 1340 -89 s fret;
#X obj 1283 -89 s string;
#X obj 1283 -177 unpack f f;
#X msg 734 -613 A A# B C C# D D# E F F# G G#;
#X obj 756 -899 list length;
#X obj 756 -848 for, f 5;
#X obj 756 -871 t b f;
#X obj 783 -819 + 1;
#X obj 734 -746 zl nth;
#X obj 734 -777 list;
#X obj 734 -588 zl nth;
#X obj 734 -665 + 1;
#X obj 734 -691 realModulo 12;
#X obj 734 -717 + 0;
#X text 928 -759 Grundton;
#X dropdown 869 -759 6 0 0 0 - - -, f 6;
#X msg 869 -838 names A A# B C C# D D# E F F# G G#;
#X floatatom 869 -733 5 0 0 0 - - -, f 5;
#X obj 869 -865 loadbang;
#X obj 803 -468 + 1;
#X obj 770 -524 bng 15 250 50 0 empty empty empty 17 7 0 10 -262144
-1 -1;
#X floatatom 803 -443 5 0 0 0 - - -, f 5;
#X obj 728 -298 symbol;
#X obj 803 -360 zl nth;
#X obj 734 -563 t b s;
#X obj 802 -336 t b s;
#X symbolatom 932 -318 10 0 0 0 - - -, f 10;
#X obj 802 -239 route;
#X obj 728 -257 list trim;
#X obj 803 -421 t b f f, f 12;
#X obj 802 -185 f;
#X obj 802 -215 bng 15 250 50 0 empty empty empty 17 7 0 10 -262144
-1 -1;
#X obj 873 -239 - 1;
#X msg 1283 -212 1 \$1;
#X dropdown 1388 -177 14 1 0 0 - - -, f 14;
#X obj 829 -103 counter;
#X obj 829 -127 bng 15 250 50 0 empty empty empty 17 7 0 10 -262144
-1 -1;
#X obj 1388 -146 s \$0-bang_index;
#N canvas 0 323 450 346 resetAllBangs 0;
#X obj 161 88 bng 15 250 50 0 empty empty empty 17 7 0 10 -262144 -1
-1;
#X floatatom 188 142 5 0 0 0 - - -, f 5;
#X obj 188 166 t b f;
#X msg 188 191 7 25;
#X obj 215 249 outlet;
#X obj 188 271 outlet;
#X obj 161 63 inlet;
#X text 267 247 receive of bang;
#X text 234 272 place to put all the bangs;
#X obj 161 115 for 15, f 12;
#X connect 0 0 9 0;
#X connect 1 0 2 0;
#X connect 2 0 3 0;
#X connect 2 1 4 0;
#X connect 3 0 5 0;
#X connect 6 0 0 0;
#X connect 9 1 1 0;
#X restore 1283 -295 pd resetAllBangs;
#X f 18;
#X obj 1283 -401 bng 28 250 50 0 empty empty empty 17 7 0 10 -262144
-1 -1;
#X obj 1283 -883 bng 15 250 50 0 empty empty empty 17 7 0 10 -262144
-1 -1;
#X obj 553 -161 pack s s;
#X msg 553 -138 \; \$2 label \$1;
#X obj 756 -926 t l l b b;
#X obj 661 -315 f;
#X obj 553 -201 zl nth;
#X obj 553 -230 list;
#X obj 782 -794 t b f f;
#X obj 687 -251 bng 21 250 50 0 empty empty empty 17 7 0 10 -262144
-1 -1;
#X obj 802 -154 t f b;
#N canvas 719 335 1022 300 color 0;
#X obj 520 52 inlet;
#X obj 603 189 tabread \$0-colors;
#X msg 520 132 0;
#X msg 548 132 1;
#X msg 576 132 2;
#X msg 604 132 3;
#X msg 632 132 4;
#X msg 660 132 5;
#X msg 688 132 6;
#X obj 603 214 outlet;
#X obj 520 91 route '1' '2' '3' '4' '5' '6' '7' 'T', f 38;
#X msg 716 132 7;
#X connect 0 0 10 0;
#X connect 1 0 9 0;
#X connect 2 0 1 0;
#X connect 3 0 1 0;
#X connect 4 0 1 0;
#X connect 5 0 1 0;
#X connect 6 0 1 0;
#X connect 7 0 1 0;
#X connect 8 0 1 0;
#X connect 10 0 2 0;
#X connect 10 1 3 0;
#X connect 10 2 4 0;
#X connect 10 3 5 0;
#X connect 10 4 6 0;
#X connect 10 5 7 0;
#X connect 10 6 8 0;
#X connect 10 7 11 0;
#X connect 11 0 1 0;
#X restore 1095 -185 pd color;
#X msg 1095 -124 \; \$2 color \$1 22;
#X obj 1095 -161 pack f s;
#X obj 734 -644 t b f, f 12;
#X obj 1388 -89 loadbang;
#X obj 770 -493 for 25;
#X msg 803 -385 E F F# G G# A A# B C C# D D# E F F# G G# A A# B C C#
D D# E;
#X obj 1130 -804 r \$0-rootNote;
#X msg 1388 -60 names \$0-E1 \$0-E2 \$0-E3 \$0-E4 \$0-E5 \$0-E6 \$0-E7
\$0-E8 \$0-E9 \$0-E10 \$0-E11 \$0-E12 \$0-E13 \$0-E14 \$0-E15;
#X obj 490 -943 r \$0-intervalls;
#X obj 318 -247 r \$0-intervallNames;
#X obj 1451 -482 loadbang;
#X obj 1594 -416 spigot;
#X obj 1645 -491 tgl 15 0 empty \$0-display_E_string empty 17 7 0 10
-262144 -1 -1 0 1;
#X obj 1594 -376 del 200;
#X obj 1645 -468 * -1;
#X obj 1645 -443 + 1;
#X connect 2 0 1 0;
#X connect 2 1 0 0;
#X connect 3 0 10 0;
#X connect 4 0 6 0;
#X connect 5 1 7 0;
#X connect 6 0 5 0;
#X connect 6 1 5 1;
#X connect 7 0 47 0;
#X connect 8 0 13 0;
#X connect 9 0 8 0;
#X connect 10 0 24 0;
#X connect 11 0 53 0;
#X connect 12 0 11 0;
#X connect 13 0 12 0;
#X connect 15 0 17 0;
#X connect 16 0 15 0;
#X connect 17 0 13 1;
#X connect 18 0 16 0;
#X connect 19 0 21 0;
#X connect 20 0 55 0;
#X connect 21 0 29 0;
#X connect 22 0 28 0;
#X connect 23 0 25 0;
#X connect 24 0 20 0;
#X connect 24 1 22 1;
#X connect 25 0 22 0;
#X connect 25 1 26 0;
#X connect 25 1 27 1;
#X connect 27 0 31 0;
#X connect 28 0 27 0;
#X connect 29 0 56 0;
#X connect 29 1 23 1;
#X connect 29 2 32 0;
#X connect 30 0 49 0;
#X connect 31 0 30 0;
#X connect 32 0 30 1;
#X connect 33 0 2 0;
#X connect 34 0 41 1;
#X connect 34 0 52 1;
#X connect 34 0 37 0;
#X connect 35 0 34 0;
#X connect 36 0 35 0;
#X connect 38 0 2 0;
#X connect 38 1 34 0;
#X connect 39 0 38 0;
#X connect 40 0 39 0;
#X connect 40 0 62 0;
#X connect 41 0 42 0;
#X connect 43 0 4 0;
#X connect 43 1 9 1;
#X connect 43 2 35 2;
#X connect 43 3 40 0;
#X connect 44 0 45 1;
#X connect 45 0 41 0;
#X connect 45 0 50 0;
#X connect 46 0 45 0;
#X connect 47 0 9 0;
#X connect 47 1 8 1;
#X connect 47 2 44 0;
#X connect 48 0 46 0;
#X connect 49 0 48 0;
#X connect 49 0 33 0;
#X connect 49 1 36 0;
#X connect 50 0 52 0;
#X connect 52 0 51 0;
#X connect 53 0 3 0;
#X connect 53 1 10 1;
#X connect 54 0 58 0;
#X connect 55 1 19 0;
#X connect 56 0 23 0;
#X connect 57 0 15 0;
#X connect 58 0 34 0;
#X connect 59 0 43 0;
#X connect 60 0 46 1;
#X connect 61 0 39 0;
#X connect 62 0 64 0;
#X connect 63 0 65 0;
#X connect 64 0 38 0;
#X connect 65 0 66 0;
#X connect 66 0 62 1;
#X restore 1266 473 pd E_String;
#X obj 1650 180 bng 22 250 50 0 empty \$0-A2 '1' -5 7 0 17 -44926 -17
-1;
#X obj 1650 180 bng 22 250 50 0 empty \$0-A8 '7' -5 7 0 17 -166441
-17 -1;
#X obj 1650 180 bng 22 250 50 0 empty \$0-A10 '5' -5 7 0 17 -166441
-17 -1;
#X obj 1650 180 bng 22 250 50 0 empty \$0-A12 '6' -5 7 0 17 -166441
-17 -1;
#X obj 1650 180 bng 22 250 50 0 empty \$0-A1 '1' -5 7 0 17 -44926 -166441
-1;
#X obj 1650 180 bng 22 250 50 0 empty \$0-A3 '1' -5 7 0 17 -44926 -17
-1;
#X obj 1650 180 bng 22 250 50 0 empty \$0-A6 '5' -5 7 0 17 -166441
-17 -1;
#X obj 1650 180 bng 22 250 50 0 empty \$0-A9 '7' -5 7 0 17 -166441
-17 -1;
#X obj 1650 180 bng 22 250 50 0 empty \$0-A11 '5' -5 7 0 17 -166441
-17 -1;
#X obj 1650 180 bng 22 250 50 0 empty \$0-A13 '6' -5 7 0 17 -166441
-17 -1;
#X obj 1650 180 bng 22 250 50 0 empty \$0-A14 '7' -5 7 0 17 -166441
-17 -1;
#X obj 1650 180 bng 22 250 50 0 empty \$0-A5 '3' -5 7 0 17 -166441
-17 -1;
#X obj 1650 180 bng 22 250 50 0 empty \$0-E2 '1' -5 7 0 17 -44926 -17
-1;
#X obj 1650 180 bng 22 250 50 0 empty \$0-E8 '7' -5 7 0 17 -166441
-17 -1;
#X obj 1650 180 bng 22 250 50 0 empty \$0-E10 '5' -5 7 0 17 -166441
-17 -1;
#X obj 1650 180 bng 22 250 50 0 empty \$0-E12 '6' -5 7 0 17 -166441
-17 -1;
#X obj 1650 180 bng 22 250 50 0 empty \$0-E1 '1' -5 7 0 17 -44926 -166441
-1;
#X obj 1650 180 bng 22 250 50 0 empty \$0-E3 '3' -5 7 0 17 -166441
-17 -1;
#X obj 1650 180 bng 22 250 50 0 empty \$0-E6 '5' -5 7 0 17 -166441
-17 -1;
#X obj 1650 180 bng 22 250 50 0 empty \$0-E9 '7' -5 7 0 17 -166441
-17 -1;
#X obj 1650 180 bng 22 250 50 0 empty \$0-E11 '5' -5 7 0 17 -166441
-17 -1;
#X obj 1650 180 bng 22 250 50 0 empty \$0-E13 '6' -5 7 0 17 -166441
-17 -1;
#X obj 1650 180 bng 22 250 50 0 empty \$0-E14 '7' -5 7 0 17 -166441
-17 -1;
#X obj 1650 180 bng 22 250 50 0 empty \$0-E5 '5' -5 7 0 17 -166441
-17 -1;
#X obj 1650 180 bng 22 250 50 0 empty \$0-D2 '1' -5 7 0 17 -44926 -17
-1;
#X obj 1650 180 bng 22 250 50 0 empty \$0-D8 '7' -5 7 0 17 -166441
-17 -1;
#X obj 1650 180 bng 22 250 50 0 empty \$0-D10 '5' -5 7 0 17 -166441
-17 -1;
#X obj 1650 180 bng 22 250 50 0 empty \$0-D12 '6' -5 7 0 17 -166441
-17 -1;
#X obj 1650 180 bng 22 250 50 0 empty \$0-D1 '1' -5 7 0 17 -44926 -166441
-1;
#X obj 1650 180 bng 22 250 50 0 empty \$0-D3 '3' -5 7 0 17 -166441
-17 -1;
#X obj 1650 180 bng 22 250 50 0 empty \$0-D6 '5' -5 7 0 17 -166441
-17 -1;
#X obj 1650 180 bng 22 250 50 0 empty \$0-D9 '4' -5 7 0 17 -166441
-17 -1;
#X obj 1650 180 bng 22 250 50 0 empty \$0-D11 '5' -5 7 0 17 -166441
-17 -1;
#X obj 1650 180 bng 22 250 50 0 empty \$0-D13 '6' -5 7 0 17 -166441
-17 -1;
#X obj 1650 180 bng 22 250 50 0 empty \$0-D14 '7' -5 7 0 17 -166441
-17 -1;
#X obj 1650 180 bng 22 250 50 0 empty \$0-D5 '5' -5 7 0 17 -166441
-17 -1;
#N canvas 0 0 1904 1009 A_String 0;
#X obj 1340 -146 s fret;
#X obj 1283 -146 s string;
#X obj 1283 -177 unpack f f;
#X msg 734 -613 A A# B C C# D D# E F F# G G#;
#X obj 756 -899 list length;
#X obj 756 -848 for, f 5;
#X obj 756 -871 t b f;
#X obj 783 -819 + 1;
#X obj 734 -746 zl nth;
#X obj 734 -777 list;
#X obj 734 -588 zl nth;
#X obj 734 -665 + 1;
#X obj 734 -691 realModulo 12;
#X obj 734 -717 + 0;
#X text 928 -759 Grundton;
#X dropdown 869 -759 6 0 0 0 - - -, f 6;
#X msg 869 -838 names A A# B C C# D D# E F F# G G#;
#X floatatom 869 -733 5 0 0 0 - - -, f 5;
#X obj 869 -865 loadbang;
#X obj 803 -468 + 1;
#X obj 770 -524 bng 15 250 50 0 empty empty empty 17 7 0 10 -262144
-1 -1;
#X floatatom 803 -443 5 0 0 0 - - -, f 5;
#X obj 728 -298 symbol;
#X obj 803 -360 zl nth;
#X obj 734 -563 t b s;
#X obj 802 -336 t b s;
#X symbolatom 932 -318 10 0 0 0 - - -, f 10;
#X obj 802 -239 route;
#X obj 728 -257 list trim;
#X obj 803 -421 t b f f, f 12;
#X obj 802 -185 f;
#X obj 802 -215 bng 15 250 50 0 empty empty empty 17 7 0 10 -262144
-1 -1;
#X obj 873 -239 - 1;
#X dropdown 1390 -170 14 1 0 0 - - -, f 14;
#X obj 830 -103 counter;
#X obj 829 -127 bng 15 250 50 0 empty empty empty 17 7 0 10 -262144
-1 -1;
#X obj 1390 -146 s \$0-bang_index;
#N canvas 194 301 450 323 resetAllBangs 0;
#X obj 161 88 bng 15 250 50 0 empty empty empty 17 7 0 10 -262144 -1
-1;
#X floatatom 188 142 5 0 0 0 - - -, f 5;
#X obj 188 166 t b f;
#X msg 188 191 7 25;
#X obj 215 249 outlet;
#X obj 188 271 outlet;
#X obj 161 63 inlet;
#X text 267 247 receive of bang;
#X text 234 272 place to put all the bangs;
#X obj 161 115 for 15, f 10;
#X connect 0 0 9 0;
#X connect 1 0 2 0;
#X connect 2 0 3 0;
#X connect 2 1 4 0;
#X connect 3 0 5 0;
#X connect 6 0 0 0;
#X connect 9 1 1 0;
#X restore 1283 -295 pd resetAllBangs;
#X obj 1283 -394 bng 28 250 50 0 empty empty empty 17 7 0 10 -262144
-1 -1;
#X obj 1283 -861 bng 16 250 50 0 empty empty empty 17 7 0 10 -262144
-1 -1;
#X obj 552 -81 pack s s;
#X msg 552 -58 \; \$2 label \$1;
#X obj 756 -926 t l l b b;
#X obj 661 -315 f;
#X obj 553 -170 zl nth;
#X obj 553 -199 list;
#X obj 782 -794 t b f f;
#X obj 718 -219 bng 21 250 50 0 empty empty empty 17 7 0 10 -262144
-1 -1;
#X obj 802 -154 t f b;
#N canvas 0 0 1888 970 color 0;
#X obj 599 144 inlet;
#X obj 682 281 tabread \$0-colors;
#X msg 599 224 0;
#X msg 626 224 1;
#X msg 654 224 2;
#X msg 682 224 3;
#X msg 710 224 4;
#X msg 738 224 5;
#X msg 766 224 6;
#X obj 682 306 outlet;
#X msg 796 224 7;
#X obj 599 183 route '1' '2' '3' '4' '5' '6' '7' 'T', f 38;
#X connect 0 0 11 0;
#X connect 1 0 9 0;
#X connect 2 0 1 0;
#X connect 3 0 1 0;
#X connect 4 0 1 0;
#X connect 5 0 1 0;
#X connect 6 0 1 0;
#X connect 7 0 1 0;
#X connect 8 0 1 0;
#X connect 10 0 1 0;
#X connect 11 0 2 0;
#X connect 11 1 3 0;
#X connect 11 2 4 0;
#X connect 11 3 5 0;
#X connect 11 4 6 0;
#X connect 11 5 7 0;
#X connect 11 6 8 0;
#X connect 11 7 10 0;
#X restore 1095 -198 pd color;
#X msg 1095 -124 \; \$2 color \$1 22;
#X obj 1095 -161 pack f s;
#X obj 734 -644 t b f, f 12;
#X obj 1390 -89 loadbang;
#X obj 770 -493 for 25;
#X msg 1283 -212 2 \$1;
#X obj 1067 -669 r \$0-rootNote;
#X msg 803 -385 A A# B C C# D D# E F F# G G# A A# B C C# D D# E F F#
G G# A;
#X msg 1390 -60 names \$0-A1 \$0-A2 \$0-A3 \$0-A4 \$0-A5 \$0-A6 \$0-A7
\$0-A8 \$0-A9 \$0-A10 \$0-A11 \$0-A12 \$0-A13 \$0-A14 \$0-A15;
#X obj 409 -943 r \$0-intervalls;
#X obj 137 -218 r \$0-intervallNames;
#X obj 1440 -432 loadbang;
#X obj 1577 -479 spigot;
#X obj 1628 -554 tgl 15 0 empty \$0-display_A_string empty 17 7 0 10
-262144 -1 -1 0 1;
#X obj 1577 -439 del 200;
#X obj 1628 -531 * -1;
#X obj 1628 -506 + 1;
#X connect 2 0 1 0;
#X connect 2 1 0 0;
#X connect 3 0 10 0;
#X connect 4 0 6 0;
#X connect 5 1 7 0;
#X connect 6 0 5 0;
#X connect 6 1 5 1;
#X connect 7 0 46 0;
#X connect 8 0 13 0;
#X connect 9 0 8 0;
#X connect 10 0 24 0;
#X connect 11 0 52 0;
#X connect 12 0 11 0;
#X connect 13 0 12 0;
#X connect 15 0 17 0;
#X connect 16 0 15 0;
#X connect 17 0 13 1;
#X connect 18 0 16 0;
#X connect 19 0 21 0;
#X connect 20 0 54 0;
#X connect 21 0 29 0;
#X connect 22 0 28 0;
#X connect 23 0 25 0;
#X connect 24 0 20 0;
#X connect 24 1 22 1;
#X connect 25 0 22 0;
#X connect 25 1 26 0;
#X connect 25 1 27 1;
#X connect 27 0 31 0;
#X connect 28 0 27 0;
#X connect 29 0 57 0;
#X connect 29 1 23 1;
#X connect 29 2 32 0;
#X connect 30 0 48 0;
#X connect 31 0 30 0;
#X connect 32 0 30 1;
#X connect 33 0 36 0;
#X connect 33 0 40 1;
#X connect 33 0 51 1;
#X connect 34 0 33 0;
#X connect 35 0 34 0;
#X connect 37 0 2 0;
#X connect 37 1 33 0;
#X connect 38 0 37 0;
#X connect 39 0 38 0;
#X connect 39 0 62 0;
#X connect 40 0 41 0;
#X connect 42 0 4 0;
#X connect 42 1 9 1;
#X connect 42 2 34 2;
#X connect 42 3 39 0;
#X connect 43 0 44 1;
#X connect 44 0 40 0;
#X connect 44 0 49 0;
#X connect 45 0 44 0;
#X connect 46 0 9 0;
#X connect 46 1 8 1;
#X connect 46 2 43 0;
#X connect 47 0 45 0;
#X connect 48 0 47 0;
#X connect 48 0 55 0;
#X connect 48 1 35 0;
#X connect 49 0 51 0;
#X connect 51 0 50 0;
#X connect 52 0 3 0;
#X connect 52 1 10 1;
#X connect 53 0 58 0;
#X connect 54 1 19 0;
#X connect 55 0 2 0;
#X connect 56 0 15 0;
#X connect 57 0 23 0;
#X connect 58 0 33 0;
#X connect 59 0 42 0;
#X connect 60 0 45 1;
#X connect 61 0 38 0;
#X connect 62 0 64 0;
#X connect 63 0 65 0;
#X connect 64 0 37 0;
#X connect 65 0 66 0;
#X connect 66 0 62 1;
#X restore 1266 495 pd A_String;
#X obj 1650 180 bng 22 250 50 0 empty \$0-E4 '3' -5 7 0 17 -166441
-17 -1;
#X obj 1650 180 bng 22 250 50 0 empty \$0-E7 '5' -5 7 0 17 -166441
-17 -1;
#X obj 1650 180 bng 22 250 50 0 empty \$0-A7 '5' -5 7 0 17 -166441
-17 -1;
#X obj 1650 180 bng 22 250 50 0 empty \$0-A4 '3' -5 7 0 17 -166441
-17 -1;
#X obj 718 371 s \$0-rootNote;
#X dropdown 542 256 6 0 0 0 - - -, f 6;
#X msg -113 321 names A A# B C C# D D# E F F# G G#;
#X obj 1650 180 bng 22 250 50 0 empty \$0-D4 '3' -5 7 0 17 -166441
-166441 -1;
#X obj 1650 180 bng 22 250 50 0 empty \$0-D7 '7' -5 7 0 17 -166441
-17 -1;
#X obj 1650 180 bng 22 250 50 0 empty \$0-G2 '1' -5 7 0 17 -44926 -17
-1;
#X obj 1650 180 bng 22 250 50 0 empty \$0-G1 '1' -5 7 0 17 -44926 -166441
-1;
#X obj 1650 180 bng 22 250 50 0 empty \$0-G3 '3' -5 7 0 17 -166441
-17 -1;
#X obj 1650 180 bng 22 250 50 0 empty \$0-G9 '7' -5 7 0 17 -166441
-17 -1;
#X obj 1650 180 bng 22 250 50 0 empty \$0-G11 '6' -5 7 0 17 -166441
-17 -1;
#X obj 1650 180 bng 22 250 50 0 empty \$0-G13 '7' -5 7 0 17 -166441
-17 -1;
#X obj 1650 180 bng 22 250 50 0 empty \$0-G5 '5' -5 7 0 17 -166441
-17 -1;
#X obj 1650 180 bng 22 250 50 0 empty \$0-G4 '3' -5 7 0 17 -166441
-166441 -1;
#X obj 1650 180 bng 22 250 50 0 empty \$0-G7 '7' -5 7 0 17 -166441
-17 -1;
#N canvas 0 0 1888 970 D_String 0;
#X obj 1340 -146 s fret;
#X obj 1283 -146 s string;
#X obj 1283 -177 unpack f f;
#X msg 734 -613 A A# B C C# D D# E F F# G G#;
#X obj 756 -899 list length;
#X obj 756 -848 for, f 5;
#X obj 756 -871 t b f;
#X obj 783 -819 + 1;
#X obj 734 -746 zl nth;
#X obj 734 -777 list;
#X obj 734 -588 zl nth;
#X obj 734 -665 + 1;
#X obj 734 -691 realModulo 12;
#X obj 734 -717 + 0;
#X text 928 -759 Grundton;
#X dropdown 869 -759 6 0 0 0 - - -, f 6;
#X msg 869 -838 names A A# B C C# D D# E F F# G G#;
#X floatatom 869 -733 5 0 0 0 - - -, f 5;
#X obj 869 -865 loadbang;
#X obj 803 -468 + 1;
#X obj 770 -524 bng 15 250 50 0 empty empty empty 17 7 0 10 -262144
-1 -1;
#X floatatom 803 -443 5 0 0 0 - - -, f 5;
#X obj 728 -298 symbol;
#X obj 803 -360 zl nth;
#X obj 734 -563 t b s;
#X obj 802 -336 t b s;
#X symbolatom 932 -318 10 0 0 0 - - -, f 10;
#X obj 802 -239 route;
#X obj 728 -257 list trim;
#X obj 803 -421 t b f f, f 12;
#X obj 802 -185 f;
#X obj 802 -215 bng 15 250 50 0 empty empty empty 17 7 0 10 -262144
-1 -1;
#X obj 873 -239 - 1;
#X dropdown 1390 -170 14 1 0 0 - - -, f 14;
#X obj 830 -103 counter;
#X obj 829 -127 bng 15 250 50 0 empty empty empty 17 7 0 10 -262144
-1 -1;
#X obj 1390 -146 s \$0-bang_index;
#N canvas 194 301 450 323 resetAllBangs 0;
#X obj 161 88 bng 15 250 50 0 empty empty empty 17 7 0 10 -262144 -1
-1;
#X floatatom 188 142 5 0 0 0 - - -, f 5;
#X obj 188 166 t b f;
#X msg 188 191 7 25;
#X obj 215 249 outlet;
#X obj 188 271 outlet;
#X obj 161 63 inlet;
#X text 267 247 receive of bang;
#X text 234 272 place to put all the bangs;
#X obj 161 115 for 15, f 10;
#X connect 0 0 9 0;
#X connect 1 0 2 0;
#X connect 2 0 3 0;
#X connect 2 1 4 0;
#X connect 3 0 5 0;
#X connect 6 0 0 0;
#X connect 9 1 1 0;
#X restore 1283 -295 pd resetAllBangs;
#X obj 1283 -394 bng 28 250 50 0 empty empty empty 17 7 0 10 -262144
-1 -1;
#X obj 1283 -855 bng 16 250 50 0 empty empty empty 17 7 0 10 -262144
-1 -1;
#X obj 552 -81 pack s s;
#X msg 552 -58 \; \$2 label \$1;
#X obj 756 -926 t l l b b;
#X obj 661 -315 f;
#X obj 553 -170 zl nth;
#X obj 553 -199 list;
#X obj 782 -794 t b f f;
#X obj 718 -219 bng 21 250 50 0 empty empty empty 17 7 0 10 -262144
-1 -1;
#X obj 802 -154 t f b;
#N canvas 0 0 1904 1009 color 0;
#X obj 233 39 inlet;
#X obj 316 201 outlet;
#X obj 316 162 tabread \$0-colors;
#X msg 233 105 0;
#X msg 261 105 1;
#X msg 289 105 2;
#X msg 317 105 3;
#X msg 345 105 4;
#X msg 373 105 5;
#X msg 401 105 6;
#X obj 233 64 route '1' '2' '3' '4' '5' '6' '7' 'T', f 38;
#X msg 429 105 7;
#X connect 0 0 10 0;
#X connect 2 0 1 0;
#X connect 3 0 2 0;
#X connect 4 0 2 0;
#X connect 5 0 2 0;
#X connect 6 0 2 0;
#X connect 7 0 2 0;
#X connect 8 0 2 0;
#X connect 9 0 2 0;
#X connect 10 0 3 0;
#X connect 10 1 4 0;
#X connect 10 2 5 0;
#X connect 10 3 6 0;
#X connect 10 4 7 0;
#X connect 10 5 8 0;
#X connect 10 6 9 0;
#X connect 10 7 11 0;
#X connect 11 0 2 0;
#X restore 1095 -198 pd color;
#X msg 1095 -124 \; \$2 color \$1 22;
#X obj 1095 -161 pack f s;
#X obj 734 -644 t b f, f 12;
#X obj 1390 -89 loadbang;
#X obj 770 -493 for 25;
#X obj 1067 -669 r \$0-rootNote;
#X msg 803 -385 D D# E F F# G G# A A# B C C# D D# E F F# G G# A A#
B C C# D;
#X msg 1295 -212 3 \$1;
#X msg 1390 -60 names \$0-D1 \$0-D2 \$0-D3 \$0-D4 \$0-D5 \$0-D6 \$0-D7
\$0-D8 \$0-D9 \$0-D10 \$0-D11 \$0-D12 \$0-D13 \$0-D14 \$0-D15;
#X obj 469 -942 r \$0-intervalls;
#X obj 329 -215 r \$0-intervallNames;
#X obj 1352 -413 loadbang;
#X obj 1470 -445 spigot;
#X obj 1521 -520 tgl 15 0 empty \$0-display_D_string empty 17 7 0 10
-262144 -1 -1 0 1;
#X obj 1470 -405 del 200;
#X obj 1521 -497 * -1;
#X obj 1521 -472 + 1;
#X connect 2 0 1 0;
#X connect 2 1 0 0;
#X connect 3 0 10 0;
#X connect 4 0 6 0;
#X connect 5 1 7 0;
#X connect 6 0 5 0;
#X connect 6 1 5 1;
#X connect 7 0 46 0;
#X connect 8 0 13 0;
#X connect 9 0 8 0;
#X connect 10 0 24 0;
#X connect 11 0 52 0;
#X connect 12 0 11 0;
#X connect 13 0 12 0;
#X connect 15 0 17 0;
#X connect 16 0 15 0;
#X connect 17 0 13 1;
#X connect 18 0 16 0;
#X connect 19 0 21 0;
#X connect 20 0 54 0;
#X connect 21 0 29 0;
#X connect 22 0 28 0;
#X connect 23 0 25 0;
#X connect 24 0 20 0;
#X connect 24 1 22 1;
#X connect 25 0 22 0;
#X connect 25 1 26 0;
#X connect 25 1 27 1;
#X connect 27 0 31 0;
#X connect 28 0 27 0;
#X connect 29 0 56 0;
#X connect 29 1 23 1;
#X connect 29 2 32 0;
#X connect 30 0 48 0;
#X connect 31 0 30 0;
#X connect 32 0 30 1;
#X connect 33 0 36 0;
#X connect 33 0 40 1;
#X connect 33 0 51 1;
#X connect 34 0 33 0;
#X connect 35 0 34 0;
#X connect 37 0 2 0;
#X connect 37 1 33 0;
#X connect 38 0 37 0;
#X connect 39 0 38 0;
#X connect 39 0 62 0;
#X connect 40 0 41 0;
#X connect 42 0 4 0;
#X connect 42 1 9 1;
#X connect 42 2 34 2;
#X connect 42 3 39 0;
#X connect 43 0 44 1;
#X connect 44 0 40 0;
#X connect 44 0 49 0;
#X connect 45 0 44 0;
#X connect 46 0 9 0;
#X connect 46 1 8 1;
#X connect 46 2 43 0;
#X connect 47 0 45 0;
#X connect 48 0 47 0;
#X connect 48 0 57 0;
#X connect 48 1 35 0;
#X connect 49 0 51 0;
#X connect 51 0 50 0;
#X connect 52 0 3 0;
#X connect 52 1 10 1;
#X connect 53 0 58 0;
#X connect 54 1 19 0;
#X connect 55 0 15 0;
#X connect 56 0 23 0;
#X connect 57 0 2 0;
#X connect 58 0 33 0;
#X connect 59 0 42 0;
#X connect 60 0 45 1;
#X connect 61 0 38 0;
#X connect 62 0 64 0;
#X connect 63 0 65 0;
#X connect 64 0 37 0;
#X connect 65 0 66 0;
#X connect 66 0 62 1;
#X restore 1266 518 pd D_String;
#X obj 1650 0 bng 22 250 50 0 empty \$0-B9 '4' -5 7 0 17 -166441 -17
-1;
#X obj 717 39 bng 22 250 50 0 empty \$0-B1 '1' -5 7 0 17 -44926 -166441
-1;
#X obj 118 39 bng 22 250 50 0 empty \$0-B3 '3' -5 7 0 17 -166441 -17
-1;
#X obj 1055 39 bng 22 250 50 0 empty \$0-B6 '5' -5 7 0 17 -166441 -17
-1;
#X obj 590 39 bng 22 250 50 0 empty \$0-B7 '7' -5 7 0 17 -166441 -17
-1;
#X obj 1165 39 bng 22 250 50 0 empty \$0-B8 '7' -5 7 0 17 -166441 -17
-1;
#X obj 375 39 bng 22 250 50 0 empty \$0-B5 '5' -5 7 0 17 -166441 -17
-1;
#X obj 1228 39 bng 22 250 50 0 empty \$0-B2 '1' -5 7 0 17 -44926 -166441
-1;
#X obj 928 39 bng 22 250 50 0 empty \$0-B4 '3' -5 7 0 17 -166441 -17
-1;
#X obj 1650 0 bng 22 250 50 0 empty \$0-B10 '5' -5 7 0 17 -166441 -17
-1;
#N canvas 0 0 1888 970 G_String 0;
#X obj 1340 -146 s fret;
#X obj 1283 -146 s string;
#X obj 1283 -177 unpack f f;
#X msg 734 -613 A A# B C C# D D# E F F# G G#;
#X obj 756 -899 list length;
#X obj 756 -848 for, f 5;
#X obj 756 -871 t b f;
#X obj 783 -819 + 1;
#X obj 734 -746 zl nth;
#X obj 734 -777 list;
#X obj 734 -588 zl nth;
#X obj 734 -665 + 1;
#X obj 734 -691 realModulo 12;
#X obj 734 -717 + 0;
#X text 928 -759 Grundton;
#X dropdown 869 -759 6 0 0 0 - - -, f 6;
#X msg 869 -838 names A A# B C C# D D# E F F# G G#;
#X floatatom 869 -733 5 0 0 0 - - -, f 5;
#X obj 869 -865 loadbang;
#X obj 803 -468 + 1;
#X obj 770 -524 bng 15 250 50 0 empty empty empty 17 7 0 10 -262144
-1 -1;
#X floatatom 803 -443 5 0 0 0 - - -, f 5;
#X obj 728 -298 symbol;
#X obj 803 -360 zl nth;
#X obj 734 -563 t b s;
#X obj 802 -336 t b s;
#X symbolatom 932 -318 10 0 0 0 - - -, f 10;
#X obj 802 -239 route;
#X obj 728 -257 list trim;
#X obj 803 -421 t b f f, f 12;
#X obj 802 -185 f;
#X obj 802 -215 bng 15 250 50 0 empty empty empty 17 7 0 10 -262144
-1 -1;
#X obj 873 -239 - 1;
#X dropdown 1390 -170 14 1 0 0 - - -, f 14;
#X obj 830 -103 counter;
#X obj 829 -127 bng 15 250 50 0 empty empty empty 17 7 0 10 -262144
-1 -1;
#X obj 1390 -146 s \$0-bang_index;
#N canvas 194 301 450 323 resetAllBangs 0;
#X obj 161 88 bng 15 250 50 0 empty empty empty 17 7 0 10 -262144 -1
-1;
#X floatatom 188 142 5 0 0 0 - - -, f 5;
#X obj 188 166 t b f;
#X msg 188 191 7 25;
#X obj 215 249 outlet;
#X obj 188 271 outlet;
#X obj 161 63 inlet;
#X text 267 247 receive of bang;
#X text 234 272 place to put all the bangs;
#X obj 161 115 for 15, f 12;
#X connect 0 0 9 0;
#X connect 1 0 2 0;
#X connect 2 0 3 0;
#X connect 2 1 4 0;
#X connect 3 0 5 0;
#X connect 6 0 0 0;
#X connect 9 1 1 0;
#X restore 1283 -295 pd resetAllBangs;
#X obj 1283 -394 bng 28 250 50 0 empty empty empty 17 7 0 10 -262144
-1 -1;
#X obj 1283 -861 bng 16 250 50 0 empty empty empty 17 7 0 10 -262144
-1 -1;
#X obj 552 -81 pack s s;
#X msg 552 -58 \; \$2 label \$1;
#X obj 756 -926 t l l b b;
#X obj 661 -315 f;
#X obj 553 -170 zl nth;
#X obj 553 -199 list;
#X obj 782 -794 t b f f;
#X obj 718 -219 bng 21 250 50 0 empty empty empty 17 7 0 10 -262144
-1 -1;
#X obj 802 -154 t f b;
#N canvas 719 335 611 300 color 0;
#X obj 308 39 inlet;
#X obj 391 201 outlet;
#X obj 392 163 tabread \$0-colors;
#X msg 309 106 0;
#X msg 337 106 1;
#X msg 365 106 2;
#X msg 393 106 3;
#X msg 421 106 4;
#X msg 449 106 5;
#X msg 477 106 6;
#X obj 309 65 route '1' '2' '3' '4' '5' '6' '7' 'T', f 38;
#X msg 505 106 7;
#X connect 0 0 10 0;
#X connect 2 0 1 0;
#X connect 3 0 2 0;
#X connect 4 0 2 0;
#X connect 5 0 2 0;
#X connect 6 0 2 0;
#X connect 7 0 2 0;
#X connect 8 0 2 0;
#X connect 9 0 2 0;
#X connect 10 0 3 0;
#X connect 10 1 4 0;
#X connect 10 2 5 0;
#X connect 10 3 6 0;
#X connect 10 4 7 0;
#X connect 10 5 8 0;
#X connect 10 6 9 0;
#X connect 10 7 11 0;
#X connect 11 0 2 0;
#X restore 1095 -198 pd color;
#X msg 1095 -124 \; \$2 color \$1 22;
#X obj 1095 -161 pack f s;
#X obj 734 -644 t b f, f 12;
#X obj 1390 -89 loadbang;
#X obj 770 -493 for 25;
#X obj 1067 -669 r \$0-rootNote;
#X msg 1283 -212 4 \$1;
#X msg 803 -385 G G# A A# B C C# D D# E F F# G G# A A# B C C# D D#
E F F# G;
#X msg 1386 -61 names \$0-G1 \$0-G2 \$0-G3 \$0-G4 \$0-G5 \$0-G6 \$0-G7
\$0-G8 \$0-G9 \$0-G10 \$0-G11 \$0-G12 \$0-G13 \$0-G14 \$0-G15;
#X obj 358 -890 r \$0-intervalls;
#X obj 474 -896 r \$0-intervallNames;
#X obj 1312 -427 loadbang;
#X obj 1392 -441 spigot;
#X obj 1443 -516 tgl 15 0 empty \$0-display_G_string empty 17 7 0 10
-262144 -1 -1 0 1;
#X obj 1392 -401 del 200;
#X obj 1443 -493 * -1;
#X obj 1443 -468 + 1;
#X connect 2 0 1 0;
#X connect 2 1 0 0;
#X connect 3 0 10 0;
#X connect 4 0 6 0;
#X connect 5 1 7 0;
#X connect 6 0 5 0;
#X connect 6 1 5 1;
#X connect 7 0 46 0;
#X connect 8 0 13 0;
#X connect 9 0 8 0;
#X connect 10 0 24 0;
#X connect 11 0 52 0;
#X connect 12 0 11 0;
#X connect 13 0 12 0;
#X connect 15 0 17 0;
#X connect 16 0 15 0;
#X connect 17 0 13 1;
#X connect 18 0 16 0;
#X connect 19 0 21 0;
#X connect 20 0 54 0;
#X connect 21 0 29 0;
#X connect 22 0 28 0;
#X connect 23 0 25 0;
#X connect 24 0 20 0;
#X connect 24 1 22 1;
#X connect 25 0 22 0;
#X connect 25 1 26 0;
#X connect 25 1 27 1;
#X connect 27 0 31 0;
#X connect 28 0 27 0;
#X connect 29 0 57 0;
#X connect 29 1 23 1;
#X connect 29 2 32 0;
#X connect 30 0 48 0;
#X connect 31 0 30 0;
#X connect 32 0 30 1;
#X connect 33 0 36 0;
#X connect 33 0 40 1;
#X connect 33 0 51 1;
#X connect 34 0 33 0;
#X connect 35 0 34 0;
#X connect 37 0 2 0;
#X connect 37 1 33 0;
#X connect 38 0 37 0;
#X connect 39 0 38 0;
#X connect 39 0 62 0;
#X connect 40 0 41 0;
#X connect 42 0 4 0;
#X connect 42 1 9 1;
#X connect 42 2 34 2;
#X connect 42 3 39 0;
#X connect 43 0 44 1;
#X connect 44 0 40 0;
#X connect 44 0 49 0;
#X connect 45 0 44 0;
#X connect 46 0 9 0;
#X connect 46 1 8 1;
#X connect 46 2 43 0;
#X connect 47 0 45 0;
#X connect 48 0 47 0;
#X connect 48 0 56 0;
#X connect 48 1 35 0;
#X connect 49 0 51 0;
#X connect 51 0 50 0;
#X connect 52 0 3 0;
#X connect 52 1 10 1;
#X connect 53 0 58 0;
#X connect 54 1 19 0;
#X connect 55 0 15 0;
#X connect 56 0 2 0;
#X connect 57 0 23 0;
#X connect 58 0 33 0;
#X connect 59 0 42 0;
#X connect 60 0 45 1;
#X connect 61 0 38 0;
#X connect 62 0 64 0;
#X connect 63 0 65 0;
#X connect 64 0 37 0;
#X connect 65 0 66 0;
#X connect 66 0 62 1;
#X restore 1349 473 pd G_String;
#X obj 1650 180 bng 22 250 50 0 empty \$0-G12 '6' -5 7 0 17 -166441
-17 -1;
#X obj 1650 180 bng 22 250 50 0 empty \$0-G10 '5' -5 7 0 17 -166441
-17 -1;
#X obj 1650 180 bng 22 250 50 0 empty \$0-G14 '7' -5 7 0 17 -166441
-17 -1;
#X obj 1650 180 bng 22 250 50 0 empty \$0-G6 '5' -5 7 0 17 -166441
-17 -1;
#X obj 1650 180 bng 22 250 50 0 empty \$0-G8 '7' -5 7 0 17 -166441
-17 -1;
#X obj 1650 0 bng 22 250 50 0 empty \$0-B11 '5' -5 7 0 17 -166441 -17
-1;
#X obj 1650 0 bng 22 250 50 0 empty \$0-B12 '6' -5 7 0 17 -166441 -166441
-1;
#X obj 1650 0 bng 22 250 50 0 empty \$0-B14 '7' -5 7 0 17 -166441 -166441
-1;
#X obj 1650 0 bng 22 250 50 0 empty \$0-B13 '6' -5 7 0 17 -166441 -166441
-1;
#X obj 972 0 bng 22 250 50 0 empty \$0-e9 '7' -5 7 0 17 -166441 -17
-1;
#X obj 375 0 bng 22 250 50 0 empty \$0-e1 '1' -5 7 0 17 -44926 -166441
-1;
#X obj 654 0 bng 22 250 50 0 empty \$0-e3 '3' -5 7 0 17 -166441 -17
-1;
#X obj 828 0 bng 22 250 50 0 empty \$0-e6 '5' -5 7 0 17 -166441 -17
-1;
#X obj 1284 0 bng 22 250 50 0 empty \$0-e7 '5' -5 7 0 17 -166441 -17
-1;
#X obj 210 0 bng 22 250 50 0 empty \$0-e8 '7' -5 7 0 17 -166441 -17
-1;
#X obj -41 0 bng 22 250 50 0 empty \$0-e5 '5' -5 7 0 17 -166441 -17
-1;
#X obj 1055 0 bng 22 250 50 0 empty \$0-e2 '1' -5 7 0 17 -44926 -166441
-1;
#X obj 1198 0 bng 22 250 50 0 empty \$0-e4 '3' -5 7 0 17 -166441 -17
-1;
#X obj 1650 180 bng 22 250 50 0 empty \$0-e10 '5' -5 7 0 17 -166441
-17 -1;
#X obj 1650 180 bng 22 250 50 0 empty \$0-e11 '5' -5 7 0 17 -166441
-17 -1;
#X obj 1650 180 bng 22 250 50 0 empty \$0-e12 '6' -5 7 0 17 -166441
-166441 -1;
#X obj 1650 180 bng 22 250 50 0 empty \$0-e14 '7' -5 7 0 17 -166441
-166441 -1;
#X obj 1650 180 bng 22 250 50 0 empty \$0-e13 '6' -5 7 0 17 -166441
-166441 -1;
#N canvas 0 8 1888 985 B_String 0;
#X obj 1340 -146 s fret;
#X obj 1283 -146 s string;
#X obj 1283 -177 unpack f f;
#X msg 734 -613 A A# B C C# D D# E F F# G G#;
#X obj 756 -899 list length;
#X obj 756 -848 for, f 5;
#X obj 756 -871 t b f;
#X obj 783 -819 + 1;
#X obj 734 -746 zl nth;
#X obj 734 -777 list;
#X obj 734 -588 zl nth;
#X obj 734 -665 + 1;
#X obj 734 -691 realModulo 12;
#X obj 734 -717 + 0;
#X text 928 -759 Grundton;
#X dropdown 869 -759 6 0 0 0 - - -, f 6;
#X msg 869 -838 names A A# B C C# D D# E F F# G G#;
#X floatatom 869 -733 5 0 0 0 - - -, f 5;
#X obj 869 -865 loadbang;
#X obj 803 -468 + 1;
#X obj 770 -524 bng 15 250 50 0 empty empty empty 17 7 0 10 -262144
-1 -1;
#X floatatom 803 -443 5 0 0 0 - - -, f 5;
#X obj 728 -298 symbol;
#X obj 803 -360 zl nth;
#X obj 734 -563 t b s;
#X obj 802 -336 t b s;
#X symbolatom 932 -318 10 0 0 0 - - -, f 10;
#X obj 802 -239 route;
#X obj 728 -257 list trim;
#X obj 803 -421 t b f f, f 12;
#X obj 802 -185 f;
#X obj 802 -215 bng 15 250 50 0 empty empty empty 17 7 0 10 -262144
-1 -1;
#X obj 873 -239 - 1;
#X dropdown 1390 -170 14 1 0 0 - - -, f 14;
#X obj 830 -103 counter;
#X obj 829 -127 bng 15 250 50 0 empty empty empty 17 7 0 10 -262144
-1 -1;
#X obj 1390 -146 s \$0-bang_index;
#N canvas 194 301 450 323 resetAllBangs 0;
#X obj 161 88 bng 15 250 50 0 empty empty empty 17 7 0 10 -262144 -1
-1;
#X floatatom 188 142 5 0 0 0 - - -, f 5;
#X obj 188 166 t b f;
#X msg 188 191 7 25;
#X obj 215 249 outlet;
#X obj 188 271 outlet;
#X obj 161 63 inlet;
#X text 267 247 receive of bang;
#X text 234 272 place to put all the bangs;
#X obj 161 115 for 15, f 11;
#X connect 0 0 9 0;
#X connect 1 0 2 0;
#X connect 2 0 3 0;
#X connect 2 1 4 0;
#X connect 3 0 5 0;
#X connect 6 0 0 0;
#X connect 9 1 1 0;
#X restore 1283 -295 pd resetAllBangs;
#X obj 1283 -394 bng 28 250 50 0 empty empty empty 17 7 0 10 -262144
-1 -1;
#X obj 1283 -861 bng 16 250 50 0 empty empty empty 17 7 0 10 -262144
-1 -1;
#X obj 552 -81 pack s s;
#X msg 552 -58 \; \$2 label \$1;
#X obj 756 -926 t l l b b;
#X obj 661 -315 f;
#X obj 553 -170 zl nth;
#X obj 553 -199 list;
#X obj 782 -794 t b f f;
#X obj 718 -219 bng 21 250 50 0 empty empty empty 17 7 0 10 -262144
-1 -1;
#X obj 802 -154 t f b;
#N canvas 719 335 611 300 color 0;
#X obj 279 36 inlet;
#X obj 362 198 outlet;
#X obj 362 161 tabread \$0-colors;
#X msg 279 104 0;
#X msg 307 104 1;
#X msg 335 104 2;
#X msg 363 104 3;
#X msg 391 104 4;
#X msg 419 104 5;
#X msg 447 104 6;
#X obj 279 63 route '1' '2' '3' '4' '5' '6' '7' 'T', f 38;
#X msg 475 104 7;
#X connect 0 0 10 0;
#X connect 2 0 1 0;
#X connect 3 0 2 0;
#X connect 4 0 2 0;
#X connect 5 0 2 0;
#X connect 6 0 2 0;
#X connect 7 0 2 0;
#X connect 8 0 2 0;
#X connect 9 0 2 0;
#X connect 10 0 3 0;
#X connect 10 1 4 0;
#X connect 10 2 5 0;
#X connect 10 3 6 0;
#X connect 10 4 7 0;
#X connect 10 5 8 0;
#X connect 10 6 9 0;
#X connect 10 7 11 0;
#X connect 11 0 2 0;
#X restore 1095 -198 pd color;
#X msg 1095 -124 \; \$2 color \$1 22;
#X obj 1095 -161 pack f s;
#X obj 734 -644 t b f, f 12;
#X obj 1390 -89 loadbang;
#X obj 770 -493 for 25;
#X obj 1067 -669 r \$0-rootNote;
#X msg 1283 -212 5 \$1;
#X msg 803 -385 B C C# D D# E F F# G G# A A# B C C# D D# E F F# G G#
A A# B;
#X msg 1386 -61 names \$0-B1 \$0-B2 \$0-B3 \$0-B4 \$0-B5 \$0-B6 \$0-B7
\$0-B8 \$0-B9 \$0-B10 \$0-B11 \$0-B12 \$0-B13 \$0-B14 \$0-B15;
#X obj 527 -944 r \$0-intervalls;
#X obj 333 -215 r \$0-intervallNames;
#X obj 1314 -422 loadbang;
#X obj 1402 -421 spigot;
#X obj 1453 -496 tgl 15 0 empty \$0-display_B_string empty 17 7 0 10
-262144 -1 -1 0 1;
#X obj 1402 -381 del 200;
#X obj 1453 -473 * -1;
#X obj 1453 -448 + 1;
#X connect 2 0 1 0;
#X connect 2 1 0 0;
#X connect 3 0 10 0;
#X connect 4 0 6 0;
#X connect 5 1 7 0;
#X connect 6 0 5 0;
#X connect 6 1 5 1;
#X connect 7 0 46 0;
#X connect 8 0 13 0;
#X connect 9 0 8 0;
#X connect 10 0 24 0;
#X connect 11 0 52 0;
#X connect 12 0 11 0;
#X connect 13 0 12 0;
#X connect 15 0 17 0;
#X connect 16 0 15 0;
#X connect 17 0 13 1;
#X connect 18 0 16 0;
#X connect 19 0 21 0;
#X connect 20 0 54 0;
#X connect 21 0 29 0;
#X connect 22 0 28 0;
#X connect 23 0 25 0;
#X connect 24 0 20 0;
#X connect 24 1 22 1;
#X connect 25 0 22 0;
#X connect 25 1 26 0;
#X connect 25 1 27 1;
#X connect 27 0 31 0;
#X connect 28 0 27 0;
#X connect 29 0 57 0;
#X connect 29 1 23 1;
#X connect 29 2 32 0;
#X connect 30 0 48 0;
#X connect 31 0 30 0;
#X connect 32 0 30 1;
#X connect 33 0 36 0;
#X connect 33 0 40 1;
#X connect 33 0 51 1;
#X connect 34 0 33 0;
#X connect 35 0 34 0;
#X connect 37 0 2 0;
#X connect 37 1 33 0;
#X connect 38 0 37 0;
#X connect 39 0 38 0;
#X connect 39 0 62 0;
#X connect 40 0 41 0;
#X connect 42 0 4 0;
#X connect 42 1 9 1;
#X connect 42 2 34 2;
#X connect 42 3 39 0;
#X connect 43 0 44 1;
#X connect 44 0 40 0;
#X connect 44 0 49 0;
#X connect 45 0 44 0;
#X connect 46 0 9 0;
#X connect 46 1 8 1;
#X connect 46 2 43 0;
#X connect 47 0 45 0;
#X connect 48 0 47 0;
#X connect 48 0 56 0;
#X connect 48 1 35 0;
#X connect 49 0 51 0;
#X connect 51 0 50 0;
#X connect 52 0 3 0;
#X connect 52 1 10 1;
#X connect 53 0 58 0;
#X connect 54 1 19 0;
#X connect 55 0 15 0;
#X connect 56 0 2 0;
#X connect 57 0 23 0;
#X connect 58 0 33 0;
#X connect 59 0 42 0;
#X connect 60 0 45 1;
#X connect 61 0 38 0;
#X connect 62 0 64 0;
#X connect 63 0 65 0;
#X connect 64 0 37 0;
#X connect 65 0 66 0;
#X connect 66 0 62 1;
#X restore 1349 495 pd B_String;
#N canvas 0 0 1888 970 e_String 0;
#X obj 1340 -146 s fret;
#X obj 1283 -146 s string;
#X obj 1283 -177 unpack f f;
#X msg 734 -613 A A# B C C# D D# E F F# G G#;
#X obj 756 -899 list length;
#X obj 756 -848 for, f 5;
#X obj 756 -871 t b f;
#X obj 783 -819 + 1;
#X obj 734 -746 zl nth;
#X obj 734 -777 list;
#X obj 734 -588 zl nth;
#X obj 734 -665 + 1;
#X obj 734 -691 realModulo 12;
#X obj 734 -717 + 0;
#X text 928 -759 Grundton;
#X dropdown 869 -759 6 0 0 0 - - -, f 6;
#X msg 869 -838 names A A# B C C# D D# E F F# G G#;
#X floatatom 869 -733 5 0 0 0 - - -, f 5;
#X obj 869 -865 loadbang;
#X obj 803 -468 + 1;
#X obj 770 -524 bng 15 250 50 0 empty empty empty 17 7 0 10 -262144
-1 -1;
#X floatatom 803 -443 5 0 0 0 - - -, f 5;
#X obj 728 -298 symbol;
#X obj 803 -360 zl nth;
#X obj 734 -563 t b s;
#X obj 802 -336 t b s;
#X symbolatom 932 -318 10 0 0 0 - - -, f 10;
#X obj 802 -239 route;
#X obj 728 -257 list trim;
#X obj 803 -421 t b f f, f 12;
#X obj 802 -185 f;
#X obj 802 -215 bng 15 250 50 0 empty empty empty 17 7 0 10 -262144
-1 -1;
#X obj 873 -239 - 1;
#X dropdown 1394 -170 14 1 0 0 - - -, f 14;
#X obj 829 -103 counter;
#X obj 829 -127 bng 15 250 50 0 empty empty empty 17 7 0 10 -262144
-1 -1;
#X obj 1394 -146 s \$0-bang_index;
#N canvas 194 301 450 323 resetAllBangs 0;
#X obj 161 88 bng 15 250 50 0 empty empty empty 17 7 0 10 -262144 -1
-1;
#X floatatom 188 142 5 0 0 0 - - -, f 5;
#X obj 188 166 t b f;
#X msg 188 191 7 25;
#X obj 215 249 outlet;
#X obj 188 271 outlet;
#X obj 161 63 inlet;
#X text 267 247 receive of bang;
#X text 234 272 place to put all the bangs;
#X obj 161 115 for 15, f 9;
#X connect 0 0 9 0;
#X connect 1 0 2 0;
#X connect 2 0 3 0;
#X connect 2 1 4 0;
#X connect 3 0 5 0;
#X connect 6 0 0 0;
#X connect 9 1 1 0;
#X restore 1283 -295 pd resetAllBangs;
#X f 19;
#X obj 1283 -909 bng 16 250 50 0 empty empty empty 17 7 0 10 -262144
-1 -1;
#X obj 553 -143 pack s s;
#X msg 553 -120 \; \$2 label \$1;
#X obj 756 -926 t l l b b;
#X obj 661 -315 f;
#X obj 553 -170 zl nth;
#X obj 553 -199 list;
#X obj 782 -794 t b f f;
#X obj 718 -219 bng 21 250 50 0 empty empty empty 17 7 0 10 -262144
-1 -1;
#X obj 802 -154 t f b;
#N canvas 719 335 611 300 color 0;
#X obj 138 15 inlet;
#X obj 221 177 outlet;
#X obj 221 145 tabread \$0-colors;
#X msg 138 88 0;
#X msg 166 88 1;
#X msg 194 88 2;
#X msg 222 88 3;
#X msg 250 88 4;
#X msg 278 88 5;
#X msg 306 88 6;
#X obj 138 47 route '1' '2' '3' '4' '5' '6' '7' 'T', f 38;
#X msg 334 88 7;
#X connect 0 0 10 0;
#X connect 2 0 1 0;
#X connect 3 0 2 0;
#X connect 4 0 2 0;
#X connect 5 0 2 0;
#X connect 6 0 2 0;
#X connect 7 0 2 0;
#X connect 8 0 2 0;
#X connect 9 0 2 0;
#X connect 10 0 3 0;
#X connect 10 1 4 0;
#X connect 10 2 5 0;
#X connect 10 3 6 0;
#X connect 10 4 7 0;
#X connect 10 5 8 0;
#X connect 10 6 9 0;
#X connect 10 7 11 0;
#X connect 11 0 2 0;
#X restore 1095 -155 pd color;
#X msg 1095 -81 \; \$2 color \$1 22;
#X obj 1095 -118 pack f s;
#X obj 734 -644 t b f, f 12;
#X obj 1394 -89 loadbang;
#X obj 770 -493 for 25;
#X obj 902 -803 r \$0-rootNote;
#X msg 1283 -212 6 \$1;
#X msg 803 -385 E F F# G G# A A# B C C# D D# E F F# G G# A A# B C C#
D D# E;
#X msg 1394 -61 names \$0-e1 \$0-e2 \$0-e3 \$0-e4 \$0-e5 \$0-e6 \$0-e7
\$0-e8 \$0-e9 \$0-e10 \$0-e11 \$0-e12 \$0-e13 \$0-e14 \$0-e15;
#X obj 555 -944 r \$0-intervalls;
#X obj 297 -216 r \$0-intervallNames;
#X obj 1220 -312 loadbang;
#X obj 1307 -358 spigot;
#X obj 1358 -433 tgl 15 0 empty \$0-display_e_string empty 17 7 0 10
-262144 -1 -1 0 1;
#X obj 1307 -318 del 200;
#X obj 1358 -410 * -1;
#X obj 1358 -385 + 1;
#X connect 2 0 1 0;
#X connect 2 1 0 0;
#X connect 3 0 10 0;
#X connect 4 0 6 0;
#X connect 5 1 7 0;
#X connect 6 0 5 0;
#X connect 6 1 5 1;
#X connect 7 0 45 0;
#X connect 8 0 13 0;
#X connect 9 0 8 0;
#X connect 10 0 24 0;
#X connect 11 0 51 0;
#X connect 12 0 11 0;
#X connect 13 0 12 0;
#X connect 15 0 17 0;
#X connect 16 0 15 0;
#X connect 17 0 13 1;
#X connect 18 0 16 0;
#X connect 19 0 21 0;
#X connect 20 0 53 0;
#X connect 21 0 29 0;
#X connect 22 0 28 0;
#X connect 23 0 25 0;
#X connect 24 0 20 0;
#X connect 24 1 22 1;
#X connect 25 0 22 0;
#X connect 25 1 26 0;
#X connect 25 1 27 1;
#X connect 27 0 31 0;
#X connect 28 0 27 0;
#X connect 29 0 56 0;
#X connect 29 1 23 1;
#X connect 29 2 32 0;
#X connect 30 0 47 0;
#X connect 31 0 30 0;
#X connect 32 0 30 1;
#X connect 33 0 36 0;
#X connect 33 0 39 1;
#X connect 33 0 50 1;
#X connect 34 0 33 0;
#X connect 35 0 34 0;
#X connect 37 0 2 0;
#X connect 37 1 33 0;
#X connect 38 0 37 0;
#X connect 38 0 61 0;
#X connect 39 0 40 0;
#X connect 41 0 4 0;
#X connect 41 1 9 1;
#X connect 41 2 34 2;
#X connect 41 3 38 0;
#X connect 42 0 43 1;
#X connect 43 0 39 0;
#X connect 43 0 48 0;
#X connect 44 0 43 0;
#X connect 45 0 9 0;
#X connect 45 1 8 1;
#X connect 45 2 42 0;
#X connect 46 0 44 0;
#X connect 47 0 46 0;
#X connect 47 0 55 0;
#X connect 47 1 35 0;
#X connect 48 0 50 0;
#X connect 50 0 49 0;
#X connect 51 0 3 0;
#X connect 51 1 10 1;
#X connect 52 0 57 0;
#X connect 53 1 19 0;
#X connect 54 0 15 0;
#X connect 55 0 2 0;
#X connect 56 0 23 0;
#X connect 57 0 33 0;
#X connect 58 0 41 0;
#X connect 59 0 44 1;
#X connect 60 0 37 0;
#X connect 61 0 63 0;
#X connect 62 0 64 0;
#X connect 63 0 37 0;
#X connect 64 0 65 0;
#X connect 65 0 61 1;
#X restore 1349 518 pd e_String;
#X obj 1650 180 bng 22 250 50 0 empty \$0-E15 '7' -5 7 0 17 -166441
-17 -1;
#X obj 1650 180 bng 22 250 50 0 empty \$0-A15 '7' -5 7 0 17 -166441
-17 -1;
#X obj 1650 180 bng 22 250 50 0 empty \$0-D15 '7' -5 7 0 17 -166441
-17 -1;
#X obj 1650 180 bng 22 250 50 0 empty \$0-G15 '7' -5 7 0 17 -166441
-17 -1;
#X obj 1650 180 bng 22 250 50 0 empty \$0-e15 '7' -5 7 0 17 -166441
-17 -1;
#X obj 1650 0 bng 22 250 50 0 empty \$0-B15 '7' -5 7 0 17 -166441 -17
-1;
#X text 481 255 root note;
#X dropdown 26 242 14 1 0 0 - - -, f 14;
#X text -22 242 scale;
#X dropdown 27 266 20 1 0 0 - - -, f 20;
#X obj -113 299 loadbang;
#X text -36 266 arpeggio;
#X symbolatom 799 261 24 0 0 0 - - -, f 24;
#N canvas 0 0 1888 970 setScale 0;
#X msg 455 497 0 2 4 5 7 9 11;
#X msg 244 466 '1' '2' '3' '4' '5' '6' '7';
#X obj 455 449 t b b;
#X obj 455 426 bng 15 250 50 0 empty empty empty 17 7 0 10 -262144
-1 -1;
#X obj 535 449 t b b;
#X obj 535 426 bng 15 250 50 0 empty empty empty 17 7 0 10 -262144
-1 -1;
#X obj 974 469 t b b;
#X obj 974 446 bng 15 250 50 0 empty empty empty 17 7 0 10 -262144
-1 -1;
#X obj 1091 469 t b b;
#X obj 1091 446 bng 15 250 50 0 empty empty empty 17 7 0 10 -262144
-1 -1;
#X msg 535 529 0 2 3 5 7 8 10;
#X obj 931 324 inlet;
#X msg 841 486 '1' '3' '5';
#X msg 974 497 0 4 7;
#X msg 1091 517 0 3 7;
#X obj 455 561 s \$0-intervalls;
#X obj 244 561 s \$0-intervallNames;
#X obj 841 521 s \$0-intervallNames;
#X obj 974 534 s \$0-intervalls;
#X obj 1208 469 t b b;
#X obj 1208 446 bng 15 250 50 0 empty empty empty 17 7 0 10 -262144
-1 -1;
#X msg 1208 517 0 3 6;
#X obj 1757 513 s \$0-intervallNames;
#X obj 1325 469 t b b;
#X obj 1325 446 bng 15 250 50 0 empty empty empty 17 7 0 10 -262144
-1 -1;
#X msg 1325 517 0 3 7 10;
#X msg 1757 486 '1' '3' '5' '7';
#X obj 1442 469 t b b;
#X obj 1442 446 bng 15 250 50 0 empty empty empty 17 7 0 10 -262144
-1 -1;
#X msg 1442 517 0 4 7 11;
#X obj 615 449 t b b;
#X obj 615 426 bng 15 250 50 0 empty empty empty 17 7 0 10 -262144
-1 -1;
#X obj 695 449 t b b;
#X obj 695 426 bng 15 250 50 0 empty empty empty 17 7 0 10 -262144
-1 -1;
#X obj 455 400 route major natural_minor harmonic_minor melodic_minor
;
#X msg 615 497 0 2 3 5 7 8 11;
#X msg 695 529 0 2 3 5 7 9 11;
#X obj 455 449 t b b;
#X obj 455 426 bng 15 250 50 0 empty empty empty 17 7 0 10 -262144
-1 -1;
#X obj 535 449 t b b;
#X obj 535 426 bng 15 250 50 0 empty empty empty 17 7 0 10 -262144
-1 -1;
#X obj 615 449 t b b;
#X obj 615 426 bng 15 250 50 0 empty empty empty 17 7 0 10 -262144
-1 -1;
#X obj 695 449 t b b;
#X obj 695 426 bng 15 250 50 0 empty empty empty 17 7 0 10 -262144
-1 -1;
#X obj 931 663 t b b;
#X obj 931 640 bng 15 250 50 0 empty empty empty 17 7 0 10 -262144
-1 -1;
#X obj 1032 663 t b b;
#X obj 1032 640 bng 15 250 50 0 empty empty empty 17 7 0 10 -262144
-1 -1;
#X obj 1133 663 t b b;
#X obj 1133 640 bng 15 250 50 0 empty empty empty 17 7 0 10 -262144
-1 -1;
#X msg 958 726 '1' '3' '4' '5' '7';
#X msg 1059 693 '1' '2' '3' '5' '6';
#X msg 1160 726 '1' '3' '4' 'T' '5' '7';
#X obj 931 616 route minor_pentatonic major_pentatonic blues_scale
;
#X msg 931 753 0 3 5 7 10;
#X msg 1032 753 0 2 4 7 9;
#X msg 1133 753 0 3 5 6 7 10;
#X obj 931 786 s \$0-intervalls;
#X obj 1337 743 s \$0-intervallNames;
#X obj 331 667 route ionian dorian phrygian lydian mixolydian aeolian
locrian, f 72;
#X obj 331 726 t b b;
#X obj 331 699 bng 15 250 50 0 empty empty empty 17 7 0 10 -262144
-1 -1;
#X obj 392 726 t b b;
#X obj 392 699 bng 15 250 50 0 empty empty empty 17 7 0 10 -262144
-1 -1;
#X obj 453 726 t b b;
#X obj 453 699 bng 15 250 50 0 empty empty empty 17 7 0 10 -262144
-1 -1;
#X obj 514 726 t b b;
#X obj 514 699 bng 15 250 50 0 empty empty empty 17 7 0 10 -262144
-1 -1;
#X obj 576 726 t b b;
#X obj 576 699 bng 15 250 50 0 empty empty empty 17 7 0 10 -262144
-1 -1;
#X obj 637 726 t b b;
#X obj 637 699 bng 15 250 50 0 empty empty empty 17 7 0 10 -262144
-1 -1;
#X obj 698 726 t b b;
#X obj 698 699 bng 15 250 50 0 empty empty empty 17 7 0 10 -262144
-1 -1;
#X msg 119 743 '1' '2' '3' '4' '5' '6' '7';
#X obj 119 786 s \$0-intervallNames;
#X msg 331 762 0 2 4 5 7 9 11;
#X obj 514 863 s \$0-intervalls;
#X msg 637 799 0 2 3 5 7 8 10;
#X msg 392 799 0 2 3 5 7 9 10;
#X msg 453 762 0 1 3 5 7 8 10;
#X msg 514 799 0 2 4 6 7 9 11;
#X msg 576 762 0 2 4 5 7 9 10;
#X msg 698 762 0 1 3 5 6 8 10;
#X obj 1559 469 t b b;
#X obj 1559 446 bng 15 250 50 0 empty empty empty 17 7 0 10 -262144
-1 -1;
#X msg 1559 517 0 4 7 10;
#X obj 974 414 route major_arpeggio minor_arpeggio diminished_arpeggio
minor7th_arpeggio major7th_arpeggio dominant7th_arpeggio diminished7th_arpeggio
, f 137;
#X obj 1676 469 t b b;
#X obj 1676 446 bng 15 250 50 0 empty empty empty 17 7 0 10 -262144
-1 -1;
#X text 514 268 comment;
#X msg 1676 517 0 3 6 9;
#X text 1499 221 minor 7 flat 5 arpeggio \; half diminished \; augmented
;
#X connect 0 0 15 0;
#X connect 1 0 16 0;
#X connect 2 0 0 0;
#X connect 2 1 1 0;
#X connect 3 0 2 0;
#X connect 4 0 10 0;
#X connect 4 1 1 0;
#X connect 5 0 4 0;
#X connect 6 0 13 0;
#X connect 6 1 12 0;
#X connect 7 0 6 0;
#X connect 8 0 14 0;
#X connect 8 1 12 0;
#X connect 9 0 8 0;
#X connect 10 0 15 0;
#X connect 11 0 34 0;
#X connect 11 0 54 0;
#X connect 11 0 60 0;
#X connect 11 0 88 0;
#X connect 12 0 17 0;
#X connect 13 0 18 0;
#X connect 14 0 18 0;
#X connect 19 0 21 0;
#X connect 19 1 12 0;
#X connect 20 0 19 0;
#X connect 21 0 18 0;
#X connect 23 0 25 0;
#X connect 23 1 26 0;
#X connect 24 0 23 0;
#X connect 25 0 18 0;
#X connect 26 0 22 0;
#X connect 27 0 29 0;
#X connect 27 1 26 0;
#X connect 28 0 27 0;
#X connect 29 0 18 0;
#X connect 30 0 35 0;
#X connect 30 1 1 0;
#X connect 31 0 30 0;
#X connect 32 0 36 0;
#X connect 32 1 1 0;
#X connect 33 0 32 0;
#X connect 34 0 3 0;
#X connect 34 1 5 0;
#X connect 34 2 31 0;
#X connect 34 3 33 0;
#X connect 35 0 15 0;
#X connect 36 0 15 0;
#X connect 38 0 37 0;
#X connect 40 0 39 0;
#X connect 42 0 41 0;
#X connect 44 0 43 0;
#X connect 45 0 55 0;
#X connect 45 1 51 0;
#X connect 46 0 45 0;
#X connect 47 0 56 0;
#X connect 47 1 52 0;
#X connect 48 0 47 0;
#X connect 49 0 57 0;
#X connect 49 1 53 0;
#X connect 50 0 49 0;
#X connect 51 0 59 0;
#X connect 52 0 59 0;
#X connect 53 0 59 0;
#X connect 54 0 46 0;
#X connect 54 1 48 0;
#X connect 54 2 50 0;
#X connect 55 0 58 0;
#X connect 56 0 58 0;
#X connect 57 0 58 0;
#X connect 60 0 62 0;
#X connect 60 1 64 0;
#X connect 60 2 66 0;
#X connect 60 3 68 0;
#X connect 60 4 70 0;
#X connect 60 5 72 0;
#X connect 60 6 74 0;
#X connect 61 0 77 0;
#X connect 61 1 75 0;
#X connect 62 0 61 0;
#X connect 63 0 80 0;
#X connect 63 1 75 0;
#X connect 64 0 63 0;
#X connect 65 0 81 0;
#X connect 65 1 75 0;
#X connect 66 0 65 0;
#X connect 67 0 82 0;
#X connect 67 1 75 0;
#X connect 68 0 67 0;
#X connect 69 0 83 0;
#X connect 69 1 75 0;
#X connect 70 0 69 0;
#X connect 71 0 79 0;
#X connect 71 1 75 0;
#X connect 72 0 71 0;
#X connect 73 0 84 0;
#X connect 73 1 75 0;
#X connect 74 0 73 0;
#X connect 75 0 76 0;
#X connect 77 0 78 0;
#X connect 79 0 78 0;
#X connect 80 0 78 0;
#X connect 81 0 78 0;
#X connect 82 0 78 0;
#X connect 83 0 78 0;
#X connect 84 0 78 0;
#X connect 85 0 87 0;
#X connect 85 1 26 0;
#X connect 86 0 85 0;
#X connect 87 0 18 0;
#X connect 88 0 7 0;
#X connect 88 1 9 0;
#X connect 88 2 20 0;
#X connect 88 3 24 0;
#X connect 88 4 28 0;
#X connect 88 5 86 0;
#X connect 88 6 90 0;
#X connect 89 0 92 0;
#X connect 89 1 26 0;
#X connect 90 0 89 0;
#X connect 92 0 18 0;
#X restore 802 371 pd setScale;
#X obj 802 344 list trim;
#N canvas 0 0 1888 970 setColor 0;
#X floatatom 1170 607 5 0 0 0 - - -, f 5;
#X msg 620 590 0;
#X text 620 609 weiß;
#X text 811 608 gelb;
#X msg 811 590 105;
#X msg 715 639 73;
#X text 715 661 rot;
#X msg 747 590 169, f 6;
#X text 747 608 pink;
#X msg 683 590 167;
#X text 683 608 hellblau;
#X msg 651 639 166;
#X text 651 661 grün;
#X obj 875 537 hradio 15 0 0 10 empty empty empty 0 -8 0 10 -262144
-1 -1 7;
#X obj 620 521 bng 15 250 50 0 empty empty empty 17 7 0 10 -262144
-1 -1;
#X dropdown 606 251 11 0 0 0 - - -, f 11;
#X obj 606 177 loadbang;
#X msg 843 639 1;
#X text 843 661 grey;
#X msg 779 639 18;
#X text 779 661 blue;
#X msg 606 209 names white green brightBlue red pink blue yellow grey
;
#X obj 620 568 demux . . . . . . . . ., f 43;
#X floatatom 1086 656 5 0 0 0 - - -, f 5;
#X obj 1262 623 tabwrite \$0-colors;
#X msg 1367 285 0;
#X obj 573 248 bng 22 250 50 0 empty \$0-root-color '1' -5 7 0 17 -44926
-1 -1;
#X dropdown 606 280 11 0 0 0 - - -, f 11;
#X obj 573 277 bng 22 250 50 0 empty \$0-second-color '2' -5 7 0 17
-166441 -1 -1;
#X dropdown 606 309 11 0 0 0 - - -, f 11;
#X obj 573 306 bng 22 250 50 0 empty \$0-third-color '3' -5 7 0 17
-166441 -1 -1;
#X dropdown 606 336 11 0 0 0 - - -, f 11;
#X obj 573 332 bng 22 250 50 0 empty \$0-fourth-color '4' -5 7 0 17
-166441 -1 -1;
#X dropdown 606 362 11 0 0 0 - - -, f 11;
#X obj 573 358 bng 22 250 50 0 empty \$0-fifth-color '5' -5 7 0 17
-166441 -1 -1;
#X dropdown 606 387 11 0 0 0 - - -, f 11;
#X obj 573 384 bng 22 250 50 0 empty \$0-sixth-color '6' -5 7 0 17
-166441 -1 -1;
#X dropdown 606 413 11 0 0 0 - - -, f 11;
#X obj 847 266 t f b;
#X obj 848 505 t b f;
#X obj 573 410 bng 22 250 50 0 empty \$0-seventh-color '7' -5 7 0 17
-166441 -1 -1;
#X msg 1170 955 \; \$0-root-color color \$1 22;
#X floatatom 1367 589 5 0 0 0 - - -, f 5;
#X msg 1187 905 \; \$0-second-color color \$1 22;
#X obj 847 295 t f b;
#X msg 1367 313 1;
#X obj 847 323 t f b;
#X obj 847 348 t f b;
#X obj 847 373 t f b;
#X obj 847 398 t f b;
#X obj 847 422 t f b;
#X msg 1367 339 2;
#X msg 1367 366 3;
#X msg 1367 390 4;
#X msg 1367 413 5;
#X msg 1367 439 6;
#X msg 1205 864 \; \$0-third-color color \$1 22;
#X msg 1222 824 \; \$0-fourth-color color \$1 22;
#X msg 1240 773 \; \$0-fifth-color color \$1 22;
#X msg 1258 730 \; \$0-sixth-color color \$1 22;
#X msg 1275 695 \; \$0-seventh-color color \$1 22;
#X dropdown 606 440 11 0 0 0 - - -, f 11;
#X obj 573 437 bng 22 250 50 0 empty \$0-Tritone-color 'T' -5 7 0 17
-258699 -1 -1;
#X obj 847 448 t f b;
#X obj 1170 662 demux . . . . . . . . ., f 24;
#X msg 1468 679 \; \$0-Tritone-color color \$1 22;
#X msg 1367 465 7;
#X connect 0 0 24 0;
#X connect 0 0 64 0;
#X connect 1 0 0 0;
#X connect 4 0 0 0;
#X connect 5 0 23 0;
#X connect 7 0 0 0;
#X connect 9 0 0 0;
#X connect 11 0 23 0;
#X connect 13 0 22 1;
#X connect 14 0 22 0;
#X connect 15 0 38 0;
#X connect 16 0 21 0;
#X connect 17 0 23 0;
#X connect 19 0 23 0;
#X connect 21 0 15 0;
#X connect 21 0 27 0;
#X connect 21 0 37 0;
#X connect 21 0 35 0;
#X connect 21 0 33 0;
#X connect 21 0 31 0;
#X connect 21 0 29 0;
#X connect 21 0 61 0;
#X connect 22 0 1 0;
#X connect 22 1 11 0;
#X connect 22 2 9 0;
#X connect 22 3 5 0;
#X connect 22 4 7 0;
#X connect 22 5 19 0;
#X connect 22 6 4 0;
#X connect 22 7 17 0;
#X connect 23 0 0 0;
#X connect 25 0 42 0;
#X connect 27 0 44 0;
#X connect 29 0 46 0;
#X connect 31 0 47 0;
#X connect 33 0 48 0;
#X connect 35 0 49 0;
#X connect 37 0 50 0;
#X connect 38 0 39 0;
#X connect 38 1 25 0;
#X connect 39 0 14 0;
#X connect 39 1 13 0;
#X connect 42 0 24 1;
#X connect 42 0 64 1;
#X connect 44 0 39 0;
#X connect 44 1 45 0;
#X connect 45 0 42 0;
#X connect 46 0 39 0;
#X connect 46 1 51 0;
#X connect 47 0 39 0;
#X connect 47 1 52 0;
#X connect 48 0 39 0;
#X connect 48 1 53 0;
#X connect 49 0 39 0;
#X connect 49 1 54 0;
#X connect 50 0 39 0;
#X connect 50 1 55 0;
#X connect 51 0 42 0;
#X connect 52 0 42 0;
#X connect 53 0 42 0;
#X connect 54 0 42 0;
#X connect 55 0 42 0;
#X connect 61 0 63 0;
#X connect 63 0 39 0;
#X connect 63 1 66 0;
#X connect 64 0 41 0;
#X connect 64 1 43 0;
#X connect 64 2 56 0;
#X connect 64 3 57 0;
#X connect 64 4 58 0;
#X connect 64 5 59 0;
#X connect 64 6 60 0;
#X connect 64 7 65 0;
#X connect 66 0 42 0;
#X coords 0 -1 1 1 129 220 2 565 244;
#X restore 1353 42 pd setColor;
#N canvas 0 0 450 300 (subpatch) 0;
#X array \$0-colors 8 float 3 black black;
#A 0 167 1 1 1 1 1 1 73;
#X coords 0 170 8 0 200 140 1;
#X restore 1262 590 graph;
#X obj 691 344 t b f;
#X obj -95 172 tgl 22 0 \$0-display_E_string \$0-display_E_string_receive
empty 17 7 0 10 -195568 -1 -262144 0 1;
#X obj -95 140 tgl 22 0 \$0-display_A_string \$0-display_A_string_receive
empty 17 7 0 10 -195568 -1 -262144 0 1;
#X obj -95 104 tgl 22 0 \$0-display_D_string \$0-display_D_string_receive
empty 17 7 0 10 -195568 -1 -262144 0 1;
#X obj -95 69 tgl 22 0 \$0-display_G_string \$0-display_G_string_receive
empty 17 7 0 10 -195568 -1 -262144 0 1;
#X obj -95 35 tgl 22 0 \$0-display_B_string \$0-display_B_string_receive
empty 17 7 0 10 -195568 -1 -262144 1 1;
#X obj -95 -2 tgl 22 0 \$0-display_e_string \$0-display_e_string_receive
empty 17 7 0 10 -195568 -1 -262144 1 1;
#N canvas 0 0 1888 970 hide 0;
#X floatatom 240 289 5 0 0 0 - - -, f 5;
#X floatatom 240 232 5 0 0 0 - - -, f 5;
#X obj 240 256 t b f, f 8;
#X obj 338 183 zl nth;
#X floatatom 338 24 12 0 0 0 - - -, f 12;
#X floatatom 338 216 5 0 0 0 - - -, f 5;
#X obj 338 109 t b f, f 6;
#X obj 141 183 zl nth;
#X floatatom 141 216 5 0 0 0 - - -, f 5;
#X obj 141 109 t b f, f 6;
#X floatatom 141 24 5 0 0 0 - - -, f 5;
#X floatatom 141 79 5 0 0 0 - - -, f 5;
#X obj 141 52 expr -($f1 - 6) + 1, f 22;
#X obj 338 4 r fret;
#X obj 141 3 r string;
#X obj 240 313 pack f f s, f 16;
#X msg 528 500 \; \$3 pos \$1 \$2;
#X obj 338 82 + 1;
#X msg 141 145 0 39 70 107 143 180 250;
#X obj 365 296 r \$0-bang_index;
#X msg 338 145 -41 20 118 210 289 375 450 524 590 654 717 771 828 880
928 972 1015 1055 1095 1131 1165 1198 1228 1256 1284 1650;
#X obj 838 20 loadbang;
#X obj 838 67 s \$0-display_E_string_receive;
#X obj 839 89 s \$0-display_A_string_receive;
#X obj 838 114 s \$0-display_D_string_receive;
#X obj 838 136 s \$0-display_G_string_receive;
#X obj 838 164 s \$0-display_B_string_receive;
#X obj 838 186 s \$0-display_e_string_receive;
#X msg 838 45 set 1;
#X msg 837 -9 color 20;
#X obj 528 469 spigot;
#X floatatom 500 292 5 0 0 0 - - -, f 5;
#X floatatom 610 355 5 0 0 0 - - -, f 5;
#X msg 500 378 0;
#X msg 610 378 1;
#X obj 655 355 route 25;
#X obj 561 419 tgl 15 0 empty empty empty 17 7 0 10 -262144 -1 -1 1
1;
#X msg 655 378 1;
#X msg 700 378 0;
#X obj 338 48 t f f;
#X obj 606 296 r \$0-fromFret;
#X obj 783 288 r \$0-toFret;
#X obj 500 313 moses 0;
#X obj 610 330 moses 24;
#X obj 783 313 + 1;
#X connect 0 0 15 0;
#X connect 1 0 2 0;
#X connect 2 0 0 0;
#X connect 2 1 15 1;
#X connect 3 0 5 0;
#X connect 4 0 39 0;
#X connect 5 0 0 0;
#X connect 6 0 20 0;
#X connect 6 1 3 1;
#X connect 7 0 8 0;
#X connect 8 0 1 0;
#X connect 9 0 18 0;
#X connect 9 1 7 1;
#X connect 10 0 12 0;
#X connect 11 0 9 0;
#X connect 12 0 11 0;
#X connect 13 0 4 0;
#X connect 14 0 10 0;
#X connect 15 0 30 0;
#X connect 17 0 6 0;
#X connect 18 0 7 0;
#X connect 19 0 15 2;
#X connect 20 0 3 0;
#X connect 21 0 28 0;
#X connect 28 0 22 0;
#X connect 28 0 23 0;
#X connect 28 0 24 0;
#X connect 28 0 25 0;
#X connect 28 0 26 0;
#X connect 28 0 27 0;
#X connect 29 0 22 0;
#X connect 29 0 27 0;
#X connect 29 0 26 0;
#X connect 29 0 25 0;
#X connect 29 0 24 0;
#X connect 29 0 23 0;
#X connect 30 0 16 0;
#X connect 31 0 42 0;
#X connect 32 0 34 0;
#X connect 33 0 36 0;
#X connect 34 0 36 0;
#X connect 35 0 37 0;
#X connect 35 1 38 0;
#X connect 36 0 30 1;
#X connect 37 0 36 0;
#X connect 38 0 36 0;
#X connect 39 0 17 0;
#X connect 39 1 31 0;
#X connect 40 0 42 1;
#X connect 41 0 44 0;
#X connect 42 0 33 0;
#X connect 42 1 43 0;
#X connect 43 0 32 0;
#X connect 43 1 35 0;
#X connect 44 0 43 1;
#X restore 1266 545 pd hide;
#X dropdown 542 335 6 1 0 0 - - -, f 6;
#X symbolatom 726 261 10 0 0 0 - - -, f 10;
#X obj 1555 -1 s \$0-fromFret;
#X obj 1555 22 s \$0-toFret;
#X dropdown 1416 -17 6 1 0 0 - - -, f 6;
#X msg -113 387 names 0 1 2 3 4 5 6 7 8 9 10 11 12 13 14 15 16 17 18
19 20 21 22 23 24, f 73;
#X dropdown 1416 6 6 1 0 0 - - -, f 6;
#X msg 900 371 set A;
#X obj 900 344 loadbang;
#X msg 947 371 set minorScale;
#X obj 961 256 bng 25 250 50 0 empty empty refresh 31 8 0 18 -4096
-1 -1;
#X text 1353 -17 from fret;
#X text 1353 6 to fret;
#X obj 719 283 cnv 5 228 8 empty empty empty 20 12 0 14 -64 -66577
0;
#X obj 719 243 cnv 5 229 8 empty empty empty 20 12 0 14 -64 -66577
0;
#X msg 1449 358 set 24;
#X msg -113 344 names major natural_minor harmonic_minor melodic_minor
;
#X msg -113 409 names minor_pentatonic major_pentatonic blues_scale
;
#X dropdown 228 242 16 1 0 0 - - -, f 16;
#X text 161 242 pentatonic;
#X msg -113 428 names ionian dorian phrygian lydian mixolydian aeolian
locrian, f 65;
#X dropdown 230 266 16 1 0 0 - - -, f 16;
#X text 192 266 modes;
#X msg -113 368 names major_arpeggio minor_arpeggio diminished_arpeggio
minor7th_arpeggio major7th_arpeggio dominant7th_arpeggio diminished7th_arpeggio
, f 135;
#X connect 1 0 0 0;
#X connect 2 0 3 0;
#X connect 3 0 1 0;
#X connect 4 0 2 0;
#X connect 48 0 115 0;
#X connect 48 0 123 0;
#X connect 49 0 48 0;
#X connect 49 0 123 0;
#X connect 105 0 110 0;
#X connect 107 0 110 0;
#X connect 108 0 146 0;
#X connect 108 0 128 0;
#X connect 108 0 140 0;
#X connect 108 0 143 0;
#X connect 108 0 139 0;
#X connect 108 0 49 0;
#X connect 110 0 112 0;
#X connect 112 0 111 0;
#X connect 115 0 110 0;
#X connect 115 1 47 0;
#X connect 123 0 124 0;
#X connect 127 0 125 0;
#X connect 128 0 127 0;
#X connect 128 0 129 0;
#X connect 129 0 126 0;
#X connect 130 0 124 0;
#X connect 131 0 130 0;
#X connect 131 0 132 0;
#X connect 131 0 138 0;
#X connect 132 0 110 0;
#X connect 133 0 110 0;
#X connect 138 0 129 0;
#X connect 139 0 105 0;
#X connect 140 0 141 0;
#X connect 141 0 110 0;
#X connect 143 0 144 0;
#X connect 144 0 110 0;
#X connect 146 0 107 0;
#X coords 0 -1 1 1 1593 336 2 -99 -34;
