#N canvas 0 0 1888 970 10;
#X obj 649 390 outlet;
#X obj 910 41 loadbang;
#X obj 649 337 textfile;
#X obj 630 152 t b b b;
#X msg 649 260 rewind;
#X obj 630 293 bng 15 250 50 0 empty empty empty 17 7 0 10 -262144
-1 -1;
#X obj 594 129 bng 15 250 50 0 empty empty empty 17 7 0 10 -262144
-1 -1;
#X obj 910 221 symbol \$1;
#X obj 593 62 inlet;
#X obj 835 263 list trim;
#X obj 835 238 list;
#X obj 834 194 symbol;
#X msg 834 169 read;
#X obj 985 152 inlet;
#X obj 649 362 symbol;
#X connect 1 0 7 0;
#X connect 2 0 14 0;
#X connect 3 0 5 0;
#X connect 3 1 4 0;
#X connect 3 2 12 0;
#X connect 4 0 2 0;
#X connect 5 0 2 0;
#X connect 6 0 3 0;
#X connect 7 0 10 1;
#X connect 8 0 6 0;
#X connect 9 0 2 0;
#X connect 10 0 9 0;
#X connect 11 0 10 0;
#X connect 12 0 11 0;
#X connect 13 0 7 0;
#X connect 14 0 0 0;
