#N canvas 0 0 1888 970 10;
#X obj 761 264 soundfiler;
#X floatatom 761 289 15 0 0 0 - - -, f 15;
#X obj 761 106 inlet;
#X obj 761 155 t s b;
#X obj 1069 180 symbol \$1;
#X obj 1069 155 loadbang;
#X obj 761 197 pack s s;
#X msg 761 236 read \$1 \$2;
#X obj 761 402 pack f s;
#X msg 761 430 \; \$2 resize \$1;
#X msg 788 349 2.646e+007;
#X symbolatom 1069 386 10 0 0 0 - - -, f 10;
#X obj 716 513 outlet;
#X obj 716 319 t f f, f 8;
#X text 765 509 number of samples in audio file;
#X connect 0 0 1 0;
#X connect 1 0 13 0;
#X connect 2 0 3 0;
#X connect 3 0 6 0;
#X connect 3 1 10 0;
#X connect 4 0 6 1;
#X connect 4 0 11 0;
#X connect 5 0 4 0;
#X connect 6 0 7 0;
#X connect 7 0 0 0;
#X connect 8 0 9 0;
#X connect 10 0 8 0;
#X connect 11 0 8 1;
#X connect 13 0 12 0;
#X connect 13 1 8 0;
