#N canvas 0 0 1888 970 10;
#X dropdown 639 94 15 0 0 0 - - -, f 15;
#X floatatom 144 108 5 0 0 0 - - -, f 5;
#X obj 144 137 t b f;
#N canvas 0 0 1365 681 modes 0;
#X obj 253 192 route 0 1 2 3 4 5 6;
#X msg 253 231 0 2 4 5 7 9 11;
#X msg 302 266 0 2 3 5 7 9 10;
#X msg 360 300 0 1 3 5 7 8 10;
#X msg 388 325 0 2 4 6 7 9 11;
#X msg 432 354 0 2 4 5 7 9 10;
#X msg 488 385 0 2 3 5 7 8 10;
#X msg 524 419 0 1 3 5 6 8 10;
#X obj 253 436 outlet;
#X obj 253 139 inlet;
#X connect 0 0 1 0;
#X connect 0 1 2 0;
#X connect 0 2 3 0;
#X connect 0 3 4 0;
#X connect 0 4 5 0;
#X connect 0 5 6 0;
#X connect 0 6 7 0;
#X connect 1 0 8 0;
#X connect 2 0 8 0;
#X connect 3 0 8 0;
#X connect 4 0 8 0;
#X connect 5 0 8 0;
#X connect 6 0 8 0;
#X connect 7 0 8 0;
#X connect 9 0 0 0;
#X restore 171 161 pd modes;
#N canvas 0 0 1349 665 chordOnDegree 0;
#X obj 364 37 inlet;
#X obj 300 34 inlet;
#X text 364 12 scale;
#X text 68 9 degree;
#X obj 185 303 zl nth;
#X obj 319 99 list, f 8;
#X obj 319 124 list trim;
#X obj 319 303 zl nth;
#X obj 429 303 zl nth;
#X floatatom 352 265 5 0 0 0 - - -, f 5;
#X floatatom 218 147 5 0 0 0 - - -, f 5;
#X floatatom 462 265 5 0 0 0 - - -, f 5;
#X obj 352 163 + 2;
#X obj 462 180 + 2;
#X obj 352 187 realModulo 7, f 13;
#X obj 462 205 realModulo 7, f 13;
#X obj 218 112 - 1;
#X obj 218 171 + 1;
#X floatatom 218 265 5 0 0 0 - - -, f 5;
#X obj 352 212 + 1;
#X obj 462 230 + 1;
#X obj 319 328 + 55;
#X obj 429 328 + 55;
#X obj 185 328 + 55;
#X obj 300 59 t b b f;
#X obj 897 365 expr ($f2 - $f1);
#X obj 897 320 bondo;
#X obj 1060 365 expr ($f2 - $f1);
#X obj 1060 320 bondo;
#X obj 1060 396 moses 0;
#X obj 1060 420 + 12;
#X floatatom 1099 437 5 0 0 0 - - -, f 5;
#X obj 897 395 moses 0;
#X obj 897 419 + 12;
#X floatatom 936 436 5 0 0 0 - - -, f 5;
#X floatatom 1123 396 5 0 0 0 - - -, f 5;
#X floatatom 857 395 5 0 0 0 - - -, f 5;
#X msg 889 554 symbol minor;
#X msg 1034 554 symbol major;
#X obj 936 458 bondo;
#X obj 936 483 pack f f;
#X obj 936 508 route 3 4;
#X obj 864 525 route 3 4;
#X obj 1034 525 route 3 4;
#X symbolatom 970 596 10 0 0 0 - - -, f 10;
#X msg 1128 554 symbol augmented;
#X msg 748 554 symbol dminished;
#X obj 134 19 hradio 15 0 0 7 empty empty empty 0 -8 0 10 -262144 -1
-1 0;
#X obj 134 42 + 1;
#X text 7 335 midi root note;
#X floatatom 30 312 5 0 0 0 - - -, f 5;
#X obj 970 620 outlet;
#X text 1021 620 chord type;
#X obj 30 259 loadbang;
#X obj 185 353 + 0;
#X obj 319 353 + 0;
#X obj 429 353 + 0;
#X obj 519 336 r \$0-rootNote;
#X msg 30 287 57;
#X obj 230 401 - 12;
#X floatatom 185 418 5 0 0 0 - - -, f 5;
#X obj 364 401 - 12;
#X floatatom 319 418 5 0 0 0 - - -, f 5;
#X obj 474 401 - 12;
#X floatatom 429 418 5 0 0 0 - - -, f 5;
#X obj 185 380 moses 72;
#X obj 319 380 moses 72;
#X obj 429 378 moses 72;
#X obj 49 363 loadbang;
#X msg 108 363 82;
#X obj 643 516 outlet;
#X obj 643 76 bng 15 250 50 0 empty empty empty 17 7 0 10 -262144 -1
-1;
#X obj 643 99 t b b, f 6;
#X obj 643 454 list, f 5;
#X obj 671 434 pack f f f;
#X connect 0 0 5 1;
#X connect 1 0 24 0;
#X connect 4 0 23 0;
#X connect 4 0 26 0;
#X connect 5 0 6 0;
#X connect 6 0 4 0;
#X connect 6 0 7 0;
#X connect 6 0 8 0;
#X connect 7 0 21 0;
#X connect 7 0 26 1;
#X connect 7 0 28 0;
#X connect 8 0 22 0;
#X connect 8 0 28 1;
#X connect 9 0 7 1;
#X connect 10 0 12 0;
#X connect 10 0 17 0;
#X connect 11 0 8 1;
#X connect 12 0 13 0;
#X connect 12 0 14 0;
#X connect 13 0 15 0;
#X connect 14 0 19 0;
#X connect 15 0 20 0;
#X connect 16 0 10 0;
#X connect 17 0 18 0;
#X connect 18 0 4 1;
#X connect 19 0 9 0;
#X connect 20 0 11 0;
#X connect 21 0 55 0;
#X connect 22 0 56 0;
#X connect 23 0 54 0;
#X connect 24 0 71 0;
#X connect 24 1 5 0;
#X connect 24 2 16 0;
#X connect 25 0 32 0;
#X connect 25 0 36 0;
#X connect 26 0 25 0;
#X connect 26 1 25 1;
#X connect 27 0 29 0;
#X connect 27 0 35 0;
#X connect 28 0 27 0;
#X connect 28 1 27 1;
#X connect 29 0 30 0;
#X connect 29 1 31 0;
#X connect 30 0 31 0;
#X connect 31 0 39 1;
#X connect 32 0 33 0;
#X connect 32 1 34 0;
#X connect 33 0 34 0;
#X connect 34 0 39 0;
#X connect 37 0 44 0;
#X connect 38 0 44 0;
#X connect 39 0 40 0;
#X connect 39 1 40 1;
#X connect 40 0 41 0;
#X connect 41 0 42 0;
#X connect 41 1 43 0;
#X connect 42 0 46 0;
#X connect 42 1 37 0;
#X connect 43 0 38 0;
#X connect 43 1 45 0;
#X connect 44 0 51 0;
#X connect 45 0 44 0;
#X connect 46 0 44 0;
#X connect 47 0 48 0;
#X connect 48 0 24 0;
#X connect 50 0 23 1;
#X connect 50 0 22 1;
#X connect 50 0 21 1;
#X connect 53 0 58 0;
#X connect 54 0 65 0;
#X connect 55 0 66 0;
#X connect 56 0 67 0;
#X connect 57 0 54 1;
#X connect 57 0 56 1;
#X connect 57 0 55 1;
#X connect 58 0 50 0;
#X connect 59 0 60 0;
#X connect 60 0 74 0;
#X connect 61 0 62 0;
#X connect 62 0 74 1;
#X connect 63 0 64 0;
#X connect 64 0 74 2;
#X connect 65 0 60 0;
#X connect 65 1 59 0;
#X connect 66 0 62 0;
#X connect 66 1 61 0;
#X connect 67 0 64 0;
#X connect 67 1 63 0;
#X connect 68 0 69 0;
#X connect 69 0 65 1;
#X connect 69 0 67 1;
#X connect 69 0 66 1;
#X connect 71 0 72 0;
#X connect 72 0 73 0;
#X connect 72 1 74 0;
#X connect 73 0 70 0;
#X connect 74 0 73 1;
#X restore 124 239 pd chordOnDegree;
#X symbolatom 217 274 10 0 0 0 - - -, f 10;
#X msg 251 485 names A A# B C C# D D# E F F# G G#;
#X dropdown 474 502 4 1 0 0 - - -, f 4;
#X obj 333 300 t b f;
#X floatatom 474 405 5 0 0 0 - - -, f 5;
#X obj 474 337 list;
#X obj 474 377 zl nth;
#X obj 474 468 realModulo 12;
#X obj 474 441 + 0;
#X msg 597 333 names A A# B C C# D D# E F F# G G#;
#X dropdown 597 94 3 0 0 0 - - -, f 3;
#X floatatom 597 365 5 0 0 0 - - -, f 5;
#X text 637 366 starting note;
#X obj 251 459 loadbang;
#X obj 597 308 loadbang;
#X text 413 529 root note of current chord;
#X obj 597 122 hradio 15 0 0 7 empty empty empty 0 -8 0 10 -262144
-1 -1 0;
#X obj 333 222 + 1;
#X symbolatom 638 152 16 0 0 0 - - -, f 16;
#X symbolatom 597 152 5 0 0 0 - - -, f 5;
#X text 715 122 scale degree;
#X obj 596 391 s \$0-rootNote;
#X obj 597 182 tgl 18 0 empty empty enable\ sound 22 7 0 10 -262144
-1 -1 1 1;
#X obj 913 247 list;
#X obj 913 280 zl nth;
#X obj 1277 190 list length;
#X obj 1263 239 loop;
#X floatatom 1277 215 5 0 0 0 - - -, f 5;
#X floatatom 1263 264 5 0 0 0 - - -, f 5;
#X obj 913 222 t b b;
#X floatatom 913 305 5 0 0 0 - - -, f 5;
#X obj 1033 5 inlet;
#X obj 913 51 inlet;
#X obj 1423 -7 inlet;
#X floatatom 1423 58 5 0 0 0 - - -, f 5;
#X text 1468 63 change chords every metro beats;
#X text 913 27 metronome bangs;
#X obj 913 99 loop 2;
#X obj 892 53 bng 15 250 50 0 empty empty empty 17 7 0 10 -262144 -1
-1;
#X obj 913 149 bng 15 250 50 0 empty empty empty 17 7 0 10 -262144
-1 -1;
#X obj 913 124 moses 2;
#X obj 1482 11 loadbang;
#X obj 221 -92 loadbang;
#X obj 913 329 - 1;
#X msg 1032 230 1;
#X obj 803 2 random 12;
#X obj 786 -80 bng 15 250 50 0 empty empty empty 17 7 0 10 -262144
-1 -1;
#X obj 860 -40 random 7;
#X msg 988 57 1;
#X msg 1276 131 0;
#X obj 597 -57 loadbang;
#X obj 597 -32 del 250;
#X msg 597 -2 10;
#X msg 639 -2 0;
#X obj 1123 -91 loadbang;
#X obj 530 142 loadbang;
#X msg 530 167 1;
#X msg 1482 41 4;
#X obj 394 260 outlet;
#X text 379 277 Scale Degree;
#X floatatom 394 239 5 0 0 0 - - -, f 5;
#X obj 786 -57 t b b b b;
#X msg 837 93 0;
#X symbolatom 108 274 17 0 0 0 - - -, f 17;
#X obj 166 314 mux;
#X symbolatom 166 339 10 0 0 0 - - -, f 10;
#X obj 226 299 tgl 15 0 empty \$0-triad-7th empty 17 7 0 10 -262144
-1 -1 1 1;
#X obj 716 182 tgl 18 0 \$0-triad-7th empty 7th\ Chords 24 7 0 10 -262144
-1 -1 1 1;
#N canvas 0 0 1349 665 chordOnDegree7th 0;
#X obj 483 44 inlet;
#X obj 319 84 inlet;
#X text 483 19 scale;
#X text 68 39 degree;
#X obj 185 383 zl nth;
#X obj 319 149 list;
#X obj 319 174 list trim;
#X obj 319 383 zl nth;
#X obj 429 383 zl nth;
#X floatatom 352 345 5 0 0 0 - - -, f 5;
#X floatatom 218 197 5 0 0 0 - - -, f 5;
#X floatatom 462 345 5 0 0 0 - - -, f 5;
#X obj 352 213 + 2;
#X obj 462 230 + 2;
#X obj 352 237 realModulo 7, f 13;
#X obj 462 255 realModulo 7, f 13;
#X obj 218 162 - 1;
#X obj 218 311 + 1;
#X floatatom 218 345 5 0 0 0 - - -, f 5;
#X obj 352 311 + 1;
#X obj 462 311 + 1;
#X obj 319 408 + 55;
#X obj 429 408 + 55;
#X obj 185 408 + 55;
#X obj 134 43 hradio 15 0 0 7 empty empty empty 0 -8 0 10 -262144 -1
-1 0;
#X obj 134 66 + 1;
#X text 7 415 midi root note;
#X floatatom 30 392 5 0 0 0 - - -, f 5;
#X obj 30 339 loadbang;
#X obj 185 433 + 0;
#X obj 319 433 + 0;
#X obj 429 433 + 0;
#X obj 641 416 r \$0-rootNote;
#X msg 30 367 57;
#X obj 230 482 - 12;
#X floatatom 185 499 5 0 0 0 - - -, f 5;
#X obj 364 482 - 12;
#X floatatom 319 499 5 0 0 0 - - -, f 5;
#X obj 474 480 - 12;
#X floatatom 429 499 5 0 0 0 - - -, f 5;
#X obj 185 458 moses 72;
#X obj 319 458 moses 72;
#X obj 429 458 moses 72;
#X obj 539 383 zl nth;
#X floatatom 572 345 5 0 0 0 - - -, f 5;
#X obj 572 247 + 2;
#X obj 572 272 realModulo 7, f 13;
#X obj 572 311 + 1;
#X obj 539 409 + 55;
#X obj 539 433 + 0;
#X obj 584 481 - 12;
#X floatatom 539 499 5 0 0 0 - - -, f 5;
#X obj 539 458 moses 72;
#N canvas 0 0 1349 665 chordName 0;
#X obj 242 75 inlet;
#X obj 339 75 inlet;
#X obj 384 75 inlet;
#X obj 478 75 inlet;
#X obj 194 192 expr ($f2 - $f1);
#X obj 242 160 bondo, f 8;
#X obj 315 192 expr ($f2 - $f1);
#X obj 339 160 bondo, f 8;
#X obj 315 222 moses 0;
#X obj 315 246 + 12;
#X floatatom 354 263 5 0 0 0 - - -, f 5;
#X obj 194 222 moses 0;
#X obj 194 246 + 12;
#X floatatom 233 263 5 0 0 0 - - -, f 5;
#X floatatom 378 222 5 0 0 0 - - -, f 5;
#X floatatom 154 222 5 0 0 0 - - -, f 5;
#X obj 354 415 route 3 4;
#X obj 282 432 route 3 4;
#X obj 452 432 route 3 4;
#X obj 357 610 outlet;
#X text 375 631 chord type;
#X obj 427 192 expr ($f2 - $f1);
#X obj 427 160 bondo, f 9;
#X obj 427 222 moses 0;
#X obj 427 246 + 12;
#X floatatom 466 263 5 0 0 0 - - -, f 5;
#X floatatom 490 222 5 0 0 0 - - -, f 5;
#X obj 466 287 t b f;
#X obj 354 287 t b f;
#X obj 354 390 pack f f f;
#X obj 282 457 route 3 4;
#X obj 452 457 route 3 4;
#X obj 359 457 route 3 4;
#X obj 530 457 route 3 4;
#X msg 182 545 half diminished;
#X msg 59 545 full diminished;
#X msg 452 545 dominant 7;
#X msg 357 545 minor major 7;
#X msg 299 545 minor 7;
#X msg 537 545 major 7;
#X msg 739 545 augmented;
#X msg 608 545 augmented minor7?!?;
#X obj 410 582 l2s;
#X symbolatom 410 610 17 0 0 0 - - -, f 17;
#X connect 0 0 5 0;
#X connect 1 0 5 1;
#X connect 1 0 7 0;
#X connect 2 0 7 1;
#X connect 2 0 22 0;
#X connect 3 0 22 1;
#X connect 4 0 11 0;
#X connect 4 0 15 0;
#X connect 5 0 4 0;
#X connect 5 1 4 1;
#X connect 6 0 8 0;
#X connect 6 0 14 0;
#X connect 7 0 6 0;
#X connect 7 1 6 1;
#X connect 8 0 9 0;
#X connect 8 1 10 0;
#X connect 9 0 10 0;
#X connect 10 0 28 0;
#X connect 11 0 12 0;
#X connect 11 1 13 0;
#X connect 12 0 13 0;
#X connect 13 0 29 0;
#X connect 16 0 17 0;
#X connect 16 1 18 0;
#X connect 17 0 30 0;
#X connect 17 1 32 0;
#X connect 18 0 31 0;
#X connect 18 1 33 0;
#X connect 21 0 23 0;
#X connect 21 0 26 0;
#X connect 22 0 21 0;
#X connect 22 1 21 1;
#X connect 23 0 24 0;
#X connect 23 1 25 0;
#X connect 24 0 25 0;
#X connect 25 0 27 0;
#X connect 27 0 29 0;
#X connect 27 1 29 2;
#X connect 28 0 29 0;
#X connect 28 1 29 1;
#X connect 29 0 16 0;
#X connect 30 0 35 0;
#X connect 30 1 34 0;
#X connect 31 0 36 0;
#X connect 31 1 39 0;
#X connect 32 0 38 0;
#X connect 32 1 37 0;
#X connect 33 0 41 0;
#X connect 33 1 40 0;
#X connect 34 0 42 0;
#X connect 35 0 42 0;
#X connect 36 0 42 0;
#X connect 37 0 42 0;
#X connect 38 0 42 0;
#X connect 39 0 42 0;
#X connect 40 0 42 0;
#X connect 41 0 42 0;
#X connect 42 0 43 0;
#X connect 42 0 19 0;
#X restore 1031 400 pd chordName;
#X symbolatom 1081 425 10 0 0 0 - - -, f 10;
#X obj 1031 425 outlet;
#X floatatom 641 441 5 0 0 0 - - -, f 5;
#X obj 55 441 loadbang;
#X msg 114 441 82;
#X obj 889 608 outlet;
#X obj 319 109 t b b f;
#X obj 889 134 bng 15 250 50 0 empty empty empty 17 7 0 10 -262144
-1 -1;
#X obj 889 157 t b b, f 6;
#X obj 924 515 pack f f f f;
#X obj 889 546 list;
#X connect 0 0 5 1;
#X connect 1 0 60 0;
#X connect 4 0 23 0;
#X connect 4 0 53 0;
#X connect 5 0 6 0;
#X connect 6 0 4 0;
#X connect 6 0 7 0;
#X connect 6 0 8 0;
#X connect 6 0 43 0;
#X connect 7 0 21 0;
#X connect 7 0 53 1;
#X connect 8 0 22 0;
#X connect 8 0 53 2;
#X connect 9 0 7 1;
#X connect 10 0 12 0;
#X connect 10 0 17 0;
#X connect 11 0 8 1;
#X connect 12 0 13 0;
#X connect 12 0 14 0;
#X connect 13 0 15 0;
#X connect 13 0 45 0;
#X connect 14 0 19 0;
#X connect 15 0 20 0;
#X connect 16 0 10 0;
#X connect 17 0 18 0;
#X connect 18 0 4 1;
#X connect 19 0 9 0;
#X connect 20 0 11 0;
#X connect 21 0 30 0;
#X connect 22 0 31 0;
#X connect 23 0 29 0;
#X connect 24 0 25 0;
#X connect 25 0 60 0;
#X connect 27 0 23 1;
#X connect 27 0 22 1;
#X connect 27 0 21 1;
#X connect 27 0 48 1;
#X connect 28 0 33 0;
#X connect 29 0 40 0;
#X connect 30 0 41 0;
#X connect 31 0 42 0;
#X connect 32 0 29 1;
#X connect 32 0 31 1;
#X connect 32 0 30 1;
#X connect 32 0 49 1;
#X connect 32 0 56 0;
#X connect 33 0 27 0;
#X connect 34 0 35 0;
#X connect 35 0 63 0;
#X connect 36 0 37 0;
#X connect 37 0 63 1;
#X connect 38 0 39 0;
#X connect 39 0 63 2;
#X connect 40 0 35 0;
#X connect 40 1 34 0;
#X connect 41 0 37 0;
#X connect 41 1 36 0;
#X connect 42 0 39 0;
#X connect 42 1 38 0;
#X connect 43 0 48 0;
#X connect 43 0 53 3;
#X connect 44 0 43 1;
#X connect 45 0 46 0;
#X connect 46 0 47 0;
#X connect 47 0 44 0;
#X connect 48 0 49 0;
#X connect 49 0 52 0;
#X connect 50 0 51 0;
#X connect 51 0 63 3;
#X connect 52 0 51 0;
#X connect 52 1 50 0;
#X connect 53 0 54 0;
#X connect 53 0 55 0;
#X connect 57 0 58 0;
#X connect 58 0 40 1;
#X connect 58 0 52 1;
#X connect 58 0 42 1;
#X connect 58 0 41 1;
#X connect 60 0 61 0;
#X connect 60 1 5 0;
#X connect 60 2 16 0;
#X connect 61 0 62 0;
#X connect 62 0 64 0;
#X connect 62 1 63 0;
#X connect 63 0 64 1;
#X connect 64 0 59 0;
#X restore -3 239 pd chordOnDegree7th;
#X floatatom 44 374 5 0 0 0 - - -, f 5;
#X obj 44 398 spigot;
#X obj 77 375 tgl 15 0 empty empty empty 17 7 0 10 -262144 -1 -1 1
1;
#X obj 44 319 mux;
#X obj 106 309 tgl 15 0 empty \$0-triad-7th empty 17 7 0 10 -262144
-1 -1 1 1;
#N canvas 0 0 1349 665 chordVoicing 0;
#X obj 560 116 inlet;
#X obj 480 436 outlet;
#X obj 560 141 list-sort asc;
#X obj 453 272 for, f 5;
#X floatatom 579 221 5 0 0 0 - - -, f 5;
#X obj 579 196 zl nth 1;
#X obj 579 245 - 12;
#X obj 579 304 list append;
#X obj 560 166 t l l l;
#X obj 453 183 list length;
#X floatatom 453 228 5 0 0 0 - - -, f 5;
#X obj 453 248 t b f;
#X obj 480 395 zl nth;
#X obj 480 297 + 1;
#X obj 480 371 list;
#X obj 480 322 t b f, f 6;
#X obj 453 208 + 1;
#X connect 0 0 2 0;
#X connect 2 0 8 0;
#X connect 3 1 13 0;
#X connect 4 0 6 0;
#X connect 5 0 4 0;
#X connect 6 0 7 0;
#X connect 7 0 14 1;
#X connect 8 0 9 0;
#X connect 8 1 5 0;
#X connect 8 2 7 1;
#X connect 9 0 16 0;
#X connect 10 0 11 0;
#X connect 11 0 3 0;
#X connect 11 1 3 1;
#X connect 12 0 1 0;
#X connect 13 0 15 0;
#X connect 14 0 12 0;
#X connect 15 0 14 0;
#X connect 15 1 12 1;
#X connect 16 0 10 0;
#X restore 44 350 pd chordVoicing;
#X obj 988 148 hradio 15 0 0 4 empty empty empty 0 -8 0 10 -262144
-1 -1 3;
#X msg 1114 66 2;
#X obj 963 -127 bng 15 250 50 0 empty empty empty 17 7 0 10 -262144
-1 -1;
#X obj 963 -95 random 7;
#X msg 221 -66 names ionian dorian phrygian lydian mixolydian aeolian
locrian;
#X obj 44 713 noteout 1;
#X obj 44 675 makenote 100 1500;
#X obj 143 536 r bpm;
#X obj 143 558 expr (60000/$f1);
#X floatatom 143 593 5 0 0 0 - - -, f 5;
#X obj 143 614 * 4;
#X floatatom 258 577 5 0 0 0 - - -, f 5;
#X floatatom 143 639 14 0 0 0 - - -, f 14;
#X floatatom 1423 563 5 0 0 0 - - -, f 5;
#X obj 258 597 t b f;
#X obj 963 -40 route;
#X msg 1021 -74 100;
#X floatatom 1021 -40 5 0 0 0 - - -, f 5;
#X floatatom 963 -74 5 0 0 0 - - -, f 5;
#X obj 1033 40 route random randomOnScale randomRootNote;
#X obj 913 189 demux . . . .;
#X msg 1195 67 3;
#X obj 989 315 t b b;
#X obj 1016 340 random 12;
#X msg 989 340 0;
#X msg 1123 5 1 1 4 5;
#X obj 293 658 r midiVolume;
#X floatatom 93 639 5 0 0 0 - - -, f 5;
#X obj 1462 600 bng 15 250 50 0 empty empty empty 17 7 0 10 -262144
-1 -1;
#X obj 1462 641 for 127;
#X msg 1501 660 \$1 10 10;
#X obj 1423 81 t f b b;
#X msg 1442 621 100;
#X obj 1462 200 route 0;
#X obj 1536 217 bng 15 250 50 0 empty empty empty 17 7 0 10 -262144
-1 -1;
#X obj 1368 57 bng 15 250 50 0 empty empty empty 17 7 0 10 -262144
-1 -1;
#X obj 1590 -23 r instrumentChange;
#X obj 1590 2 bng 15 250 50 0 empty empty empty 17 7 0 10 -262144 -1
-1;
#X connect 0 0 1 0;
#X connect 1 0 2 0;
#X connect 2 1 3 0;
#X connect 3 0 4 1;
#X connect 3 0 10 1;
#X connect 3 0 73 1;
#X connect 4 0 77 0;
#X connect 4 1 5 0;
#X connect 5 0 69 0;
#X connect 6 0 7 0;
#X connect 7 0 24 0;
#X connect 8 0 10 0;
#X connect 8 1 11 1;
#X connect 9 0 13 0;
#X connect 10 0 11 0;
#X connect 11 0 9 0;
#X connect 12 0 7 0;
#X connect 13 0 12 0;
#X connect 14 0 15 0;
#X connect 15 0 16 0;
#X connect 16 0 13 1;
#X connect 16 0 26 0;
#X connect 18 0 6 0;
#X connect 19 0 14 0;
#X connect 21 0 22 0;
#X connect 22 0 4 0;
#X connect 22 0 8 0;
#X connect 22 0 65 0;
#X connect 22 0 73 0;
#X connect 27 0 76 0;
#X connect 27 0 113 0;
#X connect 28 0 29 0;
#X connect 29 0 35 0;
#X connect 30 0 32 0;
#X connect 31 0 33 0;
#X connect 32 0 31 1;
#X connect 33 0 29 1;
#X connect 34 0 28 0;
#X connect 34 1 31 0;
#X connect 35 0 48 0;
#X connect 36 0 99 0;
#X connect 37 0 42 0;
#X connect 38 0 39 0;
#X connect 39 0 111 0;
#X connect 42 0 45 0;
#X connect 43 0 42 0;
#X connect 44 0 100 0;
#X connect 45 0 44 0;
#X connect 46 0 62 0;
#X connect 47 0 84 0;
#X connect 48 0 21 0;
#X connect 49 0 28 1;
#X connect 50 0 15 0;
#X connect 51 0 66 0;
#X connect 52 0 0 0;
#X connect 53 0 80 0;
#X connect 54 0 80 0;
#X connect 55 0 56 0;
#X connect 56 0 57 0;
#X connect 56 0 58 0;
#X connect 57 0 15 0;
#X connect 58 0 0 0;
#X connect 59 0 105 0;
#X connect 59 0 96 0;
#X connect 60 0 61 0;
#X connect 61 0 27 0;
#X connect 62 0 39 0;
#X connect 65 0 63 0;
#X connect 66 0 21 0;
#X connect 66 1 50 0;
#X connect 66 2 52 0;
#X connect 66 3 67 0;
#X connect 67 0 21 0;
#X connect 68 0 69 1;
#X connect 69 0 70 0;
#X connect 70 0 23 0;
#X connect 71 0 69 2;
#X connect 73 0 77 1;
#X connect 73 1 68 0;
#X connect 74 0 75 0;
#X connect 75 0 86 0;
#X connect 76 0 75 1;
#X connect 77 0 79 0;
#X connect 78 0 77 2;
#X connect 79 0 74 0;
#X connect 80 0 100 1;
#X connect 81 0 80 0;
#X connect 82 0 83 0;
#X connect 83 0 98 0;
#X connect 84 0 0 0;
#X connect 86 0 85 0;
#X connect 86 1 85 1;
#X connect 87 0 88 0;
#X connect 88 0 89 0;
#X connect 89 0 90 0;
#X connect 90 0 92 0;
#X connect 91 0 94 0;
#X connect 92 0 86 2;
#X connect 93 0 91 0;
#X connect 94 0 89 0;
#X connect 94 1 90 1;
#X connect 95 0 82 0;
#X connect 95 1 97 0;
#X connect 96 0 95 1;
#X connect 97 0 95 1;
#X connect 97 0 21 0;
#X connect 98 0 95 0;
#X connect 99 0 49 0;
#X connect 99 0 53 0;
#X connect 99 0 115 0;
#X connect 99 1 81 0;
#X connect 99 1 115 0;
#X connect 99 2 101 0;
#X connect 99 2 115 0;
#X connect 99 3 54 0;
#X connect 99 3 30 0;
#X connect 99 3 28 1;
#X connect 99 3 115 0;
#X connect 100 0 34 0;
#X connect 100 1 51 0;
#X connect 100 2 82 0;
#X connect 100 3 102 0;
#X connect 101 0 80 0;
#X connect 102 0 104 0;
#X connect 102 1 103 0;
#X connect 103 0 15 0;
#X connect 104 0 21 0;
#X connect 105 0 99 0;
#X connect 106 0 86 1;
#X connect 107 0 86 1;
#X connect 108 0 109 0;
#X connect 109 1 110 0;
#X connect 110 0 86 0;
#X connect 111 0 42 1;
#X connect 111 0 93 0;
#X connect 111 1 42 2;
#X connect 111 1 112 0;
#X connect 111 1 31 2;
#X connect 111 2 108 0;
#X connect 112 0 107 0;
#X connect 113 0 108 0;
#X connect 113 1 114 0;
#X connect 114 0 39 0;
#X connect 115 0 39 0;
#X connect 116 0 117 0;
#X connect 117 0 39 0;
#X coords 0 -1 1 1 218 118 2 591 86;
