#N canvas 0 0 1888 970 10;
#N canvas 0 0 1888 970 recording 0;
#X obj 350 296 tgl 35 0 empty empty record 38 2 0 14 -199729 -1 -1
0 1;
#X obj 22 53 table \$0-recording;
#X obj 350 339 bng 25 250 50 0 empty empty save\ file 27 12 0 10 -199729
-1 -1;
#X obj 636 337 bng 25 250 50 0 \$0-playerStop empty stop -27 7 0 10
-258049 -1 -1;
#X obj 626 297 tgl 35 0 \$0-playPause \$0-playPause_receiver play/pause
-88 1 0 14 -4033 -1 -1 1 1;
#N canvas 0 4 1904 986 saveRecordingFile 0;
#X obj 507 69 inlet;
#X obj 508 504 soundfiler;
#X obj 612 150 date, f 16;
#X floatatom 612 175 5 0 0 0 - - -, f 5;
#X floatatom 648 175 5 0 0 0 - - -, f 5;
#X floatatom 682 175 5 0 0 0 - - -, f 5;
#X obj 716 150 time, f 16;
#X floatatom 716 175 5 0 0 0 - - -, f 5;
#X floatatom 750 175 5 0 0 0 - - -, f 5;
#X floatatom 784 175 5 0 0 0 - - -, f 5;
#X obj 612 123 t b b;
#X obj 507 97 bng 26 250 50 0 empty empty empty 17 7 0 10 -262144 -1
-1;
#X obj 612 207 pack f f f f f f;
#X obj 612 232 list prepend recording;
#X obj 612 275 list trim;
#X obj 612 300 l2s _;
#X obj 612 253 list append .wav;
#X obj 507 426 symbol, f 18;
#X obj 612 350 list trim;
#X obj 612 375 l2s /;
#X symbolatom 612 400 63 0 0 0 - - -, f 63;
#X obj 612 325 list prepend C:/Users/Michi/Desktop;
#X msg 508 449 write -wave \$1 \$0-recording, f 122;
#X connect 0 0 11 0;
#X connect 2 0 3 0;
#X connect 2 1 4 0;
#X connect 2 2 5 0;
#X connect 3 0 12 0;
#X connect 4 0 12 1;
#X connect 5 0 12 2;
#X connect 6 0 7 0;
#X connect 6 1 8 0;
#X connect 6 2 9 0;
#X connect 7 0 12 3;
#X connect 8 0 12 4;
#X connect 9 0 12 5;
#X connect 10 0 2 0;
#X connect 10 1 6 0;
#X connect 11 0 10 0;
#X connect 11 0 17 0;
#X connect 12 0 13 0;
#X connect 13 0 16 0;
#X connect 14 0 15 0;
#X connect 15 0 21 0;
#X connect 16 0 14 0;
#X connect 17 0 22 0;
#X connect 18 0 19 0;
#X connect 19 0 20 0;
#X connect 20 0 17 1;
#X connect 21 0 18 0;
#X connect 22 0 1 0;
#X restore 351 486 pd saveRecordingFile;
#X obj 672 297 vsl 23 50 0 2 0 0 \$0-volume_player empty volume -3
60 0 8 -262144 -1 -1 1990 1;
#X obj 672 486 s \$0-volume;
#X obj 672 242 loadbang;
#X msg 672 267 0.2;
#X obj 350 372 clock;
#X obj 159 395 tgl 15 0 empty empty empty 17 7 0 10 -262144 -1 -1 0
1;
#X obj 241 395 bng 15 250 50 0 empty empty empty 17 7 0 10 -262144
-1 -1;
#X obj 159 331 route 0 1, f 19;
#X obj 214 352 t f b;
#X msg 178 369 1;
#X text 434 374 time recorded;
#N canvas 0 0 1888 993 \$0-audioPlayer 1;
#N canvas 0 0 1888 970 audioPlayer 1;
#X floatatom 1134 943 16 0 0 0 - - -, f 16;
#X obj 1046 1132 phasor~;
#X obj 1134 997 expr (44100 / $f1);
#X floatatom 1134 1022 16 0 0 0 - - -, f 16;
#X floatatom 848 894 10 0 0 0 - - -, f 10;
#X obj 1046 1192 *~;
#X obj 1215 1175 sig~;
#X obj 1134 967 t f f, f 14;
#X obj 1046 1243 *~ 0.2;
#X obj 528 90 hsl 900 460 0 1 0 0 empty \$0-positionInSong empty -2
-8 0 10 -262144 -258049 -1 67829 1;
#X obj 628 910 s \$0-positionInSong;
#X obj 997 956 tgl 25 0 empty \$0-playPause play/pause 43 17 0 10 -4033
-1 -1 1 1;
#X obj 997 1037 float;
#X obj 997 1007 t b f, f 12;
#X obj 1046 1054 *, f 4;
#X floatatom 1046 1078 15 0 0 0 - - -, f 15;
#X obj 970 835 bng 25 250 50 0 empty \$0-playerStop empty 58 21 0 10
-258049 -1 -1;
#X msg 970 865 0;
#X obj 970 890 t f f;
#X obj 1046 1102 sig~ 0;
#X obj 529 561 hsl 900 30 0 1 0 0 \$0-loopLowerBound empty empty 916
12 0 10 -262144 -1 -133153 0 1;
#N canvas 0 0 1904 986 samplesToSeconds 0;
#X obj 681 270 inlet;
#X obj 681 411 outlet;
#X obj 681 336 *, f 22;
#X obj 810 269 r \$0-numberOfSamplesInAudioFile;
#X floatatom 810 294 22 0 0 0 - - -, f 22;
#X obj 681 361 / 44100;
#X floatatom 681 386 5 0 0 0 - - -, f 5;
#X connect 0 0 2 0;
#X connect 2 0 5 0;
#X connect 3 0 4 0;
#X connect 4 0 2 1;
#X connect 5 0 6 0;
#X connect 6 0 1 0;
#X restore 155 529 pd samplesToSeconds;
#N canvas 0 0 1904 986 samplesToSeconds 0;
#X obj 681 270 inlet;
#X obj 681 411 outlet;
#X obj 681 336 *, f 22;
#X obj 810 269 r \$0-numberOfSamplesInAudioFile;
#X floatatom 810 294 5 0 0 0 - - -, f 5;
#X obj 681 361 / 44100;
#X floatatom 681 386 5 0 0 0 - - -, f 5;
#X connect 0 0 2 0;
#X connect 2 0 5 0;
#X connect 3 0 4 0;
#X connect 4 0 2 1;
#X connect 5 0 6 0;
#X connect 6 0 1 0;
#X restore 85 399 pd samplesToSeconds;
#N canvas 449 182 450 326 timeConversion 0;
#X obj 178 131 inlet;
#X obj 178 156 realModulo 60;
#X floatatom 178 231 5 0 0 0 - - -, f 5;
#X floatatom 253 185 5 0 0 0 - - -, f 5;
#X obj 253 209 realModulo 60;
#X floatatom 253 231 5 0 0 0 - - -, f 5;
#X floatatom 328 231 5 0 0 0 - - -, f 5;
#X obj 253 261 outlet;
#X obj 328 261 outlet;
#X obj 178 261 outlet;
#X text 231 131 in seconds;
#X text 178 290 hours;
#X text 253 290 minutes;
#X text 328 290 seconds;
#X connect 0 0 1 0;
#X connect 1 0 2 0;
#X connect 1 1 3 0;
#X connect 2 0 8 0;
#X connect 3 0 4 0;
#X connect 4 0 5 0;
#X connect 4 1 6 0;
#X connect 5 0 7 0;
#X connect 6 0 9 0;
#X restore 85 421 pd timeConversion;
#X floatatom 610 1010 5 0 0 0 - - -, f 5;
#X obj 529 591 hsl 900 30 0 1 0 0 \$0-loopUpperBound empty empty 918
11 0 10 -262144 -1 -133153 89900 1;
#X floatatom 583 875 5 0 0 0 - - -, f 5;
#N canvas 0 0 1904 986 samplesToSeconds 0;
#X obj 681 270 inlet;
#X obj 681 411 outlet;
#X obj 681 336 *, f 22;
#X obj 810 269 r \$0-numberOfSamplesInAudioFile;
#X floatatom 810 294 17 0 0 0 - - -, f 17;
#X obj 681 361 / 44100;
#X floatatom 681 386 5 0 0 0 - - -, f 5;
#X connect 0 0 2 0;
#X connect 2 0 5 0;
#X connect 3 0 4 0;
#X connect 4 0 2 1;
#X connect 5 0 6 0;
#X connect 6 0 1 0;
#X restore 57 632 pd samplesToSeconds;
#N canvas 449 182 450 326 timeConversion 0;
#X obj 178 131 inlet;
#X obj 178 156 realModulo 60;
#X floatatom 178 231 5 0 0 0 - - -, f 5;
#X floatatom 253 185 5 0 0 0 - - -, f 5;
#X obj 253 209 realModulo 60;
#X floatatom 253 231 5 0 0 0 - - -, f 5;
#X floatatom 328 231 5 0 0 0 - - -, f 5;
#X obj 253 261 outlet;
#X obj 328 261 outlet;
#X obj 178 261 outlet;
#X text 231 131 in seconds;
#X text 178 290 hours;
#X text 253 290 minutes;
#X text 328 290 seconds;
#X connect 0 0 1 0;
#X connect 1 0 2 0;
#X connect 1 1 3 0;
#X connect 2 0 8 0;
#X connect 3 0 4 0;
#X connect 4 0 5 0;
#X connect 4 1 6 0;
#X connect 5 0 7 0;
#X connect 6 0 9 0;
#X restore 57 654 pd timeConversion;
#X obj 544 910 moses 1;
#X obj 583 1038 float;
#X obj 848 1149 unsig~ 50;
#X obj 583 999 bng 15 250 50 0 empty empty empty 17 7 0 10 -262144
-1 -1;
#X floatatom 583 1063 10 0 0 0 - - -, f 10;
#X obj 82 522 loadbang;
#X msg 82 574 1;
#X obj 528 39 hsl 900 30 0 1 0 0 \$0-playbackStart empty empty -127
12 0 10 -262144 -1 -133153 16900 1;
#X obj 420 411 tgl 49 0 \$0-audioPlayerLoop \$0-audioPlayerLoopGUI
loop\ on/off -36 59 0 19 -133153 -1 -1 1 1;
#X obj 583 957 spigot;
#X obj 583 1126 s \$0-playbackStart;
#X obj 1099 1115 r \$0-playbackStart;
#X obj 970 913 s \$0-playbackStart;
#X obj 643 932 tgl 25 0 empty \$0-audioPlayerLoop empty 17 7 0 10 -133153
-1 -1 1 1;
#X obj 403 1104 bondo;
#X obj 403 1137 expr ($f1 > $f2);
#X obj 403 1192 route 1;
#X msg 403 1217 0;
#X obj 65 817 bng 22 250 50 0 empty \$0-jumpToLoop jump\ to\ loop 29
7 0 10 -199729 -1 -1;
#X obj 65 854 t b b;
#X obj 583 1087 t f b;
#X msg 92 877 1;
#X obj 133 1176 expr ($f1 > $f2);
#X obj 133 1127 r \$0-playbackStart;
#X obj 133 1201 route 1;
#X obj 65 951 float;
#X obj 65 978 s \$0-playbackStart;
#X obj 403 1243 s \$0-audioPlayerLoopGUI;
#X obj 92 901 s \$0-audioPlayerLoopGUI;
#X obj 226 1151 r \$0-loopUpperBound;
#X obj 430 1077 r \$0-loopUpperBound;
#X obj 583 837 r \$0-loopUpperBound;
#X obj 57 610 r \$0-loopUpperBound;
#X obj 403 1054 r \$0-loopLowerBound;
#X obj 155 507 r \$0-loopLowerBound;
#X obj 610 986 r \$0-loopLowerBound;
#X msg 133 1226 0;
#X obj 371 136 tgl 60 0 \$0-playPause \$0-playPause_receiver play/pause
1 72 0 15 -4033 -1 -1 1 1;
#X obj 372 247 bng 50 250 50 0 \$0-playerStop empty stop -2 58 0 15
-258049 -1 -1;
#X obj 92 926 r \$0-loopLowerBound;
#X obj 370 561 nbx 2 17 -1e+037 1e+037 0 0 empty empty min 37 7 0 13
-4096 -1 -1 0 256 0;
#X obj 371 591 nbx 2 17 -1e+037 1e+037 0 0 empty empty min 37 7 0 13
-199729 -262144 -1 0 256 0;
#X obj 441 595 nbx 5 14 -1e+037 1e+037 0 0 empty empty sec 59 6 0 11
-199729 -262144 -1 2.85875 256 0;
#X obj 370 561 nbx 2 17 -1e+037 1e+037 0 0 empty empty min 37 7 0 13
-262144 -1 -1 0 256 0;
#X obj 439 565 nbx 5 14 -1e+037 1e+037 0 0 empty empty sec 59 6 0 11
-262144 -1 -1 0 256 0;
#X obj 371 35 nbx 2 41 -1e+037 1e+037 0 0 empty empty min 80 15 0 32
-4096 -1 -1 0 256 0;
#X obj 371 81 nbx 4 20 -1e+037 1e+037 0 0 empty empty sec 74 9 0 16
-4096 -1 -1 2.15691 256 0;
#X obj 384 502 bng 22 250 50 0 \$0-jumpToLoop empty jump\ to\ loop
29 7 0 12 -199729 -1 -1;
#N canvas 449 182 450 326 timeConversion 0;
#X obj 178 131 inlet;
#X obj 178 156 realModulo 60;
#X floatatom 178 231 5 0 0 0 - - -, f 5;
#X floatatom 253 185 5 0 0 0 - - -, f 5;
#X obj 253 209 realModulo 60;
#X floatatom 253 231 5 0 0 0 - - -, f 5;
#X floatatom 328 231 5 0 0 0 - - -, f 5;
#X obj 253 261 outlet;
#X obj 328 261 outlet;
#X obj 178 261 outlet;
#X text 231 131 in seconds;
#X text 178 290 hours;
#X text 253 290 minutes;
#X text 328 290 seconds;
#X connect 0 0 1 0;
#X connect 1 0 2 0;
#X connect 1 1 3 0;
#X connect 2 0 8 0;
#X connect 3 0 4 0;
#X connect 4 0 5 0;
#X connect 4 1 6 0;
#X connect 5 0 7 0;
#X connect 6 0 9 0;
#X restore 155 551 pd timeConversion;
#X obj 477 134 vsl 32 226 0 1.5 0 0 empty \$0-volume_player volume
-2 -9 0 10 -262144 -1 -133153 12884 1;
#X obj 103 88 loadbang;
#X msg 103 113 0.2;
#X obj 371 339 dsp;
#N canvas 0 0 450 300 (subpatch) 0;
#X array \$0-audiorepresentation 20830 float 4 black black;
#X coords 0 1 20829 -1 900 460 1;
#X restore 528 90 graph;
#X obj 1046 1265 throw~ \$0-audioOut;
#N canvas 0 0 128 0 filterAudio 0;
#X obj 1134 217 catch~ \$0-audioOut;
#X obj 852 815 dac~;
#X obj 1413 492 lop~ 6000;
#X obj 1203 408 hip~ 100;
#X obj 1134 408 demux~ . .;
#X text 1255 286 low cut;
#X text 1444 287 high cut;
#X obj 1248 326 hsl 128 15 20 20000 1 0 empty empty empty -2 -8 0 10
-262144 -1 -1 2959 1;
#X obj 990 393 tgl 15 0 empty empty empty 17 7 0 10 -262144 -1 -1 0
1;
#X floatatom 1214 326 5 0 0 0 Hz - -, f 5;
#X obj 1356 468 demux~ . .;
#X obj 1464 326 hsl 128 15 20 20000 1 0 empty empty empty -2 -8 0 10
-262144 -1 -1 10486 1;
#X floatatom 1423 326 6 0 0 0 Hz - -, f 6;
#X obj 1464 380 i;
#X obj 1248 380 i;
#X obj 1314 273 vradio 15 0 0 3 empty empty empty 0 -8 0 10 -262144
-1 -1 0;
#X text 1330 273 off;
#X obj 1203 451 hip~ 100;
#X obj 1134 451 demux~ . .;
#X obj 1083 436 tgl 15 0 empty empty empty 17 7 0 10 -262144 -1 -1
0 1;
#X obj 1413 546 lop~ 6000;
#X obj 1356 521 demux~ . .;
#X obj 1505 453 tgl 15 0 empty empty empty 17 7 0 10 -262144 -1 -1
0 1;
#X obj 1597 507 tgl 15 0 empty empty empty 17 7 0 10 -262144 -1 -1
0 1;
#N canvas 211 197 450 300 chooseFilters 0;
#X obj 170 94 route 0 1 2, f 22;
#X msg 170 127 0;
#X obj 170 152 t f f;
#X obj 213 127 t b b;
#X msg 213 152 0;
#X msg 240 152 1;
#X msg 272 127 1;
#X obj 272 152 t f f;
#X obj 192 62 inlet;
#X obj 170 216 outlet;
#X obj 219 217 outlet;
#X connect 0 0 1 0;
#X connect 0 1 3 0;
#X connect 0 2 6 0;
#X connect 1 0 2 0;
#X connect 2 0 9 0;
#X connect 2 1 10 0;
#X connect 3 0 4 0;
#X connect 3 1 5 0;
#X connect 4 0 10 0;
#X connect 5 0 9 0;
#X connect 6 0 7 0;
#X connect 7 0 9 0;
#X connect 7 1 10 0;
#X connect 8 0 0 0;
#X restore 990 318 pd chooseFilters;
#N canvas 211 197 450 300 chooseFilters 0;
#X obj 170 94 route 0 1 2, f 22;
#X msg 170 127 0;
#X obj 170 152 t f f;
#X obj 213 127 t b b;
#X msg 213 152 0;
#X msg 240 152 1;
#X msg 272 127 1;
#X obj 272 152 t f f;
#X obj 192 62 inlet;
#X obj 170 216 outlet;
#X obj 219 217 outlet;
#X connect 0 0 1 0;
#X connect 0 1 3 0;
#X connect 0 2 6 0;
#X connect 1 0 2 0;
#X connect 2 0 9 0;
#X connect 2 1 10 0;
#X connect 3 0 4 0;
#X connect 3 1 5 0;
#X connect 4 0 10 0;
#X connect 5 0 9 0;
#X connect 6 0 7 0;
#X connect 7 0 9 0;
#X connect 7 1 10 0;
#X connect 8 0 0 0;
#X restore 1504 413 pd chooseFilters;
#X obj 1504 273 vradio 15 0 0 3 empty empty empty 0 -8 0 10 -262144
-1 -1 0;
#X text 1520 273 off;
#X obj 574 270 loadbang;
#X text 1330 288 -20dB;
#X text 1330 302 -40dB;
#X text 1520 289 -20dB;
#X text 1520 303 -40dB;
#X msg 553 329 6000;
#X msg 616 318 100;
#X obj 1368 596 +~;
#X obj 861 704 biquad~;
#X obj 889 644 equalizer;
#X floatatom 559 515 0 0 0 0 - - -;
#X floatatom 620 515 0 0 0 0 - - -;
#X obj 620 538 trigger bang float;
#X obj 562 470 hsl 128 17 20 20000 1 1 empty empty frequency 5 9 0
10 -203904 -1 -1 5700 1;
#X obj 623 493 hsl 128 17 0 20 0 1 empty empty gain 5 9 0 10 -204786
-1 -1 3900 1;
#X floatatom 760 515 0 0 0 0 - - -;
#X obj 760 538 trigger bang float;
#X obj 763 493 hsl 128 17 0 500 0 1 empty empty bandwidth 5 9 0 10
-261682 -1 -1 10200 1;
#X obj 1406 650 demux~;
#X obj 1469 585 tgl 15 0 empty empty empty 17 7 0 10 -262144 -1 -1
0 1;
#X obj 852 733 biquad~;
#X floatatom 342 724 0 0 0 0 - - -;
#X floatatom 291 637 0 0 0 0 - - -;
#X obj 291 660 trigger bang float;
#X obj 108 580 hsl 401 22 20 20000 1 1 empty empty frequency 5 9 0
10 -203904 -1 -1 30500 1;
#X obj 294 615 hsl 128 17 0 20 0 1 empty empty gain 5 9 0 10 -204786
-1 -1 2800 1;
#X floatatom 431 637 0 0 0 0 - - -;
#X obj 431 660 trigger bang float;
#X obj 434 615 hsl 128 17 0 150 0 1 empty empty bandwidth 5 9 0 10
-261682 -1 -1 8900 1;
#X obj 1123 671 *~ 0.7;
#X obj 559 581 equalizer 700 7 250;
#X obj 230 703 equalizer 2500 5 150;
#X connect 0 0 4 0;
#X connect 2 0 21 0;
#X connect 3 0 18 0;
#X connect 4 0 18 0;
#X connect 4 1 3 0;
#X connect 7 0 14 0;
#X connect 8 0 4 0;
#X connect 10 0 21 0;
#X connect 10 1 2 0;
#X connect 11 0 13 0;
#X connect 13 0 12 0;
#X connect 13 0 2 1;
#X connect 13 0 20 1;
#X connect 14 0 3 1;
#X connect 14 0 9 0;
#X connect 14 0 17 1;
#X connect 15 0 24 0;
#X connect 17 0 10 0;
#X connect 18 0 10 0;
#X connect 18 1 17 0;
#X connect 19 0 18 0;
#X connect 20 0 35 1;
#X connect 21 0 35 0;
#X connect 21 1 20 0;
#X connect 22 0 10 0;
#X connect 23 0 21 0;
#X connect 24 0 8 0;
#X connect 24 1 19 0;
#X connect 25 0 22 0;
#X connect 25 1 23 0;
#X connect 26 0 25 0;
#X connect 28 0 33 0;
#X connect 28 0 34 0;
#X connect 33 0 11 0;
#X connect 34 0 7 0;
#X connect 35 0 46 0;
#X connect 36 0 48 0;
#X connect 38 0 58 0;
#X connect 39 0 40 0;
#X connect 40 0 58 0;
#X connect 40 1 58 1;
#X connect 41 0 38 0;
#X connect 42 0 39 0;
#X connect 43 0 44 0;
#X connect 44 0 58 0;
#X connect 44 1 58 2;
#X connect 45 0 43 0;
#X connect 46 0 1 0;
#X connect 46 0 1 1;
#X connect 46 1 57 0;
#X connect 47 0 46 0;
#X connect 48 0 1 0;
#X connect 48 0 1 1;
#X connect 49 0 59 0;
#X connect 50 0 51 0;
#X connect 51 0 59 0;
#X connect 51 1 59 1;
#X connect 52 0 49 0;
#X connect 53 0 50 0;
#X connect 54 0 55 0;
#X connect 55 0 59 0;
#X connect 55 1 59 2;
#X connect 56 0 54 0;
#X connect 57 0 36 0;
#X connect 58 0 36 0;
#X connect 59 0 48 0;
#X coords 0 -1 1 1 414 81 2 1195 267;
#X restore 631 630 pd filterAudio;
#N canvas 0 4 1904 986 adjustLoopPrecisely 0;
#X obj 891 193 hsl 128 15 -0.0002 0.0002 0 0 \$0-resetThisSlider \$0-preciselyAdjustLoopBounds
empty -2 -8 0 10 -262144 -1 -1 6350 1;
#X msg 622 346 0;
#X obj 622 488 s \$0-preciselyAdjustLoopBounds;
#X obj 536 255 r \$0-resetThisSlider;
#X floatatom 536 280 5 0 0 0 - - -, f 5;
#X obj 536 304 != 0;
#X obj 622 371 t b f;
#X obj 622 431 f;
#X obj 536 329 route 0 1;
#X obj 611 599 +;
#X obj 611 531 r \$0-resetThisSlider;
#X obj 622 456 t f b;
#X obj 622 396 del 150;
#X obj 859 552 r \$0-loopLowerBound;
#X floatatom 859 577 11 0 0 0 - - -, f 11;
#X obj 611 624 outlet;
#X obj 891 215 hsl 128 15 -0.001 0.001 0 0 \$0-resetThisSlider2 \$0-preciselyAdjustLoopBounds2
empty -2 -8 0 10 -262144 -1 -1 6350 1;
#X msg 1290 361 0;
#X floatatom 1204 295 5 0 0 0 - - -, f 5;
#X obj 1204 319 != 0;
#X obj 1290 386 t b f;
#X obj 1290 446 f;
#X obj 1204 344 route 0 1;
#X obj 1279 614 +;
#X obj 1290 471 t f b;
#X obj 1290 411 del 150;
#X floatatom 1527 592 11 0 0 0 - - -, f 11;
#X obj 1279 639 outlet;
#X obj 1204 270 r \$0-resetThisSlider2;
#X obj 1290 503 s \$0-preciselyAdjustLoopBounds2;
#X obj 1279 546 r \$0-resetThisSlider2;
#X obj 1527 567 r \$0-loopUpperBound;
#X text 902 237 fine adjustments;
#X text 895 259 for loop boundaries;
#X obj 923 80 loadbang;
#X msg 923 105 0;
#X connect 1 0 6 0;
#X connect 3 0 4 0;
#X connect 4 0 5 0;
#X connect 5 0 8 0;
#X connect 6 0 12 0;
#X connect 6 1 7 1;
#X connect 7 0 11 0;
#X connect 8 1 1 0;
#X connect 9 0 14 0;
#X connect 9 0 15 0;
#X connect 10 0 9 0;
#X connect 11 0 2 0;
#X connect 11 1 14 0;
#X connect 12 0 7 0;
#X connect 13 0 14 0;
#X connect 14 0 9 1;
#X connect 17 0 20 0;
#X connect 18 0 19 0;
#X connect 19 0 22 0;
#X connect 20 0 25 0;
#X connect 20 1 21 1;
#X connect 21 0 24 0;
#X connect 22 1 17 0;
#X connect 23 0 26 0;
#X connect 23 0 27 0;
#X connect 24 0 29 0;
#X connect 24 1 26 0;
#X connect 25 0 21 0;
#X connect 26 0 23 1;
#X connect 28 0 18 0;
#X connect 30 0 23 0;
#X connect 31 0 26 0;
#X connect 34 0 35 0;
#X connect 35 0 0 0;
#X connect 35 0 16 0;
#X coords 0 -1 1 1 148 94 2 879 187;
#X restore 367 617 pd adjustLoopPrecisely;
#X obj 1046 1217 tabread4~ \$0-recording;
#X obj 1684 1026 arraysize \$0-recording;
#X obj 1645 981 r \$0-update-array-length;
#X obj 1684 1049 s \$0-numberOfSamplesInAudioFile;
#X obj 1134 917 r \$0-numberOfSamplesInAudioFile;
#X obj 1684 1075 noise~;
#X obj 1664 1121 tabwrite~ \$0-audiorepresentation;
#X obj 1684 1096 lop~ 1500;
#X obj 57 323 s \$0-playPause_receiver;
#X msg 57 297 0;
#X obj 96 143 r \$0-playPause;
#X msg 97 168 set \$1;
#X obj 1645 1002 t b b b;
#X obj 1499 1086 s \$0-playerStop;
#X msg 1416 1040 0;
#X obj 1416 1061 s \$0-audioPlayerLoopGUI;
#X text 1578 868 update whenever array changes:;
#X text 1578 887 #samples;
#X text 1578 906 random audio representation;
#X text 1578 925 playback set back to zero;
#X text 1578 944 loop turned off;
#X obj 1661 549 r \$0-numberOfSamplesInAudioFile;
#X obj 1595 593 * 44100;
#N canvas 0 0 1888 970 cutting_tool 0;
#X obj 766 514 arraycopy \$0-temp;
#X obj 766 439 list append;
#X obj 766 464 list append;
#X obj 766 489 list trim;
#X floatatom 907 532 5 0 0 0 - - -, f 5;
#X obj 907 508 arraysize;
#X obj 930 462 t b s;
#X obj 506 474 bondo, f 12;
#X obj 509 507 -, f 11;
#X floatatom 509 532 5 0 0 0 - - -, f 5;
#X msg 930 437 \$2;
#X obj 907 592 s \$0-temp;
#X msg 907 565 resize \$1;
#X obj 603 548 int;
#X obj 603 368 t b l l, f 55;
#X msg 276 442 resize \$1;
#X obj 276 408 arraysize \$0-temp;
#X msg 156 454 copy \$0-temp;
#X obj 156 391 t b b;
#X obj 156 351 bng 15 250 50 0 empty empty empty 17 7 0 10 -262144
-1 -1;
#X obj 576 334 t b l;
#X obj 548 401 i;
#X obj 479 401 i;
#X obj 343 292 inlet;
#X obj 479 375 inlet;
#X obj 548 377 inlet;
#X obj 479 422 t f f;
#X obj 548 447 t f f;
#X text 508 167 inlet 1: bang to cut array;
#X text 508 201 inlet 2 & 3: index from which sample x to sample y
should be cut;
#X obj 1245 342 table \$0-temp;
#X obj 276 466 s \$0-recording;
#X obj 156 485 arraycopy \$0-recording;
#X msg 576 309 copy \$0-recording;
#X connect 1 0 2 0;
#X connect 2 0 3 0;
#X connect 3 0 0 0;
#X connect 4 0 12 0;
#X connect 5 0 4 0;
#X connect 6 0 5 0;
#X connect 6 1 5 1;
#X connect 7 0 8 1;
#X connect 7 1 8 0;
#X connect 8 0 9 0;
#X connect 9 0 13 1;
#X connect 10 0 6 0;
#X connect 12 0 11 0;
#X connect 13 0 12 0;
#X connect 14 0 13 0;
#X connect 14 1 1 0;
#X connect 14 2 10 0;
#X connect 15 0 31 0;
#X connect 16 0 15 0;
#X connect 17 0 32 0;
#X connect 18 0 17 0;
#X connect 18 1 16 0;
#X connect 19 0 18 0;
#X connect 20 0 19 0;
#X connect 20 1 14 0;
#X connect 21 0 27 0;
#X connect 22 0 26 0;
#X connect 23 0 33 0;
#X connect 24 0 22 0;
#X connect 25 0 21 0;
#X connect 26 0 1 1;
#X connect 26 1 7 0;
#X connect 27 0 2 1;
#X connect 27 1 7 1;
#X connect 33 0 20 0;
#X restore 1564 678 pd cutting_tool;
#X obj 1679 629 * 44100;
#X obj 1366 639 bng 54 250 50 0 \$0-cut_activation empty cut -35 23
0 16 -260097 -65537 -65537;
#X obj 1513 664 t b b;
#X obj 1518 1131 s \$0-playPause;
#X msg 1518 1108 0;
#X msg 1539 1165 0;
#X msg 1563 1194 1;
#X obj 1480 1019 t b b b b b, f 13;
#X msg 167 111 1;
#X connect 0 0 7 0;
#X connect 1 0 5 0;
#X connect 1 0 31 0;
#X connect 2 0 3 0;
#X connect 3 0 12 1;
#X connect 4 0 10 0;
#X connect 4 0 29 0;
#X connect 5 0 86 0;
#X connect 6 0 5 1;
#X connect 7 0 2 0;
#X connect 7 1 6 0;
#X connect 8 0 83 0;
#X connect 9 0 22 0;
#X connect 11 0 13 0;
#X connect 12 0 14 0;
#X connect 13 0 12 0;
#X connect 13 1 14 1;
#X connect 14 0 15 0;
#X connect 15 0 19 0;
#X connect 16 0 17 0;
#X connect 17 0 18 0;
#X connect 18 0 41 0;
#X connect 18 1 11 0;
#X connect 19 0 1 0;
#X connect 20 0 108 0;
#X connect 21 0 77 0;
#X connect 22 0 23 0;
#X connect 23 1 74 0;
#X connect 23 2 75 0;
#X connect 24 0 30 1;
#X connect 25 0 110 0;
#X connect 26 0 29 1;
#X connect 27 0 28 0;
#X connect 28 1 70 0;
#X connect 28 2 71 0;
#X connect 29 1 38 0;
#X connect 30 0 33 0;
#X connect 31 0 4 0;
#X connect 32 0 30 0;
#X connect 33 0 49 0;
#X connect 34 0 35 0;
#X connect 35 0 25 0;
#X connect 38 0 32 0;
#X connect 40 0 1 1;
#X connect 42 0 38 1;
#X connect 43 0 44 0;
#X connect 43 1 44 1;
#X connect 44 0 45 0;
#X connect 45 0 46 0;
#X connect 46 0 56 0;
#X connect 47 0 48 0;
#X connect 48 0 54 0;
#X connect 48 1 50 0;
#X connect 49 0 39 0;
#X connect 49 1 43 0;
#X connect 50 0 57 0;
#X connect 51 0 53 0;
#X connect 52 0 51 0;
#X connect 53 0 65 0;
#X connect 54 0 55 0;
#X connect 58 0 51 1;
#X connect 59 0 43 1;
#X connect 60 0 26 0;
#X connect 61 0 27 0;
#X connect 62 0 43 0;
#X connect 63 0 21 0;
#X connect 64 0 24 0;
#X connect 65 0 56 0;
#X connect 67 0 95 0;
#X connect 68 0 54 1;
#X connect 77 1 72 0;
#X connect 77 2 73 0;
#X connect 78 0 8 1;
#X connect 79 0 80 0;
#X connect 79 0 118 0;
#X connect 80 0 78 0;
#X connect 85 0 20 0;
#X connect 85 1 25 0;
#X connect 86 0 8 0;
#X connect 87 0 89 0;
#X connect 88 0 98 0;
#X connect 90 0 0 0;
#X connect 91 0 93 0;
#X connect 93 0 92 0;
#X connect 95 0 94 0;
#X connect 96 0 97 0;
#X connect 97 0 66 0;
#X connect 98 0 117 0;
#X connect 98 1 92 0;
#X connect 98 2 87 0;
#X connect 100 0 101 0;
#X connect 107 0 108 1;
#X connect 107 0 110 1;
#X connect 108 0 109 1;
#X connect 110 0 109 2;
#X connect 111 0 112 0;
#X connect 112 0 98 0;
#X connect 112 1 109 0;
#X connect 114 0 113 0;
#X connect 115 0 20 0;
#X connect 116 0 25 0;
#X connect 117 1 99 0;
#X connect 117 2 114 0;
#X connect 117 3 115 0;
#X connect 117 4 116 0;
#X connect 118 0 37 0;
#X coords 0 -1 1 1 1091 690 2 351 25;
#X restore 52 27 pd audioPlayer;
#X restore 23 28 pd \$0-audioPlayer;
#X obj 159 442 s \$0-update-array-length;
#X msg 601 633 \; pd-\$0-audioPlayer vis 1;
#X obj 663 415 bng 28 250 50 0 empty empty open\ editor -72 11 0 10
-262144 -1 -1;
#X obj 719 388 s \$0-playPause_receiver;
#X msg 719 362 0;
#X obj 578 233 r \$0-playPause;
#X msg 579 258 set \$1;
#X obj 416 153 r \$0-cut_activation;
#X obj 416 178 arraysize \$0-recording;
#X obj 416 203 / 44100;
#X obj 416 228 + 1;
#X obj 416 253 i;
#N canvas -1691 336 1888 993 incrementalRecording 0;
#X obj 217 108 inlet;
#X obj 312 427 samplerate~;
#X obj 312 455 +;
#X obj 311 403 metro 999;
#X obj 311 381 tgl 15 0 empty empty empty 17 7 0 10 -262144 -1 -1 0
1;
#X obj 350 455 int 0;
#X msg 217 364 0;
#X obj 272 331 tabwrite~ \$0-recording;
#X obj 65 286 adc~;
#X obj 312 525 s \$0-recording;
#X msg 312 496 resize \$1;
#X msg 389 496 const 0;
#X obj 272 290 t b 1 0 b, f 20;
#X obj 217 183 route 0 1, f 19;
#X obj 217 207 bng 15 250 50 0 empty empty empty 17 7 0 10 -262144
-1 -1;
#X obj 272 207 bng 15 250 50 0 empty empty empty 17 7 0 10 -262144
-1 -1;
#X obj 217 227 t b b;
#X obj 217 154 t f b;
#X obj 161 458 s \$0-recording;
#X msg 161 432 normalize 0.9;
#X obj 161 407 del 999;
#X obj 696 315 *~ 0;
#X obj 758 298 r \$0-alsoRecordPlayerAudio_volume;
#X obj 75 674 dac~;
#X obj 96 599 tgl 15 0 empty \$0-monitorYourself empty 17 7 0 10 -262144
-1 -1 0 1;
#X obj 75 630 *~ 0;
#X obj 75 314 *~ 1;
#X obj 110 181 vsl 15 128 0 3 0 0 empty \$0-recordingVolume empty 0
-9 0 10 -262144 -1 -1 7733 1;
#X obj 110 142 loadbang;
#X msg 110 161 1;
#X obj 696 260 delread~ playerAudio 100;
#X msg 694 229 100;
#X connect 0 0 17 0;
#X connect 1 0 2 0;
#X connect 2 0 10 0;
#X connect 2 0 5 0;
#X connect 3 0 1 0;
#X connect 4 0 3 0;
#X connect 5 0 2 1;
#X connect 6 0 4 0;
#X connect 6 0 20 0;
#X connect 8 0 26 0;
#X connect 8 1 26 0;
#X connect 10 0 9 0;
#X connect 11 0 9 0;
#X connect 12 0 7 0;
#X connect 12 1 4 0;
#X connect 12 2 5 0;
#X connect 12 3 11 0;
#X connect 13 0 14 0;
#X connect 13 1 15 0;
#X connect 14 0 16 0;
#X connect 15 0 12 0;
#X connect 16 0 6 0;
#X connect 17 0 13 0;
#X connect 19 0 18 0;
#X connect 20 0 19 0;
#X connect 21 0 7 0;
#X connect 22 0 21 1;
#X connect 24 0 25 1;
#X connect 25 0 23 0;
#X connect 25 0 23 1;
#X connect 26 0 7 0;
#X connect 26 0 25 0;
#X connect 27 0 26 1;
#X connect 28 0 29 0;
#X connect 29 0 27 0;
#X connect 30 0 21 0;
#X connect 31 0 30 0;
#X restore 350 670 pd incrementalRecording;
#X obj 668 447 tgl 23 0 \$0-alsoRecordPlayerAudio_volume empty record\ player\ audio\ too
-146 10 0 10 -262144 -1 -1 1 1;
#X obj 362 415 tgl 23 0 \$0-monitorYourself empty monitoring\ on/off
28 9 0 10 -262144 -1 -1 0 1;
#X obj 177 501 loadbang;
#X msg 177 526 1;
#X obj 360 452 hsl 128 15 0 3 0 0 \$0-recordingVolume empty recording\ volume
-2 -8 0 10 -262144 -1 -1 3633 1;
#X connect 0 0 13 0;
#X connect 0 0 30 0;
#X connect 2 0 5 0;
#X connect 3 0 22 0;
#X connect 6 0 7 0;
#X connect 8 0 9 0;
#X connect 9 0 6 0;
#X connect 11 0 10 0;
#X connect 11 0 18 0;
#X connect 12 0 10 1;
#X connect 12 0 18 0;
#X connect 13 0 11 0;
#X connect 13 1 14 0;
#X connect 14 0 15 0;
#X connect 14 1 12 0;
#X connect 15 0 11 0;
#X connect 20 0 19 0;
#X connect 22 0 21 0;
#X connect 23 0 24 0;
#X connect 24 0 4 0;
#X connect 25 0 26 0;
#X connect 26 0 27 0;
#X connect 27 0 28 0;
#X connect 28 0 29 0;
#X connect 29 0 10 1;
#X connect 33 0 34 0;
#X connect 34 0 35 0;
#X coords 0 -1 1 1 350 183 2 346 291;
#X restore 21 8 pd recording;
#X coords 0 -1 1 1 373 197 2 10 2;
