#N canvas 0 0 1888 970 10;
#X obj 963 498 textfile;
#X msg 964 347 set \$1;
#X obj 849 202 inlet;
#X msg 997 383 3\ 45;
#X obj 1199 385 symbol \$1;
#X obj 1199 358 loadbang;
#X msg 1123 333 write;
#X obj 1291 357 inlet;
#X obj 1124 427 list trim;
#X obj 1124 402 list;
#X obj 1123 358 symbol;
#X obj 851 274 t b s;
#X obj 849 227 l2s;
#X connect 1 0 0 0;
#X connect 1 0 3 0;
#X connect 2 0 12 0;
#X connect 4 0 9 1;
#X connect 5 0 4 0;
#X connect 6 0 10 0;
#X connect 7 0 4 0;
#X connect 8 0 0 0;
#X connect 9 0 8 0;
#X connect 10 0 9 0;
#X connect 11 0 6 0;
#X connect 11 1 1 0;
#X connect 12 0 11 0;
