#N canvas 0 0 1888 970 10;
#X obj 1533 291 dsp;
#N canvas 0 0 1888 970 calc1 0;
#X floatatom 110 141 5 0 0 0 f0 - -, f 5;
#X floatatom 192 384 5 0 0 0 Fs - -, f 5;
#X msg 192 361 44100;
#X msg 192 136 loadbang;
#X obj 137 360 pi;
#X obj 137 385 * 2;
#X obj 110 335 t f b;
#X obj 137 410 /;
#X obj 110 438 *;
#X floatatom 110 463 9 0 0 0 omega0 - -, f 9;
#X obj 512 417 sinh;
#X floatatom 512 144 5 0 0 0 bandwidth - -, f 5;
#X obj 512 310 t f b;
#X obj 558 353 log;
#X msg 558 327 2;
#X obj 512 370 *;
#X obj 512 394 / 2;
#X obj 512 442 * 2;
#X floatatom 512 467 17 0 0 0 1/Q - -, f 17;
#X obj 110 549 sin;
#X obj 110 577 *;
#X obj 110 602 / 2;
#X floatatom 110 627 13 0 0 0 alpha - -, f 13;
#X obj 539 191 pi;
#X obj 539 216 * 2;
#X obj 512 166 t f b;
#X obj 539 241 /;
#X obj 512 258 *;
#X floatatom 512 282 12 0 0 0 - - -, f 12;
#X obj 216 95 unpack f f f;
#X obj 216 60 inlet;
#X obj 110 651 outlet;
#X obj 4 479 outlet;
#X obj 760 250 outlet;
#X obj 310 154 t f f;
#X obj 339 323 pow -1;
#X obj 760 204 pow;
#X msg 760 180 10;
#X obj 760 112 t b f;
#X floatatom 760 228 5 0 0 0 - - -, f 5;
#X text 810 251 Gain (not dB);
#X obj 403 562 pow -1;
#X floatatom 403 587 10 0 0 0 - - -, f 10;
#X obj 413 637 outlet;
#X obj 412 518 t f f;
#X obj 787 144 / 20;
#X connect 0 0 6 0;
#X connect 1 0 7 1;
#X connect 2 0 1 0;
#X connect 2 0 26 1;
#X connect 3 0 2 0;
#X connect 4 0 5 0;
#X connect 5 0 7 0;
#X connect 6 0 8 0;
#X connect 6 1 4 0;
#X connect 7 0 8 1;
#X connect 8 0 9 0;
#X connect 9 0 19 0;
#X connect 9 0 32 0;
#X connect 10 0 17 0;
#X connect 11 0 25 0;
#X connect 12 0 15 0;
#X connect 12 1 14 0;
#X connect 13 0 15 1;
#X connect 14 0 13 0;
#X connect 15 0 16 0;
#X connect 16 0 10 0;
#X connect 17 0 18 0;
#X connect 18 0 44 0;
#X connect 19 0 20 0;
#X connect 20 0 21 0;
#X connect 21 0 22 0;
#X connect 22 0 31 0;
#X connect 23 0 24 0;
#X connect 24 0 26 0;
#X connect 25 0 27 0;
#X connect 25 1 23 0;
#X connect 26 0 27 1;
#X connect 27 0 28 0;
#X connect 28 0 12 0;
#X connect 29 0 0 0;
#X connect 29 1 34 0;
#X connect 29 2 38 0;
#X connect 30 0 29 0;
#X connect 34 0 43 0;
#X connect 34 1 35 0;
#X connect 35 0 20 1;
#X connect 36 0 39 0;
#X connect 37 0 36 0;
#X connect 38 0 37 0;
#X connect 38 1 45 0;
#X connect 39 0 33 0;
#X connect 41 0 42 0;
#X connect 42 0 43 0;
#X connect 44 0 41 0;
#X connect 44 1 20 1;
#X connect 45 0 36 1;
#X restore 629 74 pd calc1;
#X floatatom 601 111 5 0 0 0 - - -, f 5;
#X floatatom 644 167 11 0 0 0 - - -, f 11;
#X floatatom 845 115 5 0 0 0 - - -, f 5;
#X obj 326 336 +;
#X obj 644 191 s \$0-alpha;
#X obj 409 240 r \$0-alpha;
#X obj 601 135 s \$0-omega0;
#X obj 256 157 r \$0-omega0;
#X msg 326 277 1;
#X obj 388 311 /;
#X obj 290 232 t b b b;
#X obj 290 201 bng 15 250 50 0 empty empty empty 17 7 0 10 -262144
-1 -1;
#X obj 394 270 f;
#X obj 431 308 f;
#X floatatom 327 368 24 0 0 0 - - -, f 24;
#X floatatom 771 192 19 0 0 0 - - -, f 19;
#X obj 845 139 s \$0-gain;
#X obj 446 285 r \$0-gain;
#X obj 327 395 pow -1;
#X obj 292 542 t f b b;
#X obj 378 506 r \$0-alpha;
#X obj 467 504 r \$0-gain;
#X obj 346 600 f;
#X obj 379 596 f;
#X obj 347 626 *;
#X obj 347 651 + 1;
#X obj 292 686 *;
#X floatatom 292 711 10 0 0 0 b0 - -, f 10;
#X obj 327 420 s \$0-a0_inv;
#X obj 292 511 r \$0-a0_inv;
#X obj 548 637 r \$0-a0_inv;
#X obj 638 595 r \$0-omega0;
#X obj 638 620 cos;
#X obj 638 645 * -2;
#X obj 549 682 *;
#X floatatom 549 707 19 0 0 0 b1 - -, f 19;
#X obj 829 534 t f b b;
#X obj 915 498 r \$0-alpha;
#X obj 1004 496 r \$0-gain;
#X obj 883 592 f;
#X obj 916 588 f;
#X obj 884 618 *;
#X obj 829 678 *;
#X floatatom 829 703 10 0 0 0 b2 - -, f 10;
#X obj 829 503 r \$0-a0_inv;
#X obj 884 643 * -1;
#X obj 884 668 + 1;
#X floatatom 584 843 15 0 0 0 a1 - -, f 15;
#X obj 1045 621 t f b b;
#X obj 1131 584 r \$0-alpha;
#X obj 1220 583 r \$0-gain;
#X obj 1099 679 f;
#X obj 1132 675 f;
#X obj 1045 765 *;
#X floatatom 709 844 10 0 0 0 a2 - -, f 10;
#X obj 1045 590 r \$0-a0_inv;
#X obj 1100 730 * -1;
#X obj 1100 755 + 1;
#X obj 1100 705 /;
#X obj 590 880 pack f f f f f;
#X obj 290 257 t b b;
#X obj 212 806 bng 15 250 50 0 empty empty empty 17 7 0 10 -262144
-1 -1;
#X obj 212 829 t b b;
#X obj 576 910 list;
#X obj 1647 363 env~;
#X floatatom 1647 388 18 0 0 0 - - -, f 18;
#X obj 1700 257 demux~;
#X obj 1746 186 tgl 15 0 empty empty empty 17 7 0 10 -262144 -1 -1
0 1;
#X floatatom 1785 205 5 0 0 0 - - -, f 5;
#X obj 797 878 pack f f f f f;
#X obj 762 895 list;
#X obj 1512 127 hsl 128 15 20 20000 1 0 empty empty empty -2 -8 0 10
-262144 -1 -1 5350 1;
#X floatatom 1512 150 8 0 0 0 - - -, f 8;
#X obj 762 920 print;
#X obj 1524 372 biquad~;
#X obj 1700 231 noise~;
#X msg 1420 287 clear;
#X msg 1141 238 -1.96578 0.985901 1.02102 -1.96578 0.964885;
#X msg 630 49 21000 10 12;
#X obj 1564 754 bp~ 500 1.4;
#X floatatom 1511 854 5 0 0 0 - - -, f 5;
#X obj 1548 602 hsl 128 15 20 20000 1 0 empty empty empty -2 -8 0 10
-262144 -1 -1 3550 1;
#X floatatom 1548 625 8 0 0 0 - - -, f 8;
#X floatatom 1636 722 5 0 0 0 - - -, f 5;
#X obj 1511 829 env~ 8192;
#X obj 1362 814 dac~;
#X obj 1376 767 *~ 0.2;
#X obj 1354 658 hsl 128 15 0 0.1 0 0 empty empty empty -2 -8 0 10 -262144
-1 -1 2550 1;
#X obj 1530 792 +~;
#X obj 1581 782 bp~ 500 1.4;
#X obj 1529 697 noise~;
#X obj 1508 731 demux~;
#X obj 1498 697 tgl 15 0 empty empty empty 17 7 0 10 -262144 -1 -1
0 1;
#X obj 1447 809 *~ 3;
#X connect 1 0 2 0;
#X connect 1 1 3 0;
#X connect 1 2 17 0;
#X connect 1 3 4 0;
#X connect 2 0 8 0;
#X connect 3 0 6 0;
#X connect 4 0 18 0;
#X connect 5 0 16 0;
#X connect 7 0 14 1;
#X connect 10 0 5 0;
#X connect 11 0 5 1;
#X connect 12 0 62 0;
#X connect 12 1 14 0;
#X connect 12 2 15 0;
#X connect 13 0 12 0;
#X connect 14 0 11 0;
#X connect 15 0 11 1;
#X connect 16 0 20 0;
#X connect 19 0 15 1;
#X connect 20 0 30 0;
#X connect 21 0 28 0;
#X connect 21 1 24 0;
#X connect 21 2 25 0;
#X connect 22 0 24 1;
#X connect 23 0 25 1;
#X connect 24 0 26 0;
#X connect 25 0 26 1;
#X connect 26 0 27 0;
#X connect 27 0 28 1;
#X connect 28 0 29 0;
#X connect 29 0 61 2;
#X connect 29 0 71 0;
#X connect 31 0 21 0;
#X connect 32 0 36 0;
#X connect 33 0 34 0;
#X connect 34 0 35 0;
#X connect 35 0 36 1;
#X connect 36 0 37 0;
#X connect 37 0 49 0;
#X connect 37 0 61 3;
#X connect 37 0 71 1;
#X connect 38 0 44 0;
#X connect 38 1 41 0;
#X connect 38 2 42 0;
#X connect 39 0 41 1;
#X connect 40 0 42 1;
#X connect 41 0 43 0;
#X connect 42 0 43 1;
#X connect 43 0 47 0;
#X connect 44 0 45 0;
#X connect 45 0 61 4;
#X connect 45 0 71 2;
#X connect 46 0 38 0;
#X connect 47 0 48 0;
#X connect 48 0 44 1;
#X connect 49 0 61 0;
#X connect 49 0 71 3;
#X connect 50 0 55 0;
#X connect 50 1 53 0;
#X connect 50 2 54 0;
#X connect 51 0 53 1;
#X connect 52 0 54 1;
#X connect 53 0 60 0;
#X connect 54 0 60 1;
#X connect 55 0 56 0;
#X connect 56 0 61 1;
#X connect 56 0 71 4;
#X connect 57 0 50 0;
#X connect 58 0 59 0;
#X connect 59 0 55 1;
#X connect 60 0 58 0;
#X connect 61 0 65 1;
#X connect 62 0 63 0;
#X connect 62 1 10 0;
#X connect 63 0 64 0;
#X connect 64 0 65 0;
#X connect 64 0 72 0;
#X connect 64 1 61 0;
#X connect 64 1 71 0;
#X connect 65 0 76 0;
#X connect 66 0 67 0;
#X connect 68 0 76 0;
#X connect 68 1 66 0;
#X connect 69 0 68 0;
#X connect 70 0 77 0;
#X connect 71 0 72 1;
#X connect 72 0 75 0;
#X connect 73 0 74 0;
#X connect 76 0 66 0;
#X connect 77 0 68 0;
#X connect 78 0 76 0;
#X connect 79 0 76 0;
#X connect 80 0 1 0;
#X connect 81 0 90 0;
#X connect 83 0 84 0;
#X connect 84 0 81 1;
#X connect 84 0 91 1;
#X connect 85 0 81 2;
#X connect 85 0 91 2;
#X connect 86 0 82 0;
#X connect 88 0 87 0;
#X connect 88 0 87 1;
#X connect 89 0 88 1;
#X connect 90 0 86 0;
#X connect 90 0 95 0;
#X connect 91 0 90 0;
#X connect 92 0 93 0;
#X connect 93 0 81 0;
#X connect 93 1 88 0;
#X connect 94 0 93 0;
#X connect 95 0 88 0;
