#N canvas 0 0 666 688 10;
#X dropdown 639 94 15 0 0 0 - - -, f 15;
#X floatatom 144 105 5 0 0 0 - - -, f 5;
#X obj 144 134 t b f;
#N canvas 0 0 1365 681 modes 0;
#X obj 253 192 route 0 1 2 3 4 5 6;
#X msg 253 231 0 2 4 5 7 9 11;
#X msg 302 266 0 2 3 5 7 9 10;
#X msg 360 300 0 1 3 5 7 8 10;
#X msg 388 325 0 2 4 6 7 9 11;
#X msg 432 354 0 2 4 5 7 9 10;
#X msg 488 385 0 2 3 5 7 8 10;
#X msg 524 419 0 1 3 5 6 8 10;
#X obj 253 436 outlet;
#X obj 253 139 inlet;
#X connect 0 0 1 0;
#X connect 0 1 2 0;
#X connect 0 2 3 0;
#X connect 0 3 4 0;
#X connect 0 4 5 0;
#X connect 0 5 6 0;
#X connect 0 6 7 0;
#X connect 1 0 8 0;
#X connect 2 0 8 0;
#X connect 3 0 8 0;
#X connect 4 0 8 0;
#X connect 5 0 8 0;
#X connect 6 0 8 0;
#X connect 7 0 8 0;
#X connect 9 0 0 0;
#X restore 171 158 pd modes;
#N canvas 341 0 666 665 playScale 0;
#X obj 311 70 inlet;
#X obj 309 449 mtof;
#X floatatom 309 474 10 0 0 0 - - -, f 10;
#X obj 309 506 osc~;
#X obj 309 531 *~ 0.1;
#X obj 312 206 counter;
#X obj 312 110 bng 27 250 50 0 empty empty empty 17 7 0 10 -262144
-1 -1;
#X msg 312 158 1;
#X floatatom 311 228 5 0 0 0 - - -, f 5;
#X msg 213 189 0;
#X obj 310 355 zl nth 0;
#X obj 311 322 t b f;
#X obj 309 556 dac~;
#X obj 311 297 + 1;
#X obj 174 159 moses 8;
#X obj 312 181 metro 300;
#X obj 475 255 inlet;
#X obj 475 338 list append 12;
#X obj 309 388 + 57;
#X obj 309 413 + 0;
#X obj 399 411 r \$0-rootNote;
#X msg 243 514 0.4;
#X connect 0 0 6 0;
#X connect 1 0 2 0;
#X connect 2 0 3 0;
#X connect 3 0 4 0;
#X connect 4 0 12 0;
#X connect 4 0 12 1;
#X connect 5 0 8 0;
#X connect 5 0 14 0;
#X connect 6 0 7 0;
#X connect 6 0 21 0;
#X connect 7 0 15 0;
#X connect 8 0 13 0;
#X connect 9 0 4 1;
#X connect 9 0 5 2;
#X connect 9 0 15 0;
#X connect 10 0 18 0;
#X connect 11 0 10 0;
#X connect 11 1 10 1;
#X connect 13 0 11 0;
#X connect 14 1 9 0;
#X connect 15 0 5 0;
#X connect 16 0 17 0;
#X connect 17 0 10 0;
#X connect 18 0 19 0;
#X connect 19 0 1 0;
#X connect 20 0 19 1;
#X connect 21 0 4 1;
#X restore 716 271 pd playScale;
#N canvas 0 0 1349 665 chordOnDegree 0;
#X obj 483 54 inlet;
#X obj 319 34 inlet;
#X text 483 29 scale;
#X text 68 9 degree;
#X obj 185 303 zl nth;
#X obj 319 99 list;
#X obj 319 124 list trim;
#X obj 319 303 zl nth;
#X obj 429 303 zl nth;
#X floatatom 352 265 5 0 0 0 - - -, f 5;
#X floatatom 218 147 5 0 0 0 - - -, f 5;
#X floatatom 462 265 5 0 0 0 - - -, f 5;
#X obj 352 163 + 2;
#X obj 462 180 + 2;
#X obj 352 187 realModulo 7, f 13;
#X obj 462 205 realModulo 7, f 13;
#X obj 218 112 - 1;
#X obj 218 171 + 1;
#X floatatom 218 265 5 0 0 0 - - -, f 5;
#X obj 352 212 + 1;
#X obj 462 230 + 1;
#X obj 319 328 + 55;
#X obj 429 328 + 55;
#X obj 185 328 + 55;
#X obj 185 473 osc~;
#X obj 319 473 osc~;
#X obj 429 473 osc~;
#X obj 319 59 t b b f;
#X obj 660 82 bng 15 250 50 0 empty empty empty 17 7 0 10 -262144 -1
-1;
#X msg 713 431 0;
#X obj 185 443 mtof;
#X obj 319 443 mtof;
#X obj 429 443 mtof;
#X obj 897 365 expr ($f2 - $f1);
#X obj 897 320 bondo;
#X obj 1060 365 expr ($f2 - $f1);
#X obj 1060 320 bondo;
#X obj 1060 396 moses 0;
#X obj 1060 420 + 12;
#X floatatom 1099 437 5 0 0 0 - - -, f 5;
#X obj 897 395 moses 0;
#X obj 897 419 + 12;
#X floatatom 936 436 5 0 0 0 - - -, f 5;
#X floatatom 1123 396 5 0 0 0 - - -, f 5;
#X floatatom 857 395 5 0 0 0 - - -, f 5;
#X msg 889 554 symbol minor;
#X msg 1034 554 symbol major;
#X obj 936 458 bondo;
#X obj 936 483 pack f f;
#X obj 936 508 route 3 4;
#X obj 864 525 route 3 4;
#X obj 1034 525 route 3 4;
#X symbolatom 970 596 10 0 0 0 - - -, f 10;
#X msg 1128 554 symbol augmented;
#X msg 748 554 symbol dminished;
#X obj 134 13 hradio 15 0 0 7 empty empty empty 0 -8 0 10 -262144 -1
-1 0;
#X obj 134 36 + 1;
#X text 7 335 midi root note;
#X floatatom 30 312 5 0 0 0 - - -, f 5;
#X obj 970 620 outlet;
#X text 1021 620 chord type;
#X obj 30 259 loadbang;
#X obj 185 353 + 0;
#X obj 319 353 + 0;
#X obj 429 353 + 0;
#X obj 519 336 r \$0-rootNote;
#X obj 713 365 loadbang;
#X msg 30 287 57;
#X obj 230 402 - 12;
#X floatatom 185 419 5 0 0 0 - - -, f 5;
#X obj 364 402 - 12;
#X floatatom 319 419 5 0 0 0 - - -, f 5;
#X obj 474 400 - 12;
#X floatatom 429 417 5 0 0 0 - - -, f 5;
#X obj 185 380 moses 72;
#X obj 319 380 moses 72;
#X obj 429 378 moses 72;
#X obj 814 99 inlet;
#X obj 814 124 tgl 15 0 empty empty empty 17 7 0 10 -262144 -1 -1 1
1;
#X obj 814 147 moses 1;
#X obj 814 172 bng 15 250 50 0 empty empty empty 17 7 0 10 -262144
-1 -1;
#X obj 853 172 bng 15 250 50 0 empty empty empty 17 7 0 10 -262144
-1 -1;
#X msg 787 195 set 0;
#X msg 853 193 set 0.3;
#X msg 660 431 0.3;
#X obj 1091 13 tgl 15 0 empty infiniteChordDuration empty 17 7 0 10
-262144 -1 -1 0 1;
#X obj 1091 36 moses 1;
#X obj 1091 71 bng 15 250 50 0 empty empty empty 17 7 0 10 -262144
-1 -1;
#X obj 1130 71 bng 15 250 50 0 empty empty empty 17 7 0 10 -262144
-1 -1;
#X msg 1130 94 300000;
#X obj 1228 77 loadbang;
#X obj 712 127 del 2500;
#X msg 1091 94 2000;
#X floatatom 1025 111 9 0 0 0 - - -, f 9;
#X obj 319 561 outlet~;
#X obj 553 501 line~;
#X msg 553 472 \$1 100;
#X floatatom 660 456 5 0 0 0 - - -, f 5;
#X obj 429 518 *~;
#X obj 319 518 *~;
#X obj 185 518 *~;
#X obj 49 363 loadbang;
#X msg 108 363 78;
#X connect 0 0 5 1;
#X connect 1 0 27 0;
#X connect 4 0 23 0;
#X connect 4 0 34 0;
#X connect 5 0 6 0;
#X connect 6 0 4 0;
#X connect 6 0 7 0;
#X connect 6 0 8 0;
#X connect 7 0 21 0;
#X connect 7 0 34 1;
#X connect 7 0 36 0;
#X connect 8 0 22 0;
#X connect 8 0 36 1;
#X connect 9 0 7 1;
#X connect 10 0 12 0;
#X connect 10 0 17 0;
#X connect 11 0 8 1;
#X connect 12 0 13 0;
#X connect 12 0 14 0;
#X connect 13 0 15 0;
#X connect 14 0 19 0;
#X connect 15 0 20 0;
#X connect 16 0 10 0;
#X connect 17 0 18 0;
#X connect 18 0 4 1;
#X connect 19 0 9 0;
#X connect 20 0 11 0;
#X connect 21 0 63 0;
#X connect 22 0 64 0;
#X connect 23 0 62 0;
#X connect 24 0 100 0;
#X connect 25 0 99 0;
#X connect 26 0 98 0;
#X connect 27 0 5 0;
#X connect 27 1 28 0;
#X connect 27 2 16 0;
#X connect 28 0 84 0;
#X connect 28 0 91 0;
#X connect 29 0 97 0;
#X connect 30 0 24 0;
#X connect 31 0 25 0;
#X connect 32 0 26 0;
#X connect 33 0 40 0;
#X connect 33 0 44 0;
#X connect 34 0 33 0;
#X connect 34 1 33 1;
#X connect 35 0 37 0;
#X connect 35 0 43 0;
#X connect 36 0 35 0;
#X connect 36 1 35 1;
#X connect 37 0 38 0;
#X connect 37 1 39 0;
#X connect 38 0 39 0;
#X connect 39 0 47 1;
#X connect 40 0 41 0;
#X connect 40 1 42 0;
#X connect 41 0 42 0;
#X connect 42 0 47 0;
#X connect 45 0 52 0;
#X connect 46 0 52 0;
#X connect 47 0 48 0;
#X connect 47 1 48 1;
#X connect 48 0 49 0;
#X connect 49 0 50 0;
#X connect 49 1 51 0;
#X connect 50 0 54 0;
#X connect 50 1 45 0;
#X connect 51 0 46 0;
#X connect 51 1 53 0;
#X connect 52 0 59 0;
#X connect 53 0 52 0;
#X connect 54 0 52 0;
#X connect 55 0 56 0;
#X connect 56 0 27 0;
#X connect 58 0 23 1;
#X connect 58 0 22 1;
#X connect 58 0 21 1;
#X connect 61 0 67 0;
#X connect 62 0 74 0;
#X connect 63 0 75 0;
#X connect 64 0 76 0;
#X connect 65 0 62 1;
#X connect 65 0 64 1;
#X connect 65 0 63 1;
#X connect 66 0 29 0;
#X connect 67 0 58 0;
#X connect 68 0 69 0;
#X connect 69 0 30 0;
#X connect 70 0 71 0;
#X connect 71 0 31 0;
#X connect 72 0 73 0;
#X connect 73 0 32 0;
#X connect 74 0 69 0;
#X connect 74 1 68 0;
#X connect 75 0 71 0;
#X connect 75 1 70 0;
#X connect 76 0 73 0;
#X connect 76 1 72 0;
#X connect 77 0 78 0;
#X connect 78 0 79 0;
#X connect 79 0 80 0;
#X connect 79 1 81 0;
#X connect 80 0 82 0;
#X connect 81 0 83 0;
#X connect 82 0 84 0;
#X connect 83 0 84 0;
#X connect 84 0 97 0;
#X connect 85 0 86 0;
#X connect 86 0 87 0;
#X connect 86 1 88 0;
#X connect 87 0 92 0;
#X connect 88 0 89 0;
#X connect 89 0 93 0;
#X connect 90 0 92 0;
#X connect 91 0 29 0;
#X connect 92 0 29 0;
#X connect 92 0 93 0;
#X connect 93 0 91 1;
#X connect 95 0 98 1;
#X connect 95 0 100 1;
#X connect 95 0 99 1;
#X connect 96 0 95 0;
#X connect 97 0 96 0;
#X connect 98 0 94 0;
#X connect 99 0 94 0;
#X connect 100 0 94 0;
#X connect 101 0 102 0;
#X connect 102 0 74 1;
#X connect 102 0 76 1;
#X connect 102 0 75 1;
#X restore 124 239 pd chordOnDegree;
#X obj 715 183 bng 15 250 50 0 empty empty play\ scale 19 4 0 10 -262144
-1 -1;
#X symbolatom 217 274 10 0 0 0 - - -, f 10;
#X msg 251 485 names A A# B C C# D D# E F F# G G#;
#X dropdown 474 502 4 1 0 0 - - -, f 4;
#X obj 333 300 t b f;
#X floatatom 474 405 5 0 0 0 - - -, f 5;
#X obj 474 337 list;
#X obj 474 377 zl nth;
#X obj 474 468 realModulo 12;
#X obj 474 441 + 0;
#X msg 597 333 names A A# B C C# D D# E F F# G G#;
#X dropdown 597 94 3 0 0 0 - - -, f 3;
#X floatatom 597 365 5 0 0 0 - - -, f 5;
#X text 637 366 starting note;
#X obj 251 459 loadbang;
#X obj 597 308 loadbang;
#X text 413 527 root note of current chord;
#X obj 597 122 hradio 15 0 0 7 empty empty empty 0 -8 0 10 -262144
-1 -1 4;
#X obj 333 222 + 1;
#X symbolatom 638 152 16 0 0 0 - - -, f 16;
#X symbolatom 597 152 5 0 0 0 - - -, f 5;
#X text 715 122 scale degree;
#X obj 596 391 s \$0-rootNote;
#X obj 217 202 tgl 15 0 empty empty enable\ sound 17 7 0 10 -262144
-1 -1 1 1;
#X obj 597 182 tgl 18 0 empty empty enable\ sound 22 7 0 10 -262144
-1 -1 1 1;
#X obj 913 247 list;
#X obj 913 280 zl nth;
#X obj 1102 190 list length;
#X obj 1088 239 loop;
#X floatatom 1102 215 5 0 0 0 - - -, f 5;
#X floatatom 1088 264 5 0 0 0 - - -, f 5;
#X obj 913 222 t b b;
#X floatatom 913 305 5 0 0 0 - - -, f 5;
#X obj 1033 5 inlet;
#X obj 913 51 inlet;
#X obj 1220 57 inlet;
#X floatatom 1220 82 5 0 0 0 - - -, f 5;
#X text 1265 87 change chords every metro beats;
#X text 913 27 metronome bangs;
#X obj 913 99 loop 2;
#X obj 892 53 bng 15 250 50 0 empty empty empty 17 7 0 10 -262144 -1
-1;
#X obj 913 149 bng 15 250 50 0 empty empty empty 17 7 0 10 -262144
-1 -1;
#X obj 913 124 moses 2;
#X obj 1279 35 loadbang;
#X obj 221 -92 loadbang;
#X obj 913 329 - 1;
#X msg 1032 230 1;
#X obj 805 2 random 12;
#X obj 786 -80 bng 15 250 50 0 empty empty empty 17 7 0 10 -262144
-1 -1;
#X floatatom 805 27 5 0 0 0 - - -, f 5;
#X floatatom 885 -13 5 0 0 0 - - -, f 5;
#X obj 860 -40 random 7;
#X msg 989 70 1;
#X msg 1181 123 0;
#X msg 1166 5 random;
#X obj 597 205 tgl 18 0 infiniteChordDuration empty infinite\ Chord\ Duration
23 7 0 10 -262144 -1 -1 0 1;
#X obj 597 -57 loadbang;
#X obj 597 -32 del 250;
#X msg 597 -2 10;
#X msg 658 -2 0;
#X obj 1123 -53 loadbang;
#X msg 1123 5 1 5;
#X obj 530 142 loadbang;
#X msg 530 167 1;
#X msg 1279 65 4;
#X obj 394 260 outlet;
#X text 379 277 Scale Degree;
#X floatatom 394 239 5 0 0 0 - - -, f 5;
#X obj 786 -57 t b b b b;
#X msg 840 52 0;
#X symbolatom 108 274 17 0 0 0 - - -, f 17;
#X obj 108 202 tgl 15 0 empty empty empty 17 7 0 10 -262144 -1 -1 1
1;
#X obj 15 314 mux~ . .;
#X obj 85 300 tgl 15 0 empty \$0-triad-7th empty 17 7 0 10 -262144
-1 -1 0 1;
#X obj 15 363 dac~;
#X obj 166 314 mux;
#X symbolatom 166 339 10 0 0 0 - - -, f 10;
#X obj 226 299 tgl 15 0 empty \$0-triad-7th empty 17 7 0 10 -262144
-1 -1 0 1;
#X obj 597 228 tgl 18 0 \$0-triad-7th empty switch\ triads\ <-->\ 7th\ Chords
24 7 0 10 -262144 -1 -1 0 1;
#N canvas 0 0 1349 665 chordOnDegree7th 0;
#X obj 483 44 inlet;
#X obj 319 84 inlet;
#X text 483 19 scale;
#X text 68 39 degree;
#X obj 185 383 zl nth;
#X obj 319 149 list;
#X obj 319 174 list trim;
#X obj 319 383 zl nth;
#X obj 429 383 zl nth;
#X floatatom 352 345 5 0 0 0 - - -, f 5;
#X floatatom 218 197 5 0 0 0 - - -, f 5;
#X floatatom 462 345 5 0 0 0 - - -, f 5;
#X obj 352 213 + 2;
#X obj 462 230 + 2;
#X obj 352 237 realModulo 7, f 13;
#X obj 462 255 realModulo 7, f 13;
#X obj 218 162 - 1;
#X obj 218 311 + 1;
#X floatatom 218 345 5 0 0 0 - - -, f 5;
#X obj 352 311 + 1;
#X obj 462 311 + 1;
#X obj 319 408 + 55;
#X obj 429 408 + 55;
#X obj 185 408 + 55;
#X obj 185 553 osc~;
#X obj 319 553 osc~;
#X obj 429 553 osc~;
#X obj 319 109 t b b f;
#X obj 750 132 bng 15 250 50 0 empty empty empty 17 7 0 10 -262144
-1 -1;
#X msg 803 491 0;
#X obj 185 523 mtof;
#X obj 319 523 mtof;
#X obj 429 523 mtof;
#X obj 134 43 hradio 15 0 0 7 empty empty empty 0 -8 0 10 -262144 -1
-1 0;
#X obj 134 66 + 1;
#X text 7 415 midi root note;
#X floatatom 30 392 5 0 0 0 - - -, f 5;
#X obj 30 339 loadbang;
#X obj 185 433 + 0;
#X obj 319 433 + 0;
#X obj 429 433 + 0;
#X obj 641 416 r \$0-rootNote;
#X obj 803 414 loadbang;
#X msg 30 367 57;
#X obj 230 482 - 12;
#X floatatom 185 499 5 0 0 0 - - -, f 5;
#X obj 364 482 - 12;
#X floatatom 319 499 5 0 0 0 - - -, f 5;
#X obj 474 480 - 12;
#X floatatom 429 499 5 0 0 0 - - -, f 5;
#X obj 185 458 moses 72;
#X obj 319 458 moses 72;
#X obj 429 458 moses 72;
#X obj 930 381 inlet;
#X obj 930 406 tgl 15 0 empty empty empty 17 7 0 10 -262144 -1 -1 1
1;
#X obj 930 429 moses 1, f 10;
#X obj 930 454 bng 15 250 50 0 empty empty empty 17 7 0 10 -262144
-1 -1;
#X obj 987 454 bng 15 250 50 0 empty empty empty 17 7 0 10 -262144
-1 -1;
#X msg 930 474 set 0;
#X msg 987 474 set 0.3;
#X obj 1111 63 tgl 15 0 empty infiniteChordDuration empty 17 7 0 10
-262144 -1 -1 0 1;
#X obj 1111 86 moses 1;
#X obj 1111 121 bng 15 250 50 0 empty empty empty 17 7 0 10 -262144
-1 -1;
#X obj 1150 121 bng 15 250 50 0 empty empty empty 17 7 0 10 -262144
-1 -1;
#X msg 1150 144 300000;
#X obj 1248 127 loadbang;
#X obj 802 177 del 2500;
#X msg 1111 144 2000;
#X floatatom 1045 161 9 0 0 0 - - -, f 9;
#X obj 539 383 zl nth;
#X floatatom 572 345 5 0 0 0 - - -, f 5;
#X obj 572 247 + 2;
#X obj 572 272 realModulo 7, f 13;
#X obj 572 311 + 1;
#X obj 539 409 + 55;
#X obj 539 554 osc~;
#X obj 539 524 mtof;
#X obj 539 433 + 0;
#X obj 584 481 - 12;
#X floatatom 539 499 5 0 0 0 - - -, f 5;
#X obj 539 458 moses 72;
#N canvas 0 0 1349 665 chordName 0;
#X obj 242 75 inlet;
#X obj 339 75 inlet;
#X obj 384 75 inlet;
#X obj 478 75 inlet;
#X obj 194 192 expr ($f2 - $f1);
#X obj 242 160 bondo, f 8;
#X obj 315 192 expr ($f2 - $f1);
#X obj 339 160 bondo, f 8;
#X obj 315 222 moses 0;
#X obj 315 246 + 12;
#X floatatom 354 263 5 0 0 0 - - -, f 5;
#X obj 194 222 moses 0;
#X obj 194 246 + 12;
#X floatatom 233 263 5 0 0 0 - - -, f 5;
#X floatatom 378 222 5 0 0 0 - - -, f 5;
#X floatatom 154 222 5 0 0 0 - - -, f 5;
#X obj 354 415 route 3 4;
#X obj 282 432 route 3 4;
#X obj 452 432 route 3 4;
#X obj 357 610 outlet;
#X text 375 631 chord type;
#X obj 427 192 expr ($f2 - $f1);
#X obj 427 160 bondo, f 9;
#X obj 427 222 moses 0;
#X obj 427 246 + 12;
#X floatatom 466 263 5 0 0 0 - - -, f 5;
#X floatatom 490 222 5 0 0 0 - - -, f 5;
#X obj 466 287 t b f;
#X obj 354 287 t b f;
#X obj 354 390 pack f f f;
#X obj 282 457 route 3 4;
#X obj 452 457 route 3 4;
#X obj 359 457 route 3 4;
#X obj 530 457 route 3 4;
#X msg 182 545 half diminished;
#X msg 59 545 full diminished;
#X msg 452 545 dominant 7;
#X msg 357 545 minor major 7;
#X msg 299 545 minor 7;
#X msg 537 545 major 7;
#X msg 739 545 augmented;
#X msg 608 545 augmented minor7?!?;
#X obj 410 582 l2s;
#X symbolatom 410 610 17 0 0 0 - - -, f 17;
#X connect 0 0 5 0;
#X connect 1 0 5 1;
#X connect 1 0 7 0;
#X connect 2 0 7 1;
#X connect 2 0 22 0;
#X connect 3 0 22 1;
#X connect 4 0 11 0;
#X connect 4 0 15 0;
#X connect 5 0 4 0;
#X connect 5 1 4 1;
#X connect 6 0 8 0;
#X connect 6 0 14 0;
#X connect 7 0 6 0;
#X connect 7 1 6 1;
#X connect 8 0 9 0;
#X connect 8 1 10 0;
#X connect 9 0 10 0;
#X connect 10 0 28 0;
#X connect 11 0 12 0;
#X connect 11 1 13 0;
#X connect 12 0 13 0;
#X connect 13 0 29 0;
#X connect 16 0 17 0;
#X connect 16 1 18 0;
#X connect 17 0 30 0;
#X connect 17 1 32 0;
#X connect 18 0 31 0;
#X connect 18 1 33 0;
#X connect 21 0 23 0;
#X connect 21 0 26 0;
#X connect 22 0 21 0;
#X connect 22 1 21 1;
#X connect 23 0 24 0;
#X connect 23 1 25 0;
#X connect 24 0 25 0;
#X connect 25 0 27 0;
#X connect 27 0 29 0;
#X connect 27 1 29 2;
#X connect 28 0 29 0;
#X connect 28 1 29 1;
#X connect 29 0 16 0;
#X connect 30 0 35 0;
#X connect 30 1 34 0;
#X connect 31 0 36 0;
#X connect 31 1 39 0;
#X connect 32 0 38 0;
#X connect 32 1 37 0;
#X connect 33 0 41 0;
#X connect 33 1 40 0;
#X connect 34 0 42 0;
#X connect 35 0 42 0;
#X connect 36 0 42 0;
#X connect 37 0 42 0;
#X connect 38 0 42 0;
#X connect 39 0 42 0;
#X connect 40 0 42 0;
#X connect 41 0 42 0;
#X connect 42 0 43 0;
#X connect 42 0 19 0;
#X restore 1101 400 pd chordName;
#X symbolatom 1151 425 10 0 0 0 - - -, f 10;
#X obj 1101 425 outlet;
#X floatatom 750 536 5 0 0 0 - - -, f 5;
#X obj 345 631 outlet~;
#X msg 750 491 0.3;
#X obj 539 598 *~;
#X obj 429 598 *~;
#X obj 319 598 *~;
#X obj 185 598 *~;
#X obj 669 581 line~;
#X msg 669 552 \$1 100;
#X floatatom 641 441 5 0 0 0 - - -, f 5;
#X msg 79 585 100;
#X obj 54 611 noteout, f 9;
#X msg 105 585 2;
#X obj 54 562 t f b b, f 9;
#X floatatom 54 515 5 0 0 0 - - -, f 5;
#X obj 54 539 spigot;
#X obj 87 516 tgl 15 0 empty empty empty 17 7 0 10 -262144 -1 -1 0
1;
#X obj 55 441 loadbang;
#X msg 114 441 78;
#X connect 0 0 5 1;
#X connect 1 0 27 0;
#X connect 4 0 23 0;
#X connect 4 0 81 0;
#X connect 5 0 6 0;
#X connect 6 0 4 0;
#X connect 6 0 7 0;
#X connect 6 0 8 0;
#X connect 6 0 69 0;
#X connect 7 0 21 0;
#X connect 7 0 81 1;
#X connect 8 0 22 0;
#X connect 8 0 81 2;
#X connect 9 0 7 1;
#X connect 10 0 12 0;
#X connect 10 0 17 0;
#X connect 11 0 8 1;
#X connect 12 0 13 0;
#X connect 12 0 14 0;
#X connect 13 0 15 0;
#X connect 13 0 71 0;
#X connect 14 0 19 0;
#X connect 15 0 20 0;
#X connect 16 0 10 0;
#X connect 17 0 18 0;
#X connect 18 0 4 1;
#X connect 19 0 9 0;
#X connect 20 0 11 0;
#X connect 21 0 39 0;
#X connect 22 0 40 0;
#X connect 23 0 38 0;
#X connect 24 0 90 0;
#X connect 25 0 89 0;
#X connect 26 0 88 0;
#X connect 27 0 5 0;
#X connect 27 1 28 0;
#X connect 27 2 16 0;
#X connect 28 0 86 0;
#X connect 28 0 66 0;
#X connect 29 0 84 0;
#X connect 30 0 24 0;
#X connect 31 0 25 0;
#X connect 32 0 26 0;
#X connect 33 0 34 0;
#X connect 34 0 27 0;
#X connect 36 0 23 1;
#X connect 36 0 22 1;
#X connect 36 0 21 1;
#X connect 36 0 74 1;
#X connect 37 0 43 0;
#X connect 38 0 50 0;
#X connect 39 0 51 0;
#X connect 40 0 52 0;
#X connect 41 0 38 1;
#X connect 41 0 40 1;
#X connect 41 0 39 1;
#X connect 41 0 77 1;
#X connect 41 0 93 0;
#X connect 42 0 29 0;
#X connect 43 0 36 0;
#X connect 44 0 45 0;
#X connect 45 0 30 0;
#X connect 45 0 98 0;
#X connect 46 0 47 0;
#X connect 47 0 31 0;
#X connect 47 0 98 0;
#X connect 48 0 49 0;
#X connect 49 0 32 0;
#X connect 49 0 98 0;
#X connect 50 0 45 0;
#X connect 50 1 44 0;
#X connect 51 0 47 0;
#X connect 51 1 46 0;
#X connect 52 0 49 0;
#X connect 52 1 48 0;
#X connect 53 0 54 0;
#X connect 54 0 55 0;
#X connect 55 0 56 0;
#X connect 55 1 57 0;
#X connect 56 0 58 0;
#X connect 57 0 59 0;
#X connect 58 0 86 0;
#X connect 59 0 86 0;
#X connect 60 0 61 0;
#X connect 61 0 62 0;
#X connect 61 1 63 0;
#X connect 62 0 67 0;
#X connect 63 0 64 0;
#X connect 64 0 68 0;
#X connect 65 0 67 0;
#X connect 66 0 29 0;
#X connect 67 0 29 0;
#X connect 67 0 68 0;
#X connect 68 0 66 1;
#X connect 69 0 74 0;
#X connect 69 0 81 3;
#X connect 70 0 69 1;
#X connect 71 0 72 0;
#X connect 72 0 73 0;
#X connect 73 0 70 0;
#X connect 74 0 77 0;
#X connect 75 0 87 0;
#X connect 76 0 75 0;
#X connect 77 0 80 0;
#X connect 78 0 79 0;
#X connect 79 0 76 0;
#X connect 79 0 98 0;
#X connect 80 0 79 0;
#X connect 80 1 78 0;
#X connect 81 0 82 0;
#X connect 81 0 83 0;
#X connect 84 0 92 0;
#X connect 86 0 84 0;
#X connect 87 0 85 0;
#X connect 88 0 85 0;
#X connect 89 0 85 0;
#X connect 90 0 85 0;
#X connect 91 0 87 1;
#X connect 91 0 90 1;
#X connect 91 0 89 1;
#X connect 91 0 88 1;
#X connect 92 0 91 0;
#X connect 94 0 95 1;
#X connect 96 0 95 2;
#X connect 97 0 95 0;
#X connect 97 1 94 0;
#X connect 97 2 96 0;
#X connect 98 0 99 0;
#X connect 99 0 97 0;
#X connect 100 0 99 1;
#X connect 101 0 102 0;
#X connect 102 0 50 1;
#X connect 102 0 80 1;
#X connect 102 0 52 1;
#X connect 102 0 51 1;
#X restore -3 239 pd chordOnDegree7th;
#X obj 86 324 vsl 14 62 0 0.6 0 0 empty empty empty 0 -9 0 10 -262144
-1 -1 0 1;
#X floatatom 86 399 5 0 0 0 - - -, f 5;
#X obj 16 340 *~ 0.2;
#X obj 1033 40 route random randomOnScale;
#X obj 913 189 demux . . .;
#X obj 989 132 hradio 15 0 0 3 empty empty empty 0 -8 0 10 -262144
-1 -1 0;
#X msg 1052 76 2;
#X obj 956 -51 random 7;
#X obj 956 -80 bng 15 250 50 0 empty empty empty 17 7 0 10 -262144
-1 -1;
#X msg 1215 -16 randomOnScale;
#X msg 221 -66 names ionian dorian phrygian lydian mixolydian aeolian
locrian;
#X connect 0 0 1 0;
#X connect 1 0 2 0;
#X connect 2 1 3 0;
#X connect 3 0 4 1;
#X connect 3 0 5 1;
#X connect 3 0 12 1;
#X connect 3 0 85 1;
#X connect 5 0 78 0;
#X connect 5 1 7 0;
#X connect 6 0 4 0;
#X connect 7 0 81 0;
#X connect 8 0 9 0;
#X connect 9 0 26 0;
#X connect 10 0 12 0;
#X connect 10 1 13 1;
#X connect 11 0 15 0;
#X connect 12 0 13 0;
#X connect 13 0 11 0;
#X connect 14 0 9 0;
#X connect 15 0 14 0;
#X connect 16 0 17 0;
#X connect 17 0 18 0;
#X connect 18 0 15 1;
#X connect 18 0 28 0;
#X connect 20 0 8 0;
#X connect 21 0 16 0;
#X connect 23 0 24 0;
#X connect 24 0 5 0;
#X connect 24 0 10 0;
#X connect 24 0 73 0;
#X connect 24 0 85 0;
#X connect 29 0 5 2;
#X connect 30 0 29 0;
#X connect 30 0 77 0;
#X connect 31 0 32 0;
#X connect 32 0 38 0;
#X connect 33 0 35 0;
#X connect 34 0 36 0;
#X connect 35 0 34 1;
#X connect 36 0 32 1;
#X connect 37 0 31 0;
#X connect 37 1 34 0;
#X connect 38 0 51 0;
#X connect 39 0 89 0;
#X connect 40 0 45 0;
#X connect 41 0 42 0;
#X connect 42 0 45 1;
#X connect 45 0 48 0;
#X connect 46 0 45 0;
#X connect 47 0 90 0;
#X connect 48 0 47 0;
#X connect 49 0 70 0;
#X connect 50 0 96 0;
#X connect 51 0 23 0;
#X connect 52 0 31 1;
#X connect 53 0 17 0;
#X connect 53 0 55 0;
#X connect 54 0 74 0;
#X connect 57 0 56 0;
#X connect 57 0 0 0;
#X connect 58 0 91 0;
#X connect 59 0 91 0;
#X connect 60 0 89 0;
#X connect 62 0 63 0;
#X connect 63 0 64 0;
#X connect 63 0 65 0;
#X connect 64 0 17 0;
#X connect 65 0 0 0;
#X connect 66 0 67 0;
#X connect 67 0 89 0;
#X connect 68 0 69 0;
#X connect 69 0 30 0;
#X connect 70 0 42 0;
#X connect 73 0 71 0;
#X connect 74 0 23 0;
#X connect 74 1 53 0;
#X connect 74 2 57 0;
#X connect 74 3 75 0;
#X connect 75 0 23 0;
#X connect 76 0 81 1;
#X connect 77 0 85 2;
#X connect 78 0 88 0;
#X connect 79 0 78 0;
#X connect 81 0 82 0;
#X connect 82 0 25 0;
#X connect 83 0 81 2;
#X connect 85 0 78 1;
#X connect 85 1 76 0;
#X connect 86 0 87 0;
#X connect 86 0 88 1;
#X connect 88 0 80 0;
#X connect 88 0 80 1;
#X connect 89 0 52 0;
#X connect 89 0 58 0;
#X connect 89 1 92 0;
#X connect 89 2 33 0;
#X connect 89 2 59 0;
#X connect 89 2 31 1;
#X connect 90 0 37 0;
#X connect 90 1 54 0;
#X connect 90 2 94 0;
#X connect 91 0 90 1;
#X connect 92 0 91 0;
#X connect 93 0 23 0;
#X connect 94 0 93 0;
#X connect 95 0 89 0;
#X connect 96 0 0 0;
#X coords 0 -1 1 1 227 163 2 591 86;
