#N canvas 0 0 1888 970 10;
#N canvas -1928 4 1904 986 recording 0;
#X obj 982 604 samplerate~;
#X obj 982 632 +;
#X obj 981 580 metro 999;
#X obj 981 558 tgl 15 0 empty empty empty 17 7 0 10 -262144 -1 -1 0
1;
#X obj 1020 632 int 0;
#X msg 887 541 0;
#X obj 942 508 tabwrite~ \$0-recording;
#X obj 762 491 adc~;
#X obj 982 702 s \$0-recording;
#X msg 982 673 resize \$1;
#X msg 1059 673 const 0;
#X obj 942 467 t b 1 0 b, f 20;
#X obj 350 296 tgl 35 0 empty empty start\ recording 38 2 0 14 -199729
-1 -1 0 1;
#X obj 887 360 route 0 1, f 19;
#X obj 887 384 bng 15 250 50 0 empty empty empty 17 7 0 10 -262144
-1 -1;
#X obj 942 384 bng 15 250 50 0 empty empty empty 17 7 0 10 -262144
-1 -1;
#X floatatom 1371 476 16 0 0 0 - - -, f 16;
#X obj 1283 665 phasor~;
#X obj 1371 530 expr (44100 / $f1);
#X floatatom 1371 555 16 0 0 0 - - -, f 16;
#X obj 1283 725 *~;
#X obj 1452 708 sig~;
#X obj 1371 500 t f f, f 14;
#X obj 1283 776 *~ 0.2;
#X obj 1234 489 tgl 25 0 empty \$0-playRecording play/pause 43 17 0
10 -4033 -1 -1 0 1;
#X obj 1234 570 float;
#X obj 1234 540 t b f, f 12;
#X obj 1283 587 *, f 4;
#X floatatom 1283 611 15 0 0 0 - - -, f 15;
#X obj 1207 348 bng 25 250 50 0 empty \$0-stopRcording empty 58 21
0 10 -258049 -1 -1;
#X msg 1207 388 0;
#X obj 1207 423 t f f;
#X obj 1283 635 sig~ 0;
#X obj 1336 648 r \$0-playbackStart;
#X obj 1207 446 s \$0-playbackStart;
#X obj 1282 750 tabread4~ \$0-recording;
#X obj 1274 807 dac~;
#X obj 1371 446 arraysize \$0-recording;
#X obj 1371 421 bng 15 250 50 0 empty empty empty 17 7 0 10 -262144
-1 -1;
#X obj 887 404 t b b;
#X obj 887 331 t f b;
#X obj 435 262 table \$0-recording;
#X obj 351 339 bng 25 250 50 0 empty empty save\ file 27 12 0 10 -199729
-1 -1;
#X obj 636 337 bng 25 250 50 0 \$0-stopRcording empty stop -27 7 0
10 -258049 -1 -1;
#X obj 626 297 tgl 35 0 \$0-playRecording empty play/pause -88 1 0
14 -4033 -1 -1 0 1;
#N canvas 0 0 1888 970 saveRecordingFile 0;
#X obj 582 72 inlet;
#X obj 507 478 soundfiler;
#X obj 612 150 date, f 16;
#X floatatom 612 175 5 0 0 0 - - -, f 5;
#X floatatom 648 175 5 0 0 0 - - -, f 5;
#X floatatom 682 175 5 0 0 0 - - -, f 5;
#X obj 716 150 time, f 16;
#X floatatom 716 175 5 0 0 0 - - -, f 5;
#X floatatom 750 175 5 0 0 0 - - -, f 5;
#X floatatom 784 175 5 0 0 0 - - -, f 5;
#X obj 612 123 t b b;
#X obj 582 108 bng 15 250 50 0 empty empty empty 17 7 0 10 -262144
-1 -1;
#X obj 612 207 pack f f f f f f;
#X obj 612 232 list prepend recording;
#X obj 612 275 list trim;
#X obj 612 300 l2s _;
#X obj 612 253 list append .wav;
#X obj 507 426 symbol, f 18;
#X obj 507 367 t b b b, f 13;
#X obj 612 350 list trim;
#X obj 612 375 l2s /;
#X symbolatom 612 400 63 0 0 0 - - -, f 63;
#X obj 612 325 list prepend C:/Users/Michi/Desktop;
#X msg 508 449 write -wave \$1 \$0-recording, f 122;
#X connect 0 0 11 0;
#X connect 2 0 3 0;
#X connect 2 1 4 0;
#X connect 2 2 5 0;
#X connect 3 0 12 0;
#X connect 4 0 12 1;
#X connect 5 0 12 2;
#X connect 6 0 7 0;
#X connect 6 1 8 0;
#X connect 6 2 9 0;
#X connect 7 0 12 3;
#X connect 8 0 12 4;
#X connect 9 0 12 5;
#X connect 10 0 2 0;
#X connect 10 1 6 0;
#X connect 11 0 10 0;
#X connect 12 0 13 0;
#X connect 13 0 16 0;
#X connect 14 0 15 0;
#X connect 15 0 22 0;
#X connect 16 0 14 0;
#X connect 17 0 23 0;
#X connect 18 0 17 0;
#X connect 18 2 11 0;
#X connect 19 0 20 0;
#X connect 20 0 21 0;
#X connect 21 0 17 1;
#X connect 22 0 19 0;
#X connect 23 0 1 0;
#X restore 351 438 pd saveRecordingFile;
#X obj 672 297 vsl 23 50 0 1 0 0 empty empty volume -3 60 0 8 -262144
-1 -1 980 1;
#X obj 672 438 s \$0-volume;
#X obj 1336 774 r \$0-volume;
#X obj 672 242 loadbang;
#X msg 672 267 0.2;
#X obj 831 635 s \$0-recording;
#X msg 831 609 normalize 0.9;
#X obj 831 584 del 999;
#X obj 353 372 clock;
#X obj 159 395 tgl 15 0 empty empty empty 17 7 0 10 -262144 -1 -1 0
1;
#X obj 241 395 bng 15 250 50 0 empty empty empty 17 7 0 10 -262144
-1 -1;
#X obj 159 331 route 0 1, f 19;
#X obj 214 352 t f b;
#X msg 178 369 1;
#X text 434 374 time recorded;
#X connect 0 0 1 0;
#X connect 1 0 9 0;
#X connect 1 0 4 0;
#X connect 2 0 0 0;
#X connect 3 0 2 0;
#X connect 4 0 1 1;
#X connect 5 0 3 0;
#X connect 5 0 53 0;
#X connect 7 0 6 0;
#X connect 7 1 6 0;
#X connect 9 0 8 0;
#X connect 10 0 8 0;
#X connect 11 0 6 0;
#X connect 11 1 3 0;
#X connect 11 2 4 0;
#X connect 11 3 10 0;
#X connect 12 0 40 0;
#X connect 12 0 57 0;
#X connect 13 0 14 0;
#X connect 13 1 15 0;
#X connect 14 0 39 0;
#X connect 15 0 11 0;
#X connect 16 0 22 0;
#X connect 17 0 20 0;
#X connect 18 0 19 0;
#X connect 19 0 25 1;
#X connect 20 0 35 0;
#X connect 21 0 20 1;
#X connect 22 0 18 0;
#X connect 22 1 21 0;
#X connect 23 0 36 0;
#X connect 23 0 36 1;
#X connect 24 0 26 0;
#X connect 25 0 27 0;
#X connect 26 0 25 0;
#X connect 26 1 27 1;
#X connect 27 0 28 0;
#X connect 28 0 32 0;
#X connect 29 0 30 0;
#X connect 30 0 31 0;
#X connect 30 0 44 0;
#X connect 31 0 34 0;
#X connect 31 1 24 0;
#X connect 32 0 17 0;
#X connect 33 0 17 1;
#X connect 35 0 23 0;
#X connect 37 0 16 0;
#X connect 38 0 37 0;
#X connect 39 0 5 0;
#X connect 39 1 38 0;
#X connect 40 0 13 0;
#X connect 40 1 29 0;
#X connect 42 0 45 0;
#X connect 46 0 47 0;
#X connect 48 0 23 1;
#X connect 49 0 50 0;
#X connect 50 0 46 0;
#X connect 52 0 51 0;
#X connect 53 0 52 0;
#X connect 55 0 54 0;
#X connect 56 0 54 1;
#X connect 57 0 55 0;
#X connect 57 1 58 0;
#X connect 58 0 59 0;
#X connect 58 1 56 0;
#X connect 59 0 55 0;
#X coords 0 -1 1 1 361 114 2 346 291;
#X restore 727 198 pd recording;
