#N canvas -1928 4 1904 986 10;
#X obj 549 205 dac~;
#X obj 549 161 *~ 0.2;
#X obj 549 72 bng 29 250 50 0 empty empty empty 17 7 0 10 -262144 -1
-1;
#X msg 493 106 stop;
#X msg 165 85 Songs/lesly.wav;
#X obj 165 113 loadMusicFile \$0-test;
#X obj 549 136 tabplay~ \$0-test;
#X obj 328 113 table \$0-test;
#X connect 1 0 0 0;
#X connect 1 0 0 1;
#X connect 2 0 6 0;
#X connect 3 0 6 0;
#X connect 4 0 5 0;
#X connect 6 0 1 0;
#X connect 6 1 2 0;
