#N canvas -1920 12 1888 993 10;
#N canvas 0 0 450 300 (subpatch) 0;
#X array \$0-BPMhistory 1 float 0 black black;
#X coords 0 70 1 64 300 200 1;
#X restore 1211 -5800 graph;
#X obj 1721 -5887 date;
#X obj 1721 -5913 bng 15 250 50 0 empty empty empty 17 7 0 10 -262144
-1 -1;
#X floatatom 1721 -5839 5 0 0 0 - - -, f 5;
#X obj 1721 -5815 * 365;
#X floatatom 1783 -5839 5 0 0 0 - - -, f 5;
#X obj 1721 -5767 +;
#X floatatom 1721 -5742 6 0 0 0 - - -, f 6;
#N canvas 0 0 450 300 (subpatch) 0;
#X array array2 100 float 3 black black;
#A 0 0 0 0 0 0 0 0 0 0 0 0 0 0 0 0 0 0 0 0 0 0 0 0 0 0 0 0 0 0 0 0
0 0 0 0 0 0 0 0 0 0 0 0 0 0 0 0 0 0 0 0 0 0 0 0 0 0 0 0 0 0 0 0 0 0
0 0 0 0 0 0 0 0 0 0 0 0 0 0 0 0 0 0 0 0 0 0 0 0 0 0 0 0 0 0 0 0 0 0
0;
#X coords 0 1 100 -1 200 140 1;
#X restore 30 30 graph;
#X obj 1743 -5913 loadbang;
#X obj 1608 -5828 s \$0-currentBPM;
#X obj 1721 -5718 s \$0-currentDay;
#N canvas -1928 4 1904 986 putIntoArray 0;
#X obj 309 328 unpack;
#X msg 89 444 const 0;
#X msg 159 435 resize \$1;
#X obj 159 383 float;
#X obj 202 269 del 0;
#X obj 567 420 min;
#X obj 567 472 i;
#X floatatom 567 398 5 0 0 0 - - -, f 5;
#X obj 640 472 i;
#X floatatom 640 398 5 0 0 0 - - -, f 5;
#X obj 640 420 max;
#X msg 603 403 1000;
#X msg 684 403 0;
#X obj 600 345 bng 15 250 50 0 empty empty empty 17 7 0 10 -262144
-1 -1;
#X obj 241 489 float;
#X obj 619 531 pack;
#X msg 646 584 bounds 0 \$2 5000 \$1;
#X msg 326 277 resize 5000;
#X obj 202 294 t b b b;
#X obj 292 252 t b l b b;
#N canvas -8 -8 1904 1009 interpolate 0;
#X obj 224 179 until;
#X floatatom 224 85 5 0 0 0 - - -, f 5;
#X obj 224 204 counter;
#X obj 224 282 moses 1;
#X obj 225 345 float;
#X obj 312 345 float;
#X obj 224 229 t f f, f 19;
#X obj 224 307 t b b, f 15;
#X obj 224 32 inlet;
#X obj 192 43 bng 15 250 50 0 empty empty empty 17 7 0 10 -262144 -1
-1;
#X obj 224 147 t f b;
#X obj 224 257 tabread \$0-BPMhistory;
#X obj 224 60 arraysize \$0-BPMhistory;
#X obj 227 401 tabwrite \$0-BPMhistory;
#X connect 0 0 2 0;
#X connect 1 0 10 0;
#X connect 2 0 6 0;
#X connect 3 0 7 0;
#X connect 3 1 4 1;
#X connect 4 0 13 0;
#X connect 5 0 13 1;
#X connect 6 0 11 0;
#X connect 6 1 5 1;
#X connect 7 0 4 0;
#X connect 7 1 5 0;
#X connect 8 0 12 0;
#X connect 9 0 12 0;
#X connect 10 0 0 0;
#X connect 10 1 2 2;
#X connect 11 0 3 0;
#X connect 12 0 1 0;
#X restore 42 311 pd interpolate;
#X obj 402 345 -;
#X obj 402 366 t f f;
#X obj 309 381 t f f f;
#X obj 417 176 t f b, f 31;
#N canvas 0 0 1888 970 splitIntoTuples 0;
#X obj 203 93 inlet;
#X obj 555 454 outlet;
#X obj 605 105 list length;
#X floatatom 605 130 5 0 0 0 - - -, f 5;
#X obj 607 302 zl nth;
#X obj 606 188 until;
#X obj 606 210 counter;
#X obj 607 154 t f b;
#X obj 606 235 t b f;
#X obj 634 260 + 1;
#X obj 607 367 s2l -;
#X obj 607 327 symbol;
#X obj 457 264 list;
#X obj 203 118 t l l;
#X connect 0 0 13 0;
#X connect 2 0 3 0;
#X connect 3 0 7 0;
#X connect 4 0 11 0;
#X connect 5 0 6 0;
#X connect 6 0 8 0;
#X connect 7 0 5 0;
#X connect 7 1 6 2;
#X connect 8 0 12 0;
#X connect 8 1 9 0;
#X connect 9 0 4 1;
#X connect 10 0 1 0;
#X connect 11 0 10 0;
#X connect 12 0 4 0;
#X connect 13 0 2 0;
#X connect 13 1 12 1;
#X restore 522 235 pd splitIntoTuples;
#X obj 159 408 + 1;
#X obj 548 89 zl nth 1;
#N canvas 0 0 1888 970 splitIntoTuples 0;
#X obj 203 93 inlet;
#X obj 555 454 outlet;
#X obj 605 105 list length;
#X floatatom 605 130 5 0 0 0 - - -, f 5;
#X obj 607 302 zl nth;
#X obj 606 188 until;
#X obj 606 210 counter;
#X obj 607 154 t f b;
#X obj 606 235 t b f;
#X obj 634 260 + 1;
#X obj 607 367 s2l -;
#X obj 607 327 symbol;
#X obj 457 264 list;
#X obj 203 118 t l l;
#X connect 0 0 13 0;
#X connect 2 0 3 0;
#X connect 3 0 7 0;
#X connect 4 0 11 0;
#X connect 5 0 6 0;
#X connect 6 0 8 0;
#X connect 7 0 5 0;
#X connect 7 1 6 2;
#X connect 8 0 12 0;
#X connect 8 1 9 0;
#X connect 9 0 4 1;
#X connect 10 0 1 0;
#X connect 11 0 10 0;
#X connect 12 0 4 0;
#X connect 13 0 2 0;
#X connect 13 1 12 1;
#X restore 548 112 pd splitIntoTuples;
#X obj 548 137 unpack f f;
#X floatatom 417 154 14 0 0 0 - - -, f 14;
#X obj 522 25 inlet;
#X floatatom 788 489 5 0 0 0 - - -, f 5;
#X floatatom 839 489 5 0 0 0 - - -, f 5;
#X obj 640 497 + 3;
#X obj 241 514 - 3;
#X obj 646 611 s \$0-BPMhistory;
#X obj 159 461 s \$0-BPMhistory;
#X obj 326 299 s \$0-BPMhistory;
#X obj 309 420 tabwrite \$0-BPMhistory, f 26;
#X msg 264 594 xticks 0 7 1;
#X msg 357 594 yticks 50 5 2;
#X obj 619 555 t l l;
#X obj 638 709 -, f 7;
#X obj 638 734 abs;
#X obj 638 759 / 5;
#X obj 638 784 i;
#X floatatom 638 809 5 0 0 0 - - -, f 5;
#X obj 794 691 bng 15 250 50 0 empty empty empty 17 7 0 10 -262144
-1 -1;
#X obj 619 649 unpack f f;
#X obj 619 674 t b f f;
#X obj 848 825 *;
#X obj 848 850 +;
#X obj 917 850 list;
#X obj 794 916 list, f 9;
#X obj 794 886 bng 15 250 50 0 empty empty empty 17 7 0 10 -262144
-1 -1;
#X obj 794 941 print;
#X obj 848 880 list prepend;
#X msg 917 825 list;
#X obj 523 61 t l l b, f 9;
#X obj 917 78 bng 15 250 50 0 empty empty empty 17 7 0 10 -262144 -1
-1;
#X obj 913 962 s \$0-BPMhistory;
#X obj 821 763 for 6;
#X msg 913 933 ylabel -1 \$1 \$2 \$3 \$4 \$5 \$6;
#X obj 794 714 t b b;
#X connect 0 0 23 0;
#X connect 0 1 21 0;
#X connect 1 0 37 0;
#X connect 2 0 37 0;
#X connect 3 0 26 0;
#X connect 4 0 18 0;
#X connect 5 0 6 0;
#X connect 6 0 5 1;
#X connect 6 0 14 1;
#X connect 6 0 32 0;
#X connect 7 0 5 0;
#X connect 8 0 10 1;
#X connect 8 0 33 0;
#X connect 8 0 34 0;
#X connect 9 0 10 0;
#X connect 10 0 8 0;
#X connect 11 0 5 1;
#X connect 12 0 10 1;
#X connect 13 0 12 0;
#X connect 13 0 11 0;
#X connect 14 0 35 0;
#X connect 15 0 42 0;
#X connect 16 0 36 0;
#X connect 17 0 38 0;
#X connect 18 0 20 0;
#X connect 18 1 3 0;
#X connect 18 2 14 0;
#X connect 19 0 4 0;
#X connect 19 1 0 0;
#X connect 19 2 17 0;
#X connect 21 0 22 0;
#X connect 22 0 39 1;
#X connect 22 1 3 1;
#X connect 23 0 39 0;
#X connect 23 1 7 0;
#X connect 23 2 9 0;
#X connect 24 0 21 1;
#X connect 24 1 13 0;
#X connect 25 0 19 0;
#X connect 26 0 2 0;
#X connect 27 0 28 0;
#X connect 28 0 29 0;
#X connect 29 1 30 0;
#X connect 30 0 24 0;
#X connect 31 0 59 0;
#X connect 34 0 15 1;
#X connect 35 0 15 0;
#X connect 40 0 36 0;
#X connect 41 0 36 0;
#X connect 42 0 49 0;
#X connect 42 1 16 0;
#X connect 43 0 44 0;
#X connect 44 0 45 0;
#X connect 45 0 46 0;
#X connect 46 0 47 0;
#X connect 47 0 51 1;
#X connect 48 0 64 0;
#X connect 49 0 50 0;
#X connect 49 1 43 1;
#X connect 50 0 48 0;
#X connect 50 1 43 0;
#X connect 50 2 52 1;
#X connect 51 0 52 0;
#X connect 52 0 57 0;
#X connect 53 0 57 1;
#X connect 54 0 56 0;
#X connect 54 0 63 0;
#X connect 55 0 54 0;
#X connect 57 0 53 0;
#X connect 57 0 54 1;
#X connect 58 0 53 0;
#X connect 59 0 25 0;
#X connect 59 1 27 0;
#X connect 59 2 60 0;
#X connect 60 0 58 0;
#X connect 62 1 51 0;
#X connect 63 0 61 0;
#X connect 64 0 55 0;
#X connect 64 1 62 0;
#X restore 353 -5637 pd putIntoArray;
#X msg 1608 -5853 75;
#N canvas 0 0 1888 970 overwriteCurrentDay 0;
#X obj 559 404 expr ($f1 == $f2);
#X obj 559 494 tgl 15 0 empty empty empty 17 7 0 10 -262144 -1 -1 0
1;
#X obj 559 443 max;
#X obj 559 468 f;
#X obj 496 517 demux . ., f 11;
#X obj 971 624 print new entry created;
#X obj 971 534 print already there;
#N canvas 0 0 1888 970 splitIntoTuples 0;
#X obj 203 93 inlet;
#X obj 555 454 outlet;
#X obj 605 105 list length;
#X floatatom 605 130 5 0 0 0 - - -, f 5;
#X obj 607 302 zl nth;
#X obj 606 188 until;
#X obj 606 210 counter;
#X obj 607 154 t f b;
#X obj 606 235 t b f;
#X obj 634 260 + 1;
#X obj 607 367 s2l -;
#X obj 607 327 symbol;
#X obj 457 264 list;
#X obj 203 118 t l l;
#X connect 0 0 13 0;
#X connect 2 0 3 0;
#X connect 3 0 7 0;
#X connect 4 0 11 0;
#X connect 5 0 6 0;
#X connect 6 0 8 0;
#X connect 7 0 5 0;
#X connect 7 1 6 2;
#X connect 8 0 12 0;
#X connect 8 1 9 0;
#X connect 9 0 4 1;
#X connect 10 0 1 0;
#X connect 11 0 10 0;
#X connect 12 0 4 0;
#X connect 13 0 2 0;
#X connect 13 1 12 1;
#X restore 559 351 pd splitIntoTuples;
#X obj 496 273 t l b;
#X msg 601 426 0;
#X obj 650 290 bng 15 250 50 0 empty empty empty 17 7 0 10 -262144
-1 -1;
#X obj 559 372 zl nth 2;
#X obj 496 322 t l l, f 11;
#X obj 497 607 list append;
#X obj 496 546 t l b b;
#X obj 646 468 r \$0-currentBPM;
#X obj 646 536 pack f f;
#X obj 691 489 r \$0-currentDay;
#X obj 646 561 l2s -;
#X obj 560 578 symbol;
#X obj 658 379 r \$0-currentDay;
#X obj 517 176 inlet;
#X obj 559 684 outlet;
#X obj 646 506 bondo;
#X obj 496 216 list;
#X obj 496 158 bng 15 250 50 0 empty empty empty 17 7 0 10 -262144
-1 -1;
#X obj 496 116 inlet;
#X connect 0 0 2 0;
#X connect 1 0 4 1;
#X connect 2 0 3 0;
#X connect 3 0 2 1;
#X connect 3 0 1 0;
#X connect 4 0 14 0;
#X connect 4 1 6 0;
#X connect 4 1 22 0;
#X connect 7 0 11 0;
#X connect 8 0 12 0;
#X connect 8 1 10 0;
#X connect 9 0 2 1;
#X connect 9 0 1 0;
#X connect 10 0 9 0;
#X connect 11 0 0 0;
#X connect 12 0 4 0;
#X connect 12 1 7 0;
#X connect 13 0 5 0;
#X connect 13 0 22 0;
#X connect 14 0 13 0;
#X connect 14 2 19 0;
#X connect 15 0 23 0;
#X connect 16 0 18 0;
#X connect 17 0 23 1;
#X connect 18 0 19 1;
#X connect 19 0 13 1;
#X connect 20 0 0 1;
#X connect 21 0 24 1;
#X connect 23 0 16 0;
#X connect 23 1 16 1;
#X connect 24 0 8 0;
#X connect 25 0 24 0;
#X connect 26 0 25 0;
#X restore 353 -5667 pd overwriteCurrentDay;
#X obj 353 -5715 bng 31 250 50 0 empty empty empty 17 7 0 10 -262144
-1 -1;
#X obj 1608 -5879 loadbang;
#X floatatom 1558 -5851 5 0 0 0 - - -, f 5;
#X msg 482 -5730 50-737501 55-737508 60-737512 61-737525, f 46;
#X msg 525 -5679 placeholder;
#X obj 525 -5654 route placeholder;
#X connect 1 0 3 0;
#X connect 1 4 5 0;
#X connect 2 0 1 0;
#X connect 3 0 4 0;
#X connect 4 0 6 0;
#X connect 5 0 6 1;
#X connect 6 0 7 0;
#X connect 7 0 11 0;
#X connect 9 0 2 0;
#X connect 13 0 10 0;
#X connect 14 0 12 0;
#X connect 15 0 14 0;
#X connect 16 0 13 0;
#X connect 17 0 10 0;
#X connect 18 0 14 1;
#X connect 19 0 20 0;
#X connect 20 0 14 1;
