#N canvas -1928 4 1904 986 10;
#N canvas 0 0 450 300 (subpatch) 0;
#X array \$0-array 27 float 1 black black;
#A 0 0.0333319 0.0523794 0.0714269 0.107141 0.142855 0.178569 0.214283
0.242854 0.271425 -0.557139 -0.514283 -0.471426 -0.407141 -0.342855
-0.242856 -0.199999 -0.157143 -0.114286 -0.071429 -0.0285723 0.0357129
0.0999981 0.142855 0.185712 0.25714 0.314282 0.242854;
#X coords 0 1 26 -1 200 140 1;
#X restore 859 180 graph;
#N canvas 0 0 450 300 (subpatch) 0;
#X array \$0-temp 27 float 1 black black;
#A 0 0.0333319 0.0523794 0.0714269 0.107141 0.142855 0.178569 0.214283
0.242854 0.271425 -0.557139 -0.514283 -0.471426 -0.407141 -0.342855
-0.242856 -0.199999 -0.157143 -0.114286 -0.071429 -0.0285723 0.0357129
0.0999981 0.142855 0.185712 0.25714 0.314282 0.242854;
#X coords 0 1 26 -1 200 140 1;
#X restore 1236 178 graph;
#X obj 860 331 hsl 195 14 0 100 0 0 empty empty empty -2 -8 0 10 -262144
-1 -1 3500 1;
#X obj 861 353 hsl 195 14 0 100 0 0 empty empty empty -2 -8 0 10 -262144
-1 -1 8900 1;
#N canvas -1928 4 1904 986 cutting_tool 1;
#X obj 766 514 arraycopy \$0-temp;
#X msg 576 309 copy \$0-array;
#X obj 766 439 list append;
#X obj 766 464 list append;
#X obj 766 489 list trim;
#X floatatom 907 532 5 0 0 0 - - -, f 5;
#X obj 907 508 arraysize;
#X obj 930 462 t b s;
#X obj 506 474 bondo, f 12;
#X obj 509 507 -, f 11;
#X floatatom 509 532 5 0 0 0 - - -, f 5;
#X msg 930 437 \$2;
#X obj 907 592 s \$0-temp;
#X msg 907 565 resize \$1;
#X obj 603 548 int;
#X obj 603 368 t b l l, f 55;
#X msg 276 442 resize \$1;
#X obj 276 408 arraysize \$0-temp;
#X obj 276 466 s \$0-array;
#X obj 156 485 arraycopy \$0-array;
#X msg 156 454 copy \$0-temp;
#X obj 156 391 t b b;
#X obj 156 351 bng 15 250 50 0 empty empty empty 17 7 0 10 -262144
-1 -1;
#X obj 576 334 t b l;
#X obj 548 401 i;
#X obj 479 401 i;
#X obj 576 280 inlet;
#X obj 479 375 inlet;
#X obj 548 377 inlet;
#X obj 479 422 t f f;
#X obj 548 447 t f f;
#X text 508 167 inlet 1: bang to cut array;
#X text 508 201 inlet 2 & 3: index from which sample x to sample y
should be cut;
#X connect 1 0 23 0;
#X connect 2 0 3 0;
#X connect 3 0 4 0;
#X connect 4 0 0 0;
#X connect 5 0 13 0;
#X connect 6 0 5 0;
#X connect 7 0 6 0;
#X connect 7 1 6 1;
#X connect 8 0 9 1;
#X connect 8 1 9 0;
#X connect 9 0 10 0;
#X connect 10 0 14 1;
#X connect 11 0 7 0;
#X connect 13 0 12 0;
#X connect 14 0 13 0;
#X connect 15 0 14 0;
#X connect 15 1 2 0;
#X connect 15 2 11 0;
#X connect 16 0 18 0;
#X connect 17 0 16 0;
#X connect 20 0 19 0;
#X connect 21 0 20 0;
#X connect 21 1 17 0;
#X connect 22 0 21 0;
#X connect 23 0 22 0;
#X connect 23 1 15 0;
#X connect 24 0 30 0;
#X connect 25 0 29 0;
#X connect 26 0 1 0;
#X connect 27 0 25 0;
#X connect 28 0 24 0;
#X connect 29 0 2 1;
#X connect 29 1 8 0;
#X connect 30 0 3 1;
#X connect 30 1 8 1;
#X restore 501 449 pd cutting_tool;
