#N canvas 0 50 1366 685 10;
#X obj 775 287 toneDuration~;
#X obj 668 77 bng 15 250 50 0 empty empty empty 17 7 0 10 -262144 -1
-1;
#X obj 357 156 dsp;
#X obj 615 295 *~;
#X obj 667 102 t b b b;
#X obj 618 187 line;
#X obj 614 214 sig~;
#X msg 739 143 set 500;
#X msg 613 139 1200 500;
#X msg 863 261 700;
#X obj 668 50 inlet;
#X text 645 23 macht geräusch beim triggern;
#X obj 864 233 loadbang;
#X obj 615 244 osc~;
#X obj 641 357 dac~;
#X connect 0 0 3 1;
#X connect 1 0 4 0;
#X connect 3 0 14 0;
#X connect 3 0 14 1;
#X connect 4 0 8 0;
#X connect 4 1 0 0;
#X connect 4 2 7 0;
#X connect 5 0 6 0;
#X connect 6 0 13 0;
#X connect 7 0 5 0;
#X connect 8 0 5 0;
#X connect 9 0 0 1;
#X connect 10 0 1 0;
#X connect 12 0 9 0;
#X connect 13 0 3 0;
