#N canvas 683 0 667 669 10;
#X msg 229 181 60000;
#X obj 229 207 /;
#X floatatom 279 181 5 0 0 0 - - -;
#X obj 229 149 t b f;
#X floatatom 229 259 5 0 0 0 - - -;
#X obj 210 81 inlet;
#X obj 229 284 outlet;
#X text 269 258 miliseconds;
#X floatatom 254 81 5 0 0 0 - - -;
#X text 253 111 incoming bpm;
#X text 291 80 debugging control;
#X text 313 180 incoming bpm;
#X obj 229 113 f \$1;
#X connect 0 0 1 0;
#X connect 1 0 4 0;
#X connect 2 0 1 1;
#X connect 3 0 0 0;
#X connect 3 1 2 0;
#X connect 4 0 6 0;
#X connect 5 0 12 0;
#X connect 8 0 12 0;
#X connect 12 0 3 0;
