#N canvas 0 50 1366 685 10;
#X obj 71 140 cnv 25 120 40 empty empty empty 20 12 0 14 -4034 -66577
0;
#X obj 318 462 cnv 40 120 40 empty empty empty 20 12 0 14 -258113 -66577
0;
#X floatatom 109 383 5 0 0 0 - - -, f 5;
#X floatatom 109 337 5 0 0 0 - - -, f 5;
#X obj 109 273 random 12;
#X obj 109 404 ==bng 1;
#X obj 289 444 bng 15 250 50 0 empty empty empty 17 7 0 10 -262144
-1 -1;
#X obj 109 233 until;
#X obj 352 333 i;
#X obj 109 316 t f f;
#X obj 109 427 t b b;
#X floatatom 352 360 5 0 0 0 - - -, f 5;
#X obj 109 151 inlet;
#X obj 352 466 outlet;
#N canvas 0 50 450 250 (subpatch) 0;
#X array exclusive 59 float 3;
#A 0 0 0 0 0 0 0 0 0 0 0 0 0 0 0 0 0 0 0 0 0 0 0 0 0 0 0 0 0 0 0 0
0 0 0 0 0 0 0 0 0 0 0 0 0 0 0 0 0 0 0 0 0 0 0 0 0 0 0 0;
#X coords 0 1 59 -1 200 140 1;
#X restore 787 463 graph;
#X obj 919 244 list split 1;
#X obj 828 364 tabwrite exclusive;
#X msg 828 314 1;
#X obj 919 297 t b f;
#X obj 919 216 list;
#X obj 919 180 until;
#X msg 919 156 100;
#X obj 1036 163 route bang;
#X obj 109 362 tabread exclusive $f1;
#X msg 109 192 500;
#X msg 565 278 \; exclusive resize \$1;
#X obj 565 136 list-minmax;
#X floatatom 565 160 5 0 0 0 - - -, f 5;
#X floatatom 639 186 5 0 0 0 - - -, f 5;
#X obj 565 215 -;
#X floatatom 565 237 5 0 0 0 - - -, f 5;
#X obj 565 180 t b f;
#X msg 1172 136 \; exclusive const 0;
#X msg 1052 480 \; exclusive xlabel -1 0 10 20 30 40 50 60 70 80;
#X obj 109 295 + 0;
#X obj 352 422 +;
#X floatatom 352 447 5 0 0 0 - - -, f 5;
#X obj 951 325 -;
#X obj 448 174 s untereGrenze;
#X obj 370 400 r untereGrenze;
#X obj 969 303 r untereGrenze;
#X obj 565 256 + 2;
#X text 1013 85 Liste als inlet mit Zahlen;
#X text 325 507 outlet: zufälige Zahlen aus der eingegangenen Liste
;
#X obj 881 71 cnv 25 120 40 empty empty empty 20 12 0 14 -4034 -66577
0;
#X obj 919 70 inlet;
#X text 72 91 Bang als Inlet Bei jedem bang wird wieder einer Zufallszahl
aus der Liste ausgegeben;
#X obj 919 119 t b l l b;
#X connect 2 0 5 0;
#X connect 3 0 23 0;
#X connect 4 0 34 0;
#X connect 5 0 10 0;
#X connect 6 0 7 1;
#X connect 7 0 4 0;
#X connect 8 0 11 0;
#X connect 9 0 3 0;
#X connect 9 1 8 1;
#X connect 10 0 8 0;
#X connect 10 1 6 0;
#X connect 11 0 35 0;
#X connect 12 0 24 0;
#X connect 15 0 18 0;
#X connect 15 1 22 0;
#X connect 17 0 16 0;
#X connect 18 0 17 0;
#X connect 18 1 37 0;
#X connect 19 0 15 0;
#X connect 20 0 19 0;
#X connect 21 0 20 0;
#X connect 22 0 20 1;
#X connect 22 1 19 1;
#X connect 23 0 2 0;
#X connect 24 0 7 0;
#X connect 26 0 27 0;
#X connect 26 1 28 0;
#X connect 27 0 31 0;
#X connect 27 0 38 0;
#X connect 28 0 29 0;
#X connect 29 0 30 0;
#X connect 30 0 41 0;
#X connect 31 0 29 0;
#X connect 31 1 29 1;
#X connect 34 0 9 0;
#X connect 35 0 36 0;
#X connect 36 0 13 0;
#X connect 37 0 16 1;
#X connect 39 0 35 1;
#X connect 40 0 37 1;
#X connect 41 0 25 0;
#X connect 41 0 4 1;
#X connect 45 0 47 0;
#X connect 47 0 21 0;
#X connect 47 1 19 1;
#X connect 47 2 26 0;
#X connect 47 3 32 0;
