#N canvas 0 50 1362 685 10;
#N canvas 0 50 450 250 (subpatch) 0;
#X array notes 2 float 3;
#A 0 91 0;
#X coords 0 120 2 40 200 140 1;
#X restore 101 239 graph;
#X obj 346 195 *~ 1;
#X obj 346 223 fiddle~ 1024 1 1 1;
#X obj 334 163 adc~;
#X floatatom 641 340 5 0 0 0 - - -, f 5;
#X obj 595 266 expr if(0<$f1 && $f1<=$f2 \, $f1 \, 0);
#X floatatom 846 233 5 0 0 0 - - -, f 5;
#X floatatom 787 424 5 0 0 0 - - -, f 5;
#X obj 846 448 bng 15 250 50 0 empty empty empty 17 7 0 10 -262144
-1 -1;
#X obj 846 392 t b f;
#X obj 805 120 inlet;
#X obj 752 476 rearray notes;
#X obj 546 476 tabwrite notes;
#X obj 531 306 != 0;
#X obj 407 257 snapshot~;
#X floatatom 407 279 5 0 0 0 - - -, f 5;
#X obj 501 242 bng 15 250 50 0 empty empty empty 17 7 0 10 -262144
-1 -1;
#X obj 407 348 spigot;
#X floatatom 407 303 5 0 0 0 - - -, f 5;
#X floatatom 407 370 5 0 0 0 - - -, f 5;
#X obj 446 323 tgl 15 0 empty empty empty 17 7 0 10 -262144 -1 -1 0
1;
#X obj 595 289 t b f f;
#X obj 641 314 - 1;
#X obj 407 440 int;
#X floatatom 407 462 5 0 0 0 - - -, f 5;
#X obj 407 419 + 0.5;
#X text 160 423 Runden der gesungenen Midi Noten;
#X text 849 101 Anzahl an Tönen--> größe des arrays;
#X obj 443 -36 f \$1;
#X obj 311 -52 loadbang;
#X obj 443 -36 f \$1;
#X obj 311 -52 loadbang;
#X obj 908 216 f \$1;
#X obj 908 160 loadbang;
#X obj 908 184 timeoffset 50;
#X msg 804 360 40 120;
#X obj 595 204 key;
#X obj 595 226 - 48;
#X floatatom 595 247 5 0 0 0 - - -, f 5;
#X connect 1 0 2 0;
#X connect 2 2 14 0;
#X connect 3 0 1 0;
#X connect 3 1 1 0;
#X connect 4 0 12 1;
#X connect 5 0 21 0;
#X connect 6 0 5 1;
#X connect 6 0 9 0;
#X connect 7 0 11 2;
#X connect 8 0 11 4;
#X connect 9 0 8 0;
#X connect 9 1 7 0;
#X connect 10 0 6 0;
#X connect 10 0 35 0;
#X connect 13 0 20 0;
#X connect 14 0 15 0;
#X connect 15 0 18 0;
#X connect 16 0 14 0;
#X connect 17 0 19 0;
#X connect 18 0 17 0;
#X connect 19 0 25 0;
#X connect 20 0 17 1;
#X connect 21 0 16 0;
#X connect 21 1 13 0;
#X connect 21 2 22 0;
#X connect 22 0 4 0;
#X connect 23 0 24 0;
#X connect 24 0 12 0;
#X connect 25 0 23 0;
#X connect 29 0 28 0;
#X connect 31 0 30 0;
#X connect 32 0 6 0;
#X connect 33 0 34 0;
#X connect 34 0 35 0;
#X connect 34 0 32 0;
#X connect 35 0 11 3;
#X connect 36 0 37 0;
#X connect 37 0 38 0;
#X connect 38 0 5 0;
