#N canvas 0 0 1362 685 10;
#X obj 636 280 t b f;
#X obj 636 319 spigot;
#X obj 636 349 bng 15 250 50 0 empty empty empty 17 7 0 10 -262144
-1 -1;
#X obj 636 214 bondo 2;
#X obj 559 101 inlet;
#X obj 675 107 inlet;
#X floatatom 559 198 5 0 0 0 - - -;
#X floatatom 675 176 5 0 0 0 - - -;
#X floatatom 559 349 5 0 0 0 - - -;
#X obj 559 319 spigot;
#X obj 636 383 outlet;
#X obj 558 383 outlet;
#X obj 559 137 t f f;
#X obj 636 249 expr if(($f1 > $f2) \, 1 \, 0);
#X obj 485 157 bng 15 250 50 0 empty empty empty 17 7 0 10 -262144
-1 -1;
#X obj 673 144 f \$1;
#X obj 789 93 loadbang;
#X connect 0 0 1 0;
#X connect 0 1 1 1;
#X connect 0 1 9 1;
#X connect 1 0 2 0;
#X connect 2 0 11 0;
#X connect 3 0 13 0;
#X connect 3 1 13 1;
#X connect 4 0 12 0;
#X connect 5 0 15 0;
#X connect 6 0 3 0;
#X connect 6 0 9 0;
#X connect 7 0 3 1;
#X connect 8 0 10 0;
#X connect 9 0 8 0;
#X connect 12 0 6 0;
#X connect 12 1 3 0;
#X connect 13 0 0 0;
#X connect 14 0 6 0;
#X connect 15 0 7 0;
#X connect 16 0 15 0;
