#N canvas 0 0 1252 613 10;
#X msg 593 45 auto 1;
#X obj 358 196 unpack;
#X floatatom 358 221 5 0 0 0 - - -, f 5;
#X floatatom 398 222 5 0 0 0 - - -, f 5;
#N canvas 0 0 450 300 (subpatch) 0;
#X array \$0-harmonics 15 float 7 #00ff00 #000000;
#A 0 0 0 0.275836 0 0 0 0.109545 0 0 0 0.0530374 0 0 0 0.0306202;
#X coords 0 1 15 0 200 250 1;
#X restore -12 54 graph;
#X msg 593 23 auto 0;
#X obj 424 34 tgl 15 0 empty empty empty 17 7 0 10 -262144 -1 -1 1
1;
#X obj 424 11 inlet;
#X obj 548 45 inlet~;
#X obj 593 2 loadbang;
#X obj 460 292 unpack;
#X floatatom 501 316 5 0 0 0 - - -, f 5;
#X obj 281 372 unpack;
#X floatatom 281 397 5 0 0 0 - - -, f 5;
#X floatatom 314 417 5 0 0 0 - - -, f 5;
#X obj 707 195 unpack;
#X floatatom 707 220 5 0 0 0 - - -, f 5;
#X floatatom 757 244 5 0 0 0 - - -, f 5;
#X obj 914 310 unpack;
#X floatatom 914 335 5 0 0 0 - - -, f 5;
#X floatatom 947 355 5 0 0 0 - - -, f 5;
#X obj 695 389 unpack;
#X floatatom 695 414 5 0 0 0 - - -, f 5;
#X floatatom 728 434 5 0 0 0 - - -, f 5;
#X obj 424 53 metro 200;
#X floatatom 1541 268 5 0 0 0 - - -, f 5;
#X obj 463 362 s k2;
#X obj 399 249 s k1;
#X obj 301 445 s k3;
#X obj 717 266 s k4;
#X obj 940 386 s k5;
#X obj 729 467 s k6;
#X obj 1542 197 r k2, f 5;
#X obj 1595 198 r k3;
#X obj 1649 199 r k4;
#X obj 1702 198 r k5;
#X obj 1756 198 r k6;
#X obj 1652 264 pow 2;
#X obj 1592 230 r k1;
#X obj 1637 287 +;
#X floatatom 1637 312 5 0 0 0 - - -, f 5;
#X obj 1541 293 sqrt;
#X obj 1637 336 sqrt;
#X floatatom 1637 361 5 0 0 0 - - -, f 5;
#X text 1342 359 k2-k6(or more) in realtion to input ampitude;
#X text 1600 383 k1-k6(or more) in realtion to input ampitude;
#N canvas 0 0 450 300 (subpatch) 0;
#X array \$0-THD 1 float 7 #ff0000 black;
#A 0 12.8503;
#X coords 0 100 1 0 20 250 1;
#X restore 204 54 graph;
#X obj 1541 455 tabwrite \$0-THD;
#X msg 1628 434 0;
#X obj 1628 413 loadbang;
#X obj 1541 408 * 100;
#X floatatom 1541 433 5 0 0 0 - - -, f 5;
#N canvas 633 0 626 643 loadArrayLayout 0;
#X msg 135 -186 \; \$0-harmonics yticks 0 0.1 1;
#X msg 135 -226 \; \$0-harmonics xticks 0.5 2 1;
#X obj 134 -254 loadbang;
#X msg 137 -146 \; \$0-harmonics ylabel -0.2 0.1 0.2 0.3 0.4 0.5 0.6
0.7 0.8 0.9;
#X msg 128 -97 \; \$0-THD yticks 0 5 2;
#X msg 116 -312 \; \$0-harmonics const 0;
#X msg 146 -13 \; \$0-THD const 0;
#X msg 130 -57 \; \$0-THD ylabel 2.2 10 20 30 40 50 60 70 80 90 100
;
#X connect 2 0 1 0;
#X connect 2 0 3 0;
#X connect 2 0 0 0;
#X connect 2 0 5 0;
#X connect 2 0 4 0;
#X connect 2 0 7 0;
#X connect 2 0 6 0;
#X restore -294 60 pd loadArrayLayout;
#X obj 293 250 s \$0-fundametal;
#N canvas 136 142 450 301 correctIndex 0;
#X obj 269 26 inlet;
#X obj 102 216 outlet;
#X floatatom 193 35 5 0 0 0 - - -, f 5;
#X obj 193 78 /;
#X floatatom 223 121 5 0 0 0 - - -, f 5;
#X obj 208 55 r \$0-fundametal;
#X obj 193 120 i;
#X obj 193 99 + 0.4999, f 10;
#X obj 223 142 * 2;
#X floatatom 191 167 5 0 0 0 - - -, f 5;
#X obj 191 142 - 2;
#X obj 190 190 t f f;
#X obj 326 152 moses 0;
#X floatatom 367 124 5 0 0 0 - - -, f 5;
#X obj 205 227 + 0;
#X msg 326 177 100;
#X msg 381 179 0;
#X floatatom 363 203 5 0 0 0 - - -, f 5;
#X connect 0 0 2 0;
#X connect 2 0 3 0;
#X connect 3 0 7 0;
#X connect 4 0 8 0;
#X connect 5 0 3 1;
#X connect 6 0 4 0;
#X connect 7 0 6 0;
#X connect 8 0 10 0;
#X connect 9 0 11 0;
#X connect 10 0 9 0;
#X connect 11 0 14 0;
#X connect 11 1 13 0;
#X connect 12 0 15 0;
#X connect 12 1 16 0;
#X connect 13 0 12 0;
#X connect 14 0 1 0;
#X connect 15 0 17 0;
#X connect 16 0 17 0;
#X connect 17 0 14 1;
#X restore 598 316 pd correctIndex;
#X floatatom 598 340 5 0 0 0 - - -, f 5;
#N canvas 136 142 450 301 correctIndex 0;
#X obj 345 -5 inlet;
#X obj 178 185 outlet;
#X floatatom 269 4 5 0 0 0 - - -, f 5;
#X obj 269 47 /;
#X floatatom 299 90 5 0 0 0 - - -, f 5;
#X obj 284 24 r \$0-fundametal;
#X obj 269 89 i;
#X obj 269 68 + 0.4999, f 10;
#X obj 299 111 * 2;
#X floatatom 267 136 5 0 0 0 - - -, f 5;
#X obj 267 111 - 2;
#X obj 266 159 t f f;
#X obj 402 121 moses 0;
#X floatatom 443 93 5 0 0 0 - - -, f 5;
#X obj 281 196 + 0;
#X msg 402 146 100;
#X msg 457 148 0;
#X floatatom 439 172 5 0 0 0 - - -, f 5;
#X connect 0 0 2 0;
#X connect 2 0 3 0;
#X connect 3 0 7 0;
#X connect 4 0 8 0;
#X connect 5 0 3 1;
#X connect 6 0 4 0;
#X connect 7 0 6 0;
#X connect 8 0 10 0;
#X connect 9 0 11 0;
#X connect 10 0 9 0;
#X connect 11 0 14 0;
#X connect 11 1 13 0;
#X connect 12 0 15 0;
#X connect 12 1 16 0;
#X connect 13 0 12 0;
#X connect 14 0 1 0;
#X connect 15 0 17 0;
#X connect 16 0 17 0;
#X connect 17 0 14 1;
#X restore 405 413 pd correctIndex;
#X floatatom 405 433 5 0 0 0 - - -, f 5;
#N canvas 136 142 450 301 correctIndex 0;
#X obj 282 8 inlet;
#X obj 115 198 outlet;
#X floatatom 206 17 5 0 0 0 - - -, f 5;
#X obj 206 60 /;
#X floatatom 236 103 5 0 0 0 - - -, f 5;
#X obj 221 37 r \$0-fundametal;
#X obj 206 102 i;
#X obj 206 81 + 0.4999, f 10;
#X obj 236 124 * 2;
#X floatatom 204 149 5 0 0 0 - - -, f 5;
#X obj 204 124 - 2;
#X obj 203 172 t f f;
#X obj 339 134 moses 0;
#X floatatom 380 106 5 0 0 0 - - -, f 5;
#X obj 218 209 + 0;
#X msg 339 159 100;
#X msg 394 161 0;
#X floatatom 376 185 5 0 0 0 - - -, f 5;
#X connect 0 0 2 0;
#X connect 2 0 3 0;
#X connect 3 0 7 0;
#X connect 4 0 8 0;
#X connect 5 0 3 1;
#X connect 6 0 4 0;
#X connect 7 0 6 0;
#X connect 8 0 10 0;
#X connect 9 0 11 0;
#X connect 10 0 9 0;
#X connect 11 0 14 0;
#X connect 11 1 13 0;
#X connect 12 0 15 0;
#X connect 12 1 16 0;
#X connect 13 0 12 0;
#X connect 14 0 1 0;
#X connect 15 0 17 0;
#X connect 16 0 17 0;
#X connect 17 0 14 1;
#X restore 891 236 pd correctIndex;
#X floatatom 891 256 5 0 0 0 - - -, f 5;
#X msg 401 118 \; \$0-harmonics const 0;
#X floatatom 460 315 5 0 0 0 - - -, f 5;
#N canvas 136 142 450 301 correctIndex 0;
#X obj 513 -18 inlet;
#X obj 346 172 outlet;
#X floatatom 437 -9 5 0 0 0 - - -, f 5;
#X obj 437 34 /;
#X floatatom 467 77 5 0 0 0 - - -, f 5;
#X obj 452 11 r \$0-fundametal;
#X obj 437 76 i;
#X obj 437 55 + 0.4999, f 10;
#X obj 467 98 * 2;
#X floatatom 435 123 5 0 0 0 - - -, f 5;
#X obj 435 98 - 2;
#X obj 434 146 t f f;
#X obj 570 108 moses 0;
#X floatatom 611 80 5 0 0 0 - - -, f 5;
#X obj 449 183 + 0;
#X msg 570 133 100;
#X msg 625 135 0;
#X floatatom 607 159 5 0 0 0 - - -, f 5;
#X connect 0 0 2 0;
#X connect 2 0 3 0;
#X connect 3 0 7 0;
#X connect 4 0 8 0;
#X connect 5 0 3 1;
#X connect 6 0 4 0;
#X connect 7 0 6 0;
#X connect 8 0 10 0;
#X connect 9 0 11 0;
#X connect 10 0 9 0;
#X connect 11 0 14 0;
#X connect 11 1 13 0;
#X connect 12 0 15 0;
#X connect 12 1 16 0;
#X connect 13 0 12 0;
#X connect 14 0 1 0;
#X connect 15 0 17 0;
#X connect 16 0 17 0;
#X connect 17 0 14 1;
#X restore 1098 351 pd correctIndex;
#X floatatom 1098 371 5 0 0 0 - - -, f 5;
#N canvas 136 142 450 301 correctIndex 0;
#X obj 270 64 inlet;
#X obj 103 254 outlet;
#X floatatom 194 73 5 0 0 0 - - -, f 5;
#X obj 194 116 /;
#X floatatom 224 159 5 0 0 0 - - -, f 5;
#X obj 209 93 r \$0-fundametal;
#X obj 194 158 i;
#X obj 194 137 + 0.4999, f 10;
#X obj 224 180 * 2;
#X floatatom 192 205 5 0 0 0 - - -, f 5;
#X obj 192 180 - 2;
#X obj 191 228 t f f;
#X obj 327 190 moses 0;
#X floatatom 368 162 5 0 0 0 - - -, f 5;
#X obj 206 265 + 0;
#X msg 327 215 100;
#X msg 382 217 0;
#X floatatom 364 241 5 0 0 0 - - -, f 5;
#X connect 0 0 2 0;
#X connect 2 0 3 0;
#X connect 3 0 7 0;
#X connect 4 0 8 0;
#X connect 5 0 3 1;
#X connect 6 0 4 0;
#X connect 7 0 6 0;
#X connect 8 0 10 0;
#X connect 9 0 11 0;
#X connect 10 0 9 0;
#X connect 11 0 14 0;
#X connect 11 1 13 0;
#X connect 12 0 15 0;
#X connect 12 1 16 0;
#X connect 13 0 12 0;
#X connect 14 0 1 0;
#X connect 15 0 17 0;
#X connect 16 0 17 0;
#X connect 17 0 14 1;
#X restore 879 431 pd correctIndex;
#X floatatom 879 451 5 0 0 0 - - -, f 5;
#X obj 1119 35 r tabwriting;
#X obj 1094 73 unpack;
#X obj 1092 122 f;
#X obj 1145 135 f;
#X obj 1092 176 tabwrite \$0-harmonics;
#X obj 1236 124 tgl 15 0 empty empty empty 17 7 0 10 -262144 -1 -1
0 1;
#X obj 1094 96 spigot;
#X msg 1233 98 0;
#X msg 1192 100 1;
#X obj 345 449 pack f f;
#X obj 345 473 s tabwriting;
#X obj 523 341 pack f f;
#X obj 523 365 s tabwriting;
#X obj 436 196 pack f f;
#X obj 436 220 s tabwriting;
#X obj 813 269 pack f f;
#X obj 812 293 s tabwriting;
#X obj 1026 393 pack f f;
#X obj 1026 416 s tabwriting;
#X obj 797 474 pack f f;
#X obj 796 498 s tabwriting;
#X obj 659 123 route 1 2 3 4 5 6 7 8;
#X obj 447 483 unpack;
#X floatatom 447 508 5 0 0 0 - - -, f 5;
#X floatatom 480 528 5 0 0 0 - - -, f 5;
#N canvas 136 142 450 301 correctIndex 0;
#X obj 345 -5 inlet;
#X obj 178 185 outlet;
#X floatatom 269 4 5 0 0 0 - - -, f 5;
#X obj 269 47 /;
#X floatatom 299 90 5 0 0 0 - - -, f 5;
#X obj 284 24 r \$0-fundametal;
#X obj 269 89 i;
#X obj 269 68 + 0.4999, f 10;
#X obj 299 111 * 2;
#X floatatom 267 136 5 0 0 0 - - -, f 5;
#X obj 267 111 - 2;
#X obj 266 159 t f f;
#X obj 402 121 moses 0;
#X floatatom 443 93 5 0 0 0 - - -, f 5;
#X obj 281 196 + 0;
#X msg 402 146 100;
#X msg 457 148 0;
#X floatatom 439 172 5 0 0 0 - - -, f 5;
#X connect 0 0 2 0;
#X connect 2 0 3 0;
#X connect 3 0 7 0;
#X connect 4 0 8 0;
#X connect 5 0 3 1;
#X connect 6 0 4 0;
#X connect 7 0 6 0;
#X connect 8 0 10 0;
#X connect 9 0 11 0;
#X connect 10 0 9 0;
#X connect 11 0 14 0;
#X connect 11 1 13 0;
#X connect 12 0 15 0;
#X connect 12 1 16 0;
#X connect 13 0 12 0;
#X connect 14 0 1 0;
#X connect 15 0 17 0;
#X connect 16 0 17 0;
#X connect 17 0 14 1;
#X restore 571 524 pd correctIndex;
#X floatatom 571 544 5 0 0 0 - - -, f 5;
#X obj 511 560 pack f f;
#X obj 511 584 s tabwriting;
#X obj 467 556 s k7;
#X obj 920 524 unpack;
#X floatatom 920 549 5 0 0 0 - - -, f 5;
#X floatatom 953 569 5 0 0 0 - - -, f 5;
#N canvas 136 142 450 301 correctIndex 0;
#X obj 345 -5 inlet;
#X obj 178 185 outlet;
#X floatatom 269 4 5 0 0 0 - - -, f 5;
#X obj 269 47 /;
#X floatatom 299 90 5 0 0 0 - - -, f 5;
#X obj 284 24 r \$0-fundametal;
#X obj 269 89 i;
#X obj 269 68 + 0.4999, f 10;
#X obj 299 111 * 2;
#X floatatom 267 136 5 0 0 0 - - -, f 5;
#X obj 267 111 - 2;
#X obj 266 159 t f f;
#X obj 402 121 moses 0;
#X floatatom 443 93 5 0 0 0 - - -, f 5;
#X obj 281 196 + 0;
#X msg 402 146 100;
#X msg 457 148 0;
#X floatatom 439 172 5 0 0 0 - - -, f 5;
#X connect 0 0 2 0;
#X connect 2 0 3 0;
#X connect 3 0 7 0;
#X connect 4 0 8 0;
#X connect 5 0 3 1;
#X connect 6 0 4 0;
#X connect 7 0 6 0;
#X connect 8 0 10 0;
#X connect 9 0 11 0;
#X connect 10 0 9 0;
#X connect 11 0 14 0;
#X connect 11 1 13 0;
#X connect 12 0 15 0;
#X connect 12 1 16 0;
#X connect 13 0 12 0;
#X connect 14 0 1 0;
#X connect 15 0 17 0;
#X connect 16 0 17 0;
#X connect 17 0 14 1;
#X restore 1044 565 pd correctIndex;
#X floatatom 1044 585 5 0 0 0 - - -, f 5;
#X obj 984 601 pack f f;
#X obj 984 625 s tabwriting;
#X obj 940 597 s k8;
#X obj 1194 74 moses 15;
#X obj 548 90 fiddle~ 2048 1 20 8;
#X obj 1542 221 expr pow($f1 \, 2) + pow($f2 \, 2) + pow($f3 \, 2)
+ pow($f4 \, 2) + pow($f5 \, 2) + pow($f6 \, 2)+ pow($f7 \, 2), f
54;
#X obj 1809 199 r k7;
#X obj 1863 198 r k8;
#X obj 1541 337 / 1;
#X text -266 169 amplitude of sinus input (1 is max);
#X obj 1535 53 inlet;
#X obj 424 75 t b b b;
#X obj -38 388 arraycopy temp_harmonics;
#X msg -38 367 copy \$0-harmonics;
#X msg 133 359 copy \$0-THD;
#X obj 133 380 arraycopy temp_THD;
#X msg 309 215 100;
#N canvas 136 142 450 301 correctIndex 0;
#X obj 269 26 inlet;
#X obj 102 216 outlet;
#X floatatom 193 35 5 0 0 0 - - -, f 5;
#X obj 193 78 /;
#X floatatom 223 121 5 0 0 0 - - -, f 5;
#X obj 208 55 r \$0-fundametal;
#X obj 193 120 i;
#X obj 193 99 + 0.4999, f 10;
#X obj 223 142 * 2;
#X floatatom 191 167 5 0 0 0 - - -, f 5;
#X obj 191 142 - 2;
#X obj 190 190 t f f;
#X obj 326 152 moses 0;
#X floatatom 367 124 5 0 0 0 - - -, f 5;
#X obj 205 227 + 0;
#X msg 326 177 100;
#X msg 381 179 0;
#X floatatom 363 203 5 0 0 0 - - -, f 5;
#X connect 0 0 2 0;
#X connect 2 0 3 0;
#X connect 3 0 7 0;
#X connect 4 0 8 0;
#X connect 5 0 3 1;
#X connect 6 0 4 0;
#X connect 7 0 6 0;
#X connect 8 0 10 0;
#X connect 9 0 11 0;
#X connect 10 0 9 0;
#X connect 11 0 14 0;
#X connect 11 1 13 0;
#X connect 12 0 15 0;
#X connect 12 1 16 0;
#X connect 13 0 12 0;
#X connect 14 0 1 0;
#X connect 15 0 17 0;
#X connect 16 0 17 0;
#X connect 17 0 14 1;
#X restore 560 183 pd correctIndex;
#X text 253 8 toggle to start calculating;
#X text 649 39 audio signal (sine wave);
#X text 1305 56 inpute level (factor from 0 - 1);
#X obj 874 26 inlet;
#X floatatom 874 51 5 0 0 0 - - -, f 5;
#X obj 310 191 loadbang;
#X connect 0 0 105 0;
#X connect 1 0 2 0;
#X connect 1 1 3 0;
#X connect 2 0 118 0;
#X connect 3 0 27 0;
#X connect 3 0 79 0;
#X connect 5 0 105 0;
#X connect 6 0 24 0;
#X connect 7 0 6 0;
#X connect 8 0 105 0;
#X connect 9 0 5 0;
#X connect 10 0 61 0;
#X connect 10 1 11 0;
#X connect 11 0 26 0;
#X connect 11 0 77 0;
#X connect 12 0 13 0;
#X connect 12 1 14 0;
#X connect 13 0 56 0;
#X connect 14 0 28 0;
#X connect 14 0 75 0;
#X connect 15 0 16 0;
#X connect 15 1 17 0;
#X connect 16 0 58 0;
#X connect 17 0 29 0;
#X connect 17 0 81 0;
#X connect 18 0 19 0;
#X connect 18 1 20 0;
#X connect 19 0 62 0;
#X connect 20 0 30 0;
#X connect 20 0 83 0;
#X connect 21 0 22 0;
#X connect 21 1 23 0;
#X connect 22 0 64 0;
#X connect 23 0 31 0;
#X connect 23 0 85 0;
#X connect 24 0 112 0;
#X connect 25 0 41 0;
#X connect 32 0 106 0;
#X connect 33 0 106 1;
#X connect 34 0 106 2;
#X connect 35 0 106 3;
#X connect 36 0 106 4;
#X connect 37 0 39 1;
#X connect 38 0 37 0;
#X connect 39 0 40 0;
#X connect 40 0 42 0;
#X connect 41 0 109 0;
#X connect 42 0 43 0;
#X connect 48 0 47 1;
#X connect 49 0 48 0;
#X connect 50 0 51 0;
#X connect 51 0 47 0;
#X connect 54 0 55 0;
#X connect 55 0 77 1;
#X connect 56 0 57 0;
#X connect 57 0 75 1;
#X connect 58 0 59 0;
#X connect 59 0 81 1;
#X connect 61 0 54 0;
#X connect 62 0 63 0;
#X connect 63 0 83 1;
#X connect 64 0 65 0;
#X connect 65 0 85 1;
#X connect 66 0 67 0;
#X connect 67 0 72 0;
#X connect 67 1 69 0;
#X connect 67 1 104 0;
#X connect 68 0 70 0;
#X connect 69 0 70 1;
#X connect 71 0 72 1;
#X connect 72 0 68 0;
#X connect 73 0 71 0;
#X connect 74 0 71 0;
#X connect 75 0 76 0;
#X connect 77 0 78 0;
#X connect 79 0 80 0;
#X connect 81 0 82 0;
#X connect 83 0 84 0;
#X connect 85 0 86 0;
#X connect 87 0 1 0;
#X connect 87 1 10 0;
#X connect 87 2 12 0;
#X connect 87 3 15 0;
#X connect 87 4 18 0;
#X connect 87 5 21 0;
#X connect 87 6 88 0;
#X connect 87 7 96 0;
#X connect 88 0 89 0;
#X connect 88 1 90 0;
#X connect 89 0 91 0;
#X connect 90 0 93 0;
#X connect 90 0 95 0;
#X connect 91 0 92 0;
#X connect 92 0 93 1;
#X connect 93 0 94 0;
#X connect 96 0 97 0;
#X connect 96 1 98 0;
#X connect 97 0 99 0;
#X connect 98 0 101 0;
#X connect 98 0 103 0;
#X connect 99 0 100 0;
#X connect 100 0 101 1;
#X connect 101 0 102 0;
#X connect 104 0 74 0;
#X connect 104 1 73 0;
#X connect 105 4 87 0;
#X connect 106 0 25 0;
#X connect 106 0 39 0;
#X connect 107 0 106 5;
#X connect 108 0 106 6;
#X connect 109 0 50 0;
#X connect 111 0 109 1;
#X connect 112 0 114 0;
#X connect 112 0 115 0;
#X connect 112 1 105 0;
#X connect 112 2 60 0;
#X connect 114 0 113 0;
#X connect 115 0 116 0;
#X connect 117 0 53 0;
#X connect 118 0 79 1;
#X connect 122 0 123 0;
#X connect 123 0 53 0;
#X connect 124 0 117 0;
#X coords 0 0 1 1 306 286 0;
