#N canvas 0 0 1366 685 10;
#X obj 671 269 t b f;
#X obj 671 308 spigot;
#X obj 671 338 bng 15 250 50 0 empty empty empty 17 7 0 10 -262144
-1 -1;
#X obj 595 74 inlet;
#X obj 772 72 inlet;
#X floatatom 595 138 5 0 0 0 - - -;
#X floatatom 772 187 5 0 0 0 - - -;
#X floatatom 594 338 5 0 0 0 - - -;
#X obj 594 308 spigot;
#X obj 671 372 outlet;
#X obj 593 372 outlet;
#X obj 595 110 t f f;
#X obj 671 241 expr if(($f1 < $f2 && $f2 < $f3) \, 1 \, 0);
#X obj 671 203 bondo 3;
#X obj 690 73 inlet;
#X floatatom 690 143 5 0 0 0 - - -;
#X obj 690 111 f \$1;
#X obj 772 110 f \$2;
#X obj 751 29 loadbang;
#X connect 0 0 1 0;
#X connect 0 1 1 1;
#X connect 0 1 8 1;
#X connect 1 0 2 0;
#X connect 2 0 10 0;
#X connect 3 0 11 0;
#X connect 4 0 17 0;
#X connect 5 0 8 0;
#X connect 5 0 13 1;
#X connect 6 0 13 2;
#X connect 7 0 9 0;
#X connect 8 0 7 0;
#X connect 11 0 5 0;
#X connect 11 1 13 1;
#X connect 12 0 0 0;
#X connect 13 0 12 0;
#X connect 13 1 12 1;
#X connect 13 2 12 2;
#X connect 14 0 16 0;
#X connect 15 0 13 0;
#X connect 16 0 15 0;
#X connect 17 0 6 0;
#X connect 18 0 16 0;
#X connect 18 0 17 0;
