#N canvas 0 0 1349 665 10;
#X obj 681 574 pack f f f;
#X msg 681 597 \$1 \, \$2 \$3;
#X floatatom 661 463 5 0 0 0 - - -, f 5;
#X floatatom 736 463 5 0 0 0 - - -, f 5;
#X obj 798 435 * 1000;
#X floatatom 798 512 10 0 0 0 - - -, f 10;
#X obj 709 518 +;
#X obj 798 543 i;
#X obj 709 543 i;
#X obj 646 543 i;
#X obj 709 494 bondo;
#X obj 681 622 line;
#X floatatom 681 646 5 0 0 0 - - -, f 5;
#X obj 681 691 change;
#X floatatom 681 716 5 0 0 0 - - -, f 5;
#X obj 681 670 i;
#X obj 1015 418 * 60;
#X obj 1006 189 cnv 30 553 76 empty empty empty 20 12 0 14 -4096 -66577
0;
#X obj 372 210 cnv 30 404 58 empty empty empty 20 12 0 14 -4033 -66577
0;
#X obj 1003 310 cnv 30 400 62 empty empty empty 20 12 0 14 -4033 -66577
0;
#X obj 1015 320 inlet;
#X obj 736 216 inlet;
#X obj 1015 205 r \$0-goalInSeconds;
#X obj 1015 245 spigot;
#X obj 1079 230 tgl 15 0 empty empty empty 17 7 0 10 -262144 -1 -1
0 1;
#X obj 1151 193 loadbang;
#X msg 1151 213 0;
#X text 1214 199 if spigot is enabled \, the time in which the bpm
speed is increased is adjusted for the timer in the main patch;
#X obj 306 341 cnv 30 386 30 empty empty empty 20 12 0 14 -4033 -66577
0;
#X obj 550 420 bng 18 250 50 0 empty empty empty 17 7 0 10 -262144
-1 -1;
#X obj 318 348 inlet;
#X text 1055 325 inlet 3 (=creation argument 2): minutes in which the
bpm speed is increased gradually;
#X obj 940 334 loadbang;
#X text 376 221 inlet 2 (=creation argument 1): speed is increased
by that amount;
#X obj 813 226 loadbang;
#X floatatom 1049 418 5 0 0 0 - - -, f 5;
#X obj 736 243 i \$1;
#X obj 1015 351 i \$2;
#X obj 681 743 outlet;
#X obj 661 410 r bpm;
#X obj 778 680 loadbang;
#X obj 778 728 bng 15 250 50 0 empty empty empty 17 7 0 10 -262144
-1 -1;
#X obj 550 446 t b b;
#X obj 778 705 del 100;
#X obj 318 405 bng 15 250 50 0 empty empty empty 17 7 0 10 -262144
-1 -1;
#X obj 356 502 bng 15 250 50 0 empty empty empty 17 7 0 10 -262144
-1 -1;
#X obj 356 605 pack f f;
#X msg 481 588 0;
#X msg 481 565 loadbang;
#X obj 356 561 i;
#X floatatom 247 729 5 0 0 0 - - -, f 5;
#X floatatom 247 545 5 0 0 0 - - -, f 5;
#X text 356 348 start/stop the process with "start" or "stop" messages
;
#X obj 397 485 t b b;
#X obj 397 510 bng 15 250 50 0 empty empty empty 17 7 0 10 -262144
-1 -1;
#X obj 397 563 s resetBpm;
#X obj 597 733 s setBpm;
#X obj 318 380 route start stop reset save;
#X obj 437 433 bng 15 250 50 0 saveBpm empty empty 17 7 0 10 -262144
-1 -1;
#X msg 980 591 \$3;
#X obj 980 663 del;
#X floatatom 980 637 14 0 0 0 - - -, f 14;
#X msg 888 620 0;
#X msg 1091 654 color 79 0 2;
#X obj 1092 706 outlet;
#X msg 980 689 color 0 0 0;
#X text 1138 705 outlet shows if the metro is currently accallerated
;
#X obj 1092 726 bng 29 250 50 0 empty empty is\ active 34 13 0 12 -262144
-262144 -262144;
#X obj 318 428 s \$0-start;
#X obj 356 535 s \$0-stop;
#X obj 1091 623 r \$0-start;
#X obj 888 596 r \$0-stop;
#X msg 987 389 5;
#X floatatom 1015 462 5 0 0 0 - - -, f 5;
#N canvas 0 0 1349 665 countdown 1;
#X obj 452 262 metro 1000;
#X obj 452 295 counter;
#X msg 452 238 1;
#X floatatom 452 320 5 0 0 0 - - -, f 5;
#X obj 452 342 -;
#X obj 452 364 * -1;
#X floatatom 452 389 10 0 0 0 - - -, f 10;
#N canvas 449 182 450 326 timeConversion 0;
#X obj 178 131 inlet;
#X obj 178 156 realModulo 60;
#X floatatom 178 231 5 0 0 0 - - -, f 5;
#X floatatom 253 185 5 0 0 0 - - -, f 5;
#X obj 253 209 realModulo 60;
#X floatatom 253 231 5 0 0 0 - - -, f 5;
#X floatatom 328 231 5 0 0 0 - - -, f 5;
#X obj 253 261 outlet;
#X obj 328 261 outlet;
#X obj 178 261 outlet;
#X text 231 131 in seconds;
#X text 178 290 hours;
#X text 253 290 minutes;
#X text 328 290 seconds;
#X connect 0 0 1 0;
#X connect 1 0 2 0;
#X connect 1 1 3 0;
#X connect 2 0 8 0;
#X connect 3 0 4 0;
#X connect 4 0 5 0;
#X connect 4 1 6 0;
#X connect 5 0 7 0;
#X connect 6 0 9 0;
#X restore 452 413 pd timeConversion;
#X floatatom 501 440 5 0 0 0 - - -, f 5;
#X floatatom 551 440 5 0 0 0 - - -, f 5;
#X obj 452 190 r \$0-start;
#X obj 452 215 t b b;
#X obj 569 195 r \$0-stop;
#X msg 569 220 0;
#X obj 569 245 t f f;
#X obj 501 495 pack f f;
#X obj 501 520 l2s :;
#X symbolatom 501 545 10 0 0 0 - - -, f 10;
#X obj 588 325 inlet;
#X obj 501 569 outlet;
#X obj 665 195 r \$0-stop2;
#X connect 0 0 1 0;
#X connect 1 0 3 0;
#X connect 2 0 0 0;
#X connect 3 0 4 0;
#X connect 4 0 5 0;
#X connect 5 0 6 0;
#X connect 6 0 7 0;
#X connect 7 1 8 0;
#X connect 7 2 9 0;
#X connect 8 0 15 0;
#X connect 9 0 15 1;
#X connect 10 0 11 0;
#X connect 11 0 2 0;
#X connect 11 1 1 2;
#X connect 12 0 13 0;
#X connect 13 0 14 0;
#X connect 14 0 9 0;
#X connect 14 0 8 0;
#X connect 14 1 0 0;
#X connect 15 0 16 0;
#X connect 16 0 17 0;
#X connect 17 0 19 0;
#X connect 18 0 4 1;
#X connect 20 0 13 0;
#X restore 1015 486 pd countdown;
#X obj 1015 511 outlet;
#X text 1074 511 countdown until the goeal is reached;
#X text 724 744 outlet 1: bpm;
#X obj 901 693 s \$0-stop2;
#X connect 0 0 1 0;
#X connect 0 0 59 0;
#X connect 1 0 11 0;
#X connect 2 0 9 1;
#X connect 2 0 10 0;
#X connect 3 0 10 1;
#X connect 4 0 5 0;
#X connect 5 0 7 0;
#X connect 6 0 8 0;
#X connect 7 0 0 2;
#X connect 8 0 0 1;
#X connect 9 0 0 0;
#X connect 10 0 6 0;
#X connect 10 1 6 1;
#X connect 11 0 12 0;
#X connect 12 0 15 0;
#X connect 13 0 14 0;
#X connect 14 0 38 0;
#X connect 14 0 50 0;
#X connect 14 0 56 0;
#X connect 15 0 13 0;
#X connect 16 0 4 0;
#X connect 16 0 73 0;
#X connect 20 0 37 0;
#X connect 21 0 36 0;
#X connect 22 0 23 0;
#X connect 23 0 4 0;
#X connect 24 0 23 1;
#X connect 25 0 26 0;
#X connect 26 0 24 0;
#X connect 29 0 42 0;
#X connect 30 0 57 0;
#X connect 32 0 37 0;
#X connect 34 0 36 0;
#X connect 36 0 3 0;
#X connect 37 0 16 0;
#X connect 37 0 35 0;
#X connect 39 0 2 0;
#X connect 40 0 43 0;
#X connect 41 0 38 0;
#X connect 42 0 9 0;
#X connect 42 1 2 0;
#X connect 43 0 41 0;
#X connect 44 0 29 0;
#X connect 44 0 68 0;
#X connect 45 0 49 0;
#X connect 45 0 69 0;
#X connect 46 0 11 0;
#X connect 47 0 46 1;
#X connect 48 0 47 0;
#X connect 49 0 46 0;
#X connect 50 0 51 0;
#X connect 51 0 49 1;
#X connect 53 0 54 0;
#X connect 53 1 45 0;
#X connect 54 0 55 0;
#X connect 57 0 44 0;
#X connect 57 1 45 0;
#X connect 57 2 53 0;
#X connect 57 3 58 0;
#X connect 59 0 61 0;
#X connect 60 0 65 0;
#X connect 60 0 78 0;
#X connect 61 0 60 0;
#X connect 62 0 61 0;
#X connect 63 0 64 0;
#X connect 63 0 67 0;
#X connect 65 0 64 0;
#X connect 65 0 67 0;
#X connect 70 0 63 0;
#X connect 71 0 62 0;
#X connect 72 0 16 0;
#X connect 73 0 74 0;
#X connect 74 0 75 0;
