#N canvas 0 0 1366 685 10;
#X obj 849 73 initbang;
#X obj 849 140 bng 15 250 50 0 empty empty empty 17 7 0 10 -262144
-1 -1;
#X obj 849 109 f \$1;
#X obj 960 92 - 1;
#X obj 914 75 bng 15 250 50 0 empty empty empty 17 7 0 10 -262144 -1
-1;
#X floatatom 1048 126 5 0 0 0 - - -;
#X obj 1053 154 t f f;
#X obj 1080 181 > 1;
#X obj 1047 205 spigot;
#X msg 937 302 obj 20 130 inlet;
#X obj 762 325 send pd-initbangInlets.pd;
#X msg 762 302 obj 200 130 outlet;
#X obj 937 326 send pd-initbangInlets.pd;
#X obj 839 233 t b b b;
#X obj 387 105 counter;
#X obj 387 76 bng 15 250 50 0 empty empty empty 17 7 0 10 -262144 -1
-1;
#X obj 387 142 * 2;
#X floatatom 387 167 5 0 0 0 - - -;
#X floatatom 387 218 5 0 0 0 - - -;
#X obj 432 234 + 1;
#X floatatom 432 259 5 0 0 0 - - -;
#X obj 387 291 pack f f;
#X msg 387 320 connect \$1 0 \$2 0;
#X obj 387 349 send pd-initbangInlets.pd;
#X obj 496 48 bng 15 250 50 0 empty empty empty 17 7 0 10 -262144 -1
-1;
#X text 515 46 reset;
#X text 610 484 28 + comment = 29 Objekte;
#X obj 387 193 + 26;
#X connect 0 0 2 0;
#X connect 1 0 13 0;
#X connect 2 0 5 0;
#X connect 2 0 1 0;
#X connect 3 0 2 1;
#X connect 3 0 4 0;
#X connect 4 0 2 0;
#X connect 5 0 6 0;
#X connect 5 0 8 0;
#X connect 6 1 7 0;
#X connect 7 0 8 1;
#X connect 8 0 3 0;
#X connect 9 0 12 0;
#X connect 11 0 10 0;
#X connect 13 0 15 0;
#X connect 13 1 11 0;
#X connect 13 2 9 0;
#X connect 14 0 16 0;
#X connect 15 0 14 0;
#X connect 16 0 17 0;
#X connect 17 0 27 0;
#X connect 18 0 19 0;
#X connect 18 0 21 0;
#X connect 19 0 20 0;
#X connect 20 0 21 1;
#X connect 21 0 22 0;
#X connect 22 0 23 0;
#X connect 24 0 14 2;
#X connect 27 0 18 0;
