#N canvas 0 50 1362 685 12;
#X obj 305 332 *~;
#X obj 140 82 random 100;
#X obj 140 109 / 100;
#X floatatom 140 134 5 0 0 0 - - -, f 5;
#X obj 282 86 random 100;
#X obj 282 113 / 100;
#X floatatom 282 138 5 0 0 0 - - -, f 5;
#X obj 447 87 random 100;
#X obj 447 114 / 100;
#X floatatom 447 139 5 0 0 0 - - -, f 5;
#X obj 565 84 random 100;
#X obj 565 111 / 100;
#X floatatom 565 136 5 0 0 0 - - -, f 5;
#X obj 702 83 random 100;
#X obj 702 110 / 100;
#X floatatom 702 135 5 0 0 0 - - -, f 5;
#X obj 837 83 random 100;
#X obj 837 110 / 100;
#X floatatom 837 135 5 0 0 0 - - -, f 5;
#X obj 975 83 random 100;
#X obj 975 110 / 100;
#X floatatom 975 135 5 0 0 0 - - -, f 5;
#X text 135 0 Grundfrequenz;
#X obj 912 15 bng 15 250 50 0 empty empty empty 0 -6 0 8 -262144 -1
-1;
#X text 859 -14 andere Farbe;
#X text 68 -104 3.2.2.1. random klangfarbe;
#X obj 57 317 hsl 128 15 0 0.125 0 0 empty empty empty -2 -8 0 10 -262144
-1 -1 1016 1;
#X obj 389 403 vsl 25 150 0 1 0 0 empty empty empty 0 -9 0 10 -4160
-262144 -1 4470 1;
#X obj 424 403 vsl 25 150 0 1 0 0 empty empty empty 0 -9 0 10 -4160
-262144 -1 2235 1;
#X obj 459 402 vsl 25 150 0 1 0 0 empty empty empty 0 -9 0 10 -4160
-262144 -1 10877 1;
#X obj 497 402 vsl 25 150 0 1 0 0 empty empty empty 0 -9 0 10 -4160
-262144 -1 6407 1;
#X obj 531 401 vsl 25 150 0 1 0 0 empty empty empty 0 -9 0 10 -4160
-262144 -1 4023 1;
#X obj 564 401 vsl 25 150 0 1 0 0 empty empty empty 0 -9 0 10 -4160
-262144 -1 14602 1;
#X obj 596 400 vsl 25 150 0 1 0 0 empty empty empty 0 -9 0 10 -4160
-262144 -1 13559 1;
#X obj 1131 82 random 100;
#X obj 1131 109 / 100;
#X floatatom 1131 134 5 0 0 0 - - -, f 5;
#X obj 1277 80 random 100;
#X obj 1277 107 / 100;
#X floatatom 1277 132 5 0 0 0 - - -, f 5;
#X obj 627 399 vsl 25 150 0 1 0 0 empty empty empty 0 -9 0 10 -4160
-262144 -1 13261 1;
#X obj 658 400 vsl 25 150 0 1 0 0 empty empty empty 0 -9 0 10 -4160
-262144 -1 10132 1;
#N canvas 0 50 450 300 (subpatch) 0;
#X array tone 9 float 1;
#A 0 0.3 0 0 0 0 0 0 0 0;
#X coords 0 1 8 0 200 140 1;
#X restore 1033 390 graph;
#X msg 475 606 \; tone 0 \$1 \$2 \$3 \$4 \$5 \$6 \$7 \$8 \$9;
#X obj 470 577 pack f f f f f f f f f;
#X msg 1173 562 \; tone resize 9;
#X msg 999 563 \; tone bounds 0 1 8 0;
#X msg 868 426 \; tone write ton1.txt;
#X msg 870 482 \; tone read ton1.txt;
#X obj 977 -5 loadbang;
#X obj 62 396 dsp;
#X obj 72 -32 inlet;
#X floatatom 72 -3 5 0 0 0 - - -, f 5;
#X obj 89 108 osc~;
#X obj 89 133 *~;
#X obj 236 84 * 2;
#X obj 236 114 osc~;
#X obj 236 139 *~;
#X obj 526 110 osc~;
#X obj 526 135 *~;
#X obj 655 114 osc~;
#X obj 655 139 *~;
#X obj 795 112 osc~;
#X obj 795 137 *~;
#X obj 928 111 osc~;
#X obj 928 136 *~;
#X obj 1075 112 osc~;
#X obj 1075 137 *~;
#X obj 1229 107 osc~;
#X obj 1229 132 *~;
#X obj 384 114 osc~;
#X obj 384 139 *~;
#X obj 393 86 * 3;
#X obj 535 82 * 4;
#X obj 664 87 * 5;
#X obj 804 84 * 6;
#X obj 937 83 * 7;
#X obj 1084 84 * 8;
#X obj 1238 79 * 9;
#X obj 304 378 outlet~;
#X obj 54 257 loadbang;
#X msg 54 287 0.01;
#X obj 744 -5 inlet;
#X text 419 -112 linker inlet: frequenz als integer;
#X text 762 -114 rechter inlet: bang für eine zufällige Klangfarbe
;
#X connect 0 0 79 0;
#X connect 1 0 2 0;
#X connect 2 0 3 0;
#X connect 3 0 27 0;
#X connect 3 0 54 1;
#X connect 4 0 5 0;
#X connect 5 0 6 0;
#X connect 6 0 28 0;
#X connect 6 0 57 1;
#X connect 7 0 8 0;
#X connect 8 0 9 0;
#X connect 9 0 29 0;
#X connect 9 0 71 1;
#X connect 10 0 11 0;
#X connect 11 0 12 0;
#X connect 12 0 30 0;
#X connect 12 0 59 1;
#X connect 13 0 14 0;
#X connect 14 0 15 0;
#X connect 15 0 31 0;
#X connect 15 0 61 1;
#X connect 16 0 17 0;
#X connect 17 0 18 0;
#X connect 18 0 32 0;
#X connect 18 0 63 1;
#X connect 19 0 20 0;
#X connect 20 0 21 0;
#X connect 21 0 33 0;
#X connect 21 0 65 1;
#X connect 23 0 1 0;
#X connect 23 0 4 0;
#X connect 23 0 7 0;
#X connect 23 0 10 0;
#X connect 23 0 13 0;
#X connect 23 0 16 0;
#X connect 23 0 19 0;
#X connect 23 0 34 0;
#X connect 23 0 37 0;
#X connect 26 0 0 1;
#X connect 27 0 44 0;
#X connect 28 0 44 1;
#X connect 29 0 44 2;
#X connect 30 0 44 3;
#X connect 31 0 44 4;
#X connect 32 0 44 5;
#X connect 33 0 44 6;
#X connect 34 0 35 0;
#X connect 35 0 36 0;
#X connect 36 0 40 0;
#X connect 36 0 67 1;
#X connect 37 0 38 0;
#X connect 38 0 39 0;
#X connect 39 0 41 0;
#X connect 39 0 69 1;
#X connect 40 0 44 7;
#X connect 41 0 44 8;
#X connect 44 0 43 0;
#X connect 49 0 23 0;
#X connect 51 0 52 0;
#X connect 52 0 53 0;
#X connect 52 0 55 0;
#X connect 52 0 72 0;
#X connect 52 0 73 0;
#X connect 52 0 74 0;
#X connect 52 0 75 0;
#X connect 52 0 76 0;
#X connect 52 0 77 0;
#X connect 52 0 78 0;
#X connect 53 0 54 0;
#X connect 54 0 0 0;
#X connect 55 0 56 0;
#X connect 56 0 57 0;
#X connect 57 0 0 0;
#X connect 58 0 59 0;
#X connect 59 0 0 0;
#X connect 60 0 61 0;
#X connect 61 0 0 0;
#X connect 62 0 63 0;
#X connect 63 0 0 0;
#X connect 64 0 65 0;
#X connect 65 0 0 0;
#X connect 66 0 67 0;
#X connect 67 0 0 0;
#X connect 68 0 69 0;
#X connect 69 0 0 0;
#X connect 70 0 71 0;
#X connect 71 0 0 0;
#X connect 72 0 70 0;
#X connect 73 0 58 0;
#X connect 74 0 60 0;
#X connect 75 0 62 0;
#X connect 76 0 64 0;
#X connect 77 0 66 0;
#X connect 78 0 68 0;
#X connect 80 0 81 0;
#X connect 81 0 26 0;
#X connect 82 0 23 0;
