#N canvas -8 -8 1366 685 10;
#X obj 412 -323 key;
#X obj 412 -295 - 101;
#X floatatom 414 -261 5 0 0 0 - - -, f 5;
#X text 189 119 Laptop Tastatur als Klaviatur FGHJKL als Tastenanschlag
;
#X obj 393 -64 bng 30 250 50 0 empty empty empty 17 7 0 10 -262144
-1 -1;
#X obj 434 -64 bng 30 250 50 0 empty empty empty 17 7 0 10 -262144
-1 -1;
#X obj 516 -64 bng 30 250 50 0 empty empty empty 17 7 0 10 -262144
-1 -1;
#X obj 558 -63 bng 30 250 50 0 empty empty empty 17 7 0 10 -262144
-1 -1;
#X obj 601 -63 bng 30 250 50 0 empty empty empty 17 7 0 10 -262144
-1 -1;
#X obj 646 -64 bng 30 250 50 0 empty empty empty 17 7 0 10 -262144
-1 -1;
#X obj 475 -64 bng 30 250 50 0 empty empty empty 17 7 0 10 -262144
-1 -1;
#X obj 454 -106 bng 30 250 50 0 empty empty empty 17 7 0 10 -1 -191407
-191407;
#X obj 412 -105 bng 30 250 50 0 empty empty empty 17 7 0 10 -1 -191407
-191407;
#X obj 621 -106 bng 30 250 50 0 empty empty empty 17 7 0 10 -1 -191407
-191407;
#X obj 573 -106 bng 30 250 50 0 empty empty empty 17 7 0 10 -1 -191407
-191407;
#X obj 530 -106 bng 30 250 50 0 empty empty empty 17 7 0 10 -1 -191407
-191407;
#X obj 415 -211 sel 19 -2 17 -3 9 8 -57;
#X obj 263 -203 sel -1 1 3 5 6;
#X text 386 -21 X C V B N M \;;
#X msg 411 5 1;
#X msg 440 39 2;
#X msg 465 12 3;
#X msg 491 38 4;
#X msg 552 31 5;
#X msg 567 2 6;
#X msg 594 34 7;
#X msg 615 6 8;
#X msg 640 36 9;
#X msg 671 9 10;
#X msg 702 36 11;
#X obj 929 196 mtof;
#X obj 72 -264 dsp;
#X floatatom 878 123 5 0 0 0 - - -, f 5;
#X floatatom 929 232 5 0 0 0 - - -, f 5;
#X msg 383 38 0;
#X obj 709 110 + 60;
#X obj 1049 -191 inlet;
#X obj 900 -191 inlet;
#X floatatom 990 3 5 0 0 0 - - -, f 5;
#X floatatom 1008 -66 5 0 0 0 - - -, f 5;
#X obj 900 -139 t b b;
#X obj 1049 -139 t b b;
#X obj 900 -167 bng 15 250 50 0 empty empty empty 17 7 0 10 -262144
-1 -1;
#X obj 1049 -167 bng 15 250 50 0 empty empty empty 17 7 0 10 -262144
-1 -1;
#X obj 990 -40 +;
#X msg 964 -67 -1;
#X msg 927 -67 1;
#X obj 990 49 * 12;
#X text 815 -224 Oktave nach oben verschieben;
#X text 1049 -212 Oktave nach unten verschieben;
#X obj 879 179 +;
#X floatatom 947 123 5 0 0 0 - - -, f 5;
#X text 482 -296 startton: eingestrichenes c;
#X floatatom 879 230 5 0 0 0 - - -, f 5;
#X obj 879 266 outlet;
#X obj 929 266 outlet;
#X text 868 290 MIDI und Frequenz;
#X connect 0 0 1 0;
#X connect 1 0 2 0;
#X connect 1 0 17 0;
#X connect 2 0 16 0;
#X connect 4 0 34 0;
#X connect 5 0 20 0;
#X connect 6 0 23 0;
#X connect 7 0 25 0;
#X connect 8 0 27 0;
#X connect 9 0 29 0;
#X connect 10 0 22 0;
#X connect 11 0 21 0;
#X connect 12 0 19 0;
#X connect 13 0 28 0;
#X connect 14 0 26 0;
#X connect 15 0 24 0;
#X connect 16 0 4 0;
#X connect 16 1 5 0;
#X connect 16 2 10 0;
#X connect 16 3 6 0;
#X connect 16 4 7 0;
#X connect 16 5 8 0;
#X connect 16 6 9 0;
#X connect 17 0 12 0;
#X connect 17 1 11 0;
#X connect 17 2 15 0;
#X connect 17 3 14 0;
#X connect 17 4 13 0;
#X connect 19 0 35 0;
#X connect 20 0 35 0;
#X connect 21 0 35 0;
#X connect 22 0 35 0;
#X connect 23 0 35 0;
#X connect 24 0 35 0;
#X connect 25 0 35 0;
#X connect 26 0 35 0;
#X connect 27 0 35 0;
#X connect 28 0 35 0;
#X connect 29 0 35 0;
#X connect 30 0 33 0;
#X connect 32 0 50 0;
#X connect 33 0 55 0;
#X connect 34 0 35 0;
#X connect 35 0 32 0;
#X connect 36 0 43 0;
#X connect 37 0 42 0;
#X connect 38 0 39 0;
#X connect 38 0 47 0;
#X connect 39 0 44 1;
#X connect 40 0 46 0;
#X connect 40 1 39 0;
#X connect 41 0 45 0;
#X connect 41 1 39 0;
#X connect 42 0 40 0;
#X connect 43 0 41 0;
#X connect 44 0 38 0;
#X connect 45 0 44 0;
#X connect 46 0 44 0;
#X connect 47 0 51 0;
#X connect 50 0 30 0;
#X connect 50 0 53 0;
#X connect 51 0 50 1;
#X connect 53 0 54 0;
