#N canvas -8 -8 1366 685 10;
#X obj 756 387 *~;
#X obj 747 461 dac~;
#X obj 824 292 bng 15 250 50 0 empty empty empty 17 7 0 10 -262144
-1 -1;
#X obj 824 261 inlet;
#X floatatom 757 294 5 0 0 0 - - -, f 5;
#X obj 757 427 *~ 0.5;
#X obj 757 320 osc~ 880;
#X obj 341 273 click~;
#X obj 331 234 bng 15 250 50 0 empty empty empty 17 7 0 10 -262144
-1 -1;
#X obj 331 317 dac~;
#X msg 417 224 set 0.2 0.3 0.5 0.6 0.8;
#X obj 824 371 toneDuration~ 50;
#X connect 0 0 5 0;
#X connect 2 0 11 0;
#X connect 3 0 2 0;
#X connect 4 0 6 0;
#X connect 5 0 1 0;
#X connect 5 0 1 1;
#X connect 6 0 0 0;
#X connect 7 0 9 0;
#X connect 7 0 9 1;
#X connect 8 0 7 0;
#X connect 10 0 7 0;
#X connect 11 0 0 1;
