#N canvas -1928 -8 1280 650 10;
#X obj 80 320 print lliste;
#X obj 542 557 cnv 30 100 30 empty empty empty 20 12 0 14 -258113 -66577
0;
#X obj 823 80 cnv 30 100 30 empty empty empty 20 12 0 14 -4034 -66577
0;
#X obj 565 269 list;
#X obj 565 293 list split 1;
#X obj 716 208 route bang;
#X obj 565 189 until;
#X floatatom 828 375 5 0 0 0 - - -, f 5;
#X obj 528 389 i;
#X obj 565 389 !=;
#X obj 565 324 t f f;
#X obj 406 555 print;
#X msg 682 11 0 1 2 3 4 5 6 7 8 9;
#X obj 486 198 bng 15 250 50 0 empty empty empty 17 7 0 10 -262144
-1 -1;
#X obj 565 410 sel 1;
#X obj 565 429 bng 15 250 50 0 empty empty empty 17 7 0 10 -262144
-1 -1;
#X obj 597 167 bng 15 250 50 0 empty empty empty 17 7 0 10 -262144
-1 -1;
#X obj 558 538 list;
#X obj 565 130 bng 15 250 50 0 empty empty empty 17 7 0 10 -262144
-1 -1;
#X obj 728 432 bng 15 250 50 0 empty empty empty 17 7 0 10 -262144
-1 -1;
#X obj 682 113 t b l b;
#X obj 529 467 list prepend;
#X obj 558 566 outlet;
#X text 791 39 Eingang: Liste von Zahlen \, zweiter Eingang: Zahl die
aus der Liste eliminiert werden soll;
#X obj 687 39 cnv 30 100 30 empty empty empty 20 12 0 14 -4034 -66577
0;
#X obj 828 87 inlet;
#X obj 691 44 inlet;
#X connect 3 0 4 0;
#X connect 4 0 10 0;
#X connect 4 1 5 0;
#X connect 5 0 16 0;
#X connect 5 1 3 1;
#X connect 6 0 3 0;
#X connect 7 0 9 1;
#X connect 8 0 21 0;
#X connect 9 0 14 0;
#X connect 10 0 9 0;
#X connect 10 1 8 1;
#X connect 12 0 20 0;
#X connect 13 0 3 0;
#X connect 14 0 15 0;
#X connect 15 0 8 0;
#X connect 16 0 6 1;
#X connect 17 0 21 1;
#X connect 17 0 22 0;
#X connect 18 0 6 0;
#X connect 19 0 21 1;
#X connect 19 0 21 0;
#X connect 20 0 18 0;
#X connect 20 1 3 1;
#X connect 20 2 19 0;
#X connect 21 0 17 0;
#X connect 25 0 7 0;
#X connect 26 0 20 0;
