#N canvas 547 50 667 669 10;
#X obj 195 31 inlet;
#X obj 195 200 outlet;
#X obj 195 79 f;
#X obj 222 78 + 1;
#X floatatom 22 96 5 0 0 0 - - -, f 5;
#X floatatom 23 184 5 0 0 0 - - -, f 5;
#X obj 195 144 % 4;
#X obj 195 167 + 1;
#X obj 326 28 inlet;
#X text 367 28 length of loop;
#X text 21 202 loop counter;
#X obj 195 53 bng 15 250 50 0 empty empty empty 17 7 0 10 -262144 -1
-1;
#X obj 326 127 f \$1;
#X floatatom 326 154 5 0 0 0 - - -, f 5;
#X obj 343 72 loadbang;
#X text 358 127 creation argument;
#X msg 22 62 0;
#X obj 22 8 bng 15 250 50 0 empty empty empty 17 7 0 10 -262144 -1
-1;
#X obj 506 -9 inlet;
#X text 481 8 rechtester Inlet dient zum resetten!;
#X text 102 14 metro inlet \, oder bang inlet;
#X connect 0 0 11 0;
#X connect 2 0 3 0;
#X connect 2 0 4 0;
#X connect 2 0 6 0;
#X connect 3 0 2 1;
#X connect 6 0 7 0;
#X connect 7 0 5 0;
#X connect 7 0 1 0;
#X connect 8 0 12 0;
#X connect 11 0 2 0;
#X connect 12 0 6 1;
#X connect 12 0 13 0;
#X connect 14 0 12 0;
#X connect 16 0 2 1;
#X connect 16 0 4 0;
#X connect 17 0 16 0;
#X connect 18 0 17 0;
