#N canvas 261 142 1366 685 10;
#X obj 634 74 inlet;
#X obj 754 393 outlet;
#X floatatom 583 165 5 0 0 0 - - -, f 5;
#X floatatom 768 190 5 0 0 0 - - -, f 5;
#X obj 768 210 i;
#X floatatom 768 232 5 0 0 0 - - -, f 5;
#X msg 539 228 0;
#X msg 551 255 2;
#X msg 568 281 4;
#X msg 579 313 5;
#X msg 595 280 7;
#X msg 611 253 9;
#X msg 626 228 11;
#X obj 768 251 * 12;
#X obj 754 341 +;
#X obj 704 280 i;
#X floatatom 754 368 5 0 0 0 - - -, f 5;
#X obj 634 131 t f f;
#X floatatom 634 105 5 0 0 0 - - -, f 5;
#X obj 834 88 counter;
#X obj 834 65 bng 15 250 50 0 empty empty empty 17 7 0 10 -262144 -1
-1;
#X text 402 57 Nummer in der Skala als Inlet;
#X text 411 77 3;
#X obj 539 202 sel 1 2 3 4 5 6 7;
#X obj 853 47 bng 15 250 50 0 empty empty empty 17 7 0 10 -262144 -1
-1;
#X obj 539 174 + 0;
#X msg 568 96 7;
#X obj 539 148 % 8;
#X obj 768 164 / 8;
#X connect 0 0 18 0;
#X connect 3 0 4 0;
#X connect 4 0 5 0;
#X connect 5 0 13 0;
#X connect 6 0 15 0;
#X connect 7 0 15 0;
#X connect 8 0 15 0;
#X connect 9 0 15 0;
#X connect 10 0 15 0;
#X connect 11 0 15 0;
#X connect 12 0 15 0;
#X connect 13 0 14 1;
#X connect 14 0 16 0;
#X connect 15 0 14 0;
#X connect 16 0 1 0;
#X connect 17 0 27 0;
#X connect 17 1 28 0;
#X connect 18 0 17 0;
#X connect 19 0 18 0;
#X connect 20 0 19 0;
#X connect 23 0 6 0;
#X connect 23 1 7 0;
#X connect 23 2 8 0;
#X connect 23 3 9 0;
#X connect 23 4 10 0;
#X connect 23 5 11 0;
#X connect 23 6 12 0;
#X connect 24 0 19 2;
#X connect 25 0 23 0;
#X connect 26 0 18 0;
#X connect 27 0 2 0;
#X connect 27 0 25 0;
#X connect 28 0 3 0;
