#N canvas -8 -8 1366 685 10;
#X obj 634 56 inlet;
#X obj 757 553 outlet;
#X floatatom 775 174 5 0 0 0 - - -, f 5;
#X obj 775 194 i;
#X floatatom 775 216 5 0 0 0 - - -, f 5;
#X msg 479 398 0;
#X msg 511 398 2;
#X msg 606 399 7;
#X obj 775 235 * 12;
#X obj 757 501 +;
#X obj 582 484 i;
#X floatatom 757 528 5 0 0 0 - - -, f 5;
#X obj 634 131 t f f;
#X floatatom 634 77 5 0 0 0 - - -, f 5;
#X obj 835 60 counter;
#X obj 835 37 bng 15 250 50 0 empty empty empty 17 7 0 10 -262144 -1
-1;
#X text 402 57 Nummer in der Skala als Inlet;
#X text 411 77 3;
#X obj 858 20 bng 15 250 50 0 empty empty empty 17 7 0 10 -262144 -1
-1;
#X obj 540 350 sel 1 2 3 4 5 6 7;
#X floatatom 582 541 5 0 0 0 - - -, f 5;
#X obj 540 174 % 7;
#X obj 540 253 + 1;
#X obj 634 100 + 0;
#X obj 775 148 / 7;
#X msg 396 337 2;
#X msg 335 334 5;
#X msg 304 334 7;
#X floatatom 576 270 5 0 0 0 - - -, f 5;
#X floatatom 494 195 5 0 0 0 - - -, f 5;
#X floatatom 540 195 5 0 0 0 - - -, f 5;
#X obj 494 174 % 7;
#X obj 494 148 moses 0;
#X obj 277 291 sel -1 -2 -3 -4 -5 -6 0;
#X obj 338 410 i;
#X floatatom 338 437 5 0 0 0 - - -, f 5;
#X obj 338 463 expr (12 - $f1) * (-1);
#X floatatom 338 487 5 0 0 0 - - -, f 5;
#X msg 434 338 12;
#X msg 541 398 3;
#X msg 573 399 5;
#X msg 640 398 8;
#X msg 673 398 10;
#X msg 236 332 10;
#X msg 274 331 8;
#X msg 365 335 3;
#X connect 0 0 13 0;
#X connect 2 0 3 0;
#X connect 3 0 4 0;
#X connect 4 0 8 0;
#X connect 5 0 10 0;
#X connect 6 0 10 0;
#X connect 7 0 10 0;
#X connect 8 0 9 1;
#X connect 9 0 11 0;
#X connect 10 0 9 0;
#X connect 10 0 20 0;
#X connect 11 0 1 0;
#X connect 12 0 32 0;
#X connect 12 1 24 0;
#X connect 13 0 23 0;
#X connect 14 0 13 0;
#X connect 15 0 14 0;
#X connect 18 0 14 2;
#X connect 19 0 5 0;
#X connect 19 1 6 0;
#X connect 19 2 39 0;
#X connect 19 3 40 0;
#X connect 19 4 7 0;
#X connect 19 5 41 0;
#X connect 19 6 42 0;
#X connect 21 0 30 0;
#X connect 22 0 19 0;
#X connect 22 0 28 0;
#X connect 23 0 12 0;
#X connect 24 0 2 0;
#X connect 25 0 34 0;
#X connect 26 0 34 0;
#X connect 27 0 34 0;
#X connect 29 0 33 0;
#X connect 30 0 22 0;
#X connect 31 0 29 0;
#X connect 32 0 31 0;
#X connect 32 1 21 0;
#X connect 33 0 43 0;
#X connect 33 1 44 0;
#X connect 33 2 27 0;
#X connect 33 3 26 0;
#X connect 33 4 45 0;
#X connect 33 5 25 0;
#X connect 33 6 38 0;
#X connect 34 0 35 0;
#X connect 35 0 36 0;
#X connect 36 0 37 0;
#X connect 37 0 9 0;
#X connect 38 0 34 0;
#X connect 39 0 10 0;
#X connect 40 0 10 0;
#X connect 41 0 10 0;
#X connect 42 0 10 0;
#X connect 43 0 34 0;
#X connect 44 0 34 0;
#X connect 45 0 34 0;
