#N canvas -8 -8 1366 685 10;
#X obj 439 77 cnv 40 250 40 empty empty empty 20 12 0 14 -4034 -66577
0;
#X obj 511 452 cnv 40 200 50 empty empty empty 20 12 0 14 -258113 -66577
0;
#N canvas 0 50 450 250 (subpatch) 0;
#X array skala 6 float 3;
#A 0 10 50 80 90 20 50;
#X coords 0 120 6 40 200 140 1 0 0;
#X restore 226 287 graph;
#X obj 873 384 zl slice 1;
#X obj 873 431 list;
#X obj 723 310 list length;
#X floatatom 723 342 5 0 0 0 - - -, f 5;
#X obj 723 390 until 3;
#X obj 700 271 t b l l;
#X obj 724 438 counter, f 14;
#X text 898 188 pd is deppad!! alles was des programm macht is werte
von einer liste ins array schreiben;
#X obj 685 572 print;
#X obj 724 475 print;
#X obj 780 514 pack f f;
#X obj 780 539 unpack;
#X obj 723 414 t b b;
#X obj 700 246 t l b;
#X obj 535 310 list length;
#X floatatom 535 336 5 0 0 0 - - -, f 5;
#X obj 535 279 list;
#X obj 706 215 list;
#X obj 739 179 bng 15 250 50 0 empty empty empty 17 7 0 10 -262144
-1 -1;
#X obj 730 117 t b l l;
#X obj 634 100 inlet;
#X text 436 78 Liste mit zahlen als inlet;
#X text 177 510 ergebnis ist ein array mit den Zahlen der liste;
#X obj 535 455 outlet;
#X obj 535 424 -1;
#X text 524 473 Nummer des letzten Array elements als outlet;
#X msg 535 362 \; skala resize \$1;
#X obj 771 574 tabwrite skala;
#X msg 449 101 10 50 80 90 20 50;
#X obj 672 144 del 100;
#X obj 740 145 del 50;
#X connect 3 0 12 0;
#X connect 3 0 13 1;
#X connect 3 1 4 1;
#X connect 4 0 3 0;
#X connect 5 0 6 0;
#X connect 6 0 7 0;
#X connect 7 0 15 0;
#X connect 8 1 5 0;
#X connect 8 2 4 1;
#X connect 9 0 12 0;
#X connect 9 0 13 0;
#X connect 13 0 14 0;
#X connect 14 0 30 1;
#X connect 14 1 30 0;
#X connect 15 0 4 0;
#X connect 15 1 9 0;
#X connect 16 0 8 0;
#X connect 16 1 9 2;
#X connect 17 0 18 0;
#X connect 18 0 29 0;
#X connect 18 0 27 0;
#X connect 19 0 17 0;
#X connect 20 0 16 0;
#X connect 21 0 20 0;
#X connect 22 0 32 0;
#X connect 22 0 33 0;
#X connect 22 1 19 0;
#X connect 23 0 22 0;
#X connect 23 0 20 1;
#X connect 27 0 26 0;
#X connect 31 0 22 0;
#X connect 31 0 20 1;
#X connect 32 0 21 0;
#X connect 33 0 21 0;
#X coords 0 0 1 1 85 60 0;
