#N canvas 600 86 508 445 10;
#X symbolatom 120 266 10 0 0 0 - - -, f 10;
#X symbolatom 175 229 10 0 0 0 - - -, f 10;
#X symbolatom 148 247 10 0 0 0 - - -, f 10;
#X obj 121 132 unpack s s s s s;
#X symbolatom 230 183 15 0 0 0 - - -, f 15;
#X symbolatom 203 208 10 0 0 0 - - -, f 10;
#X obj 66 46 inlet;
#X obj 170 287 outlet;
#X obj 222 287 outlet;
#X obj 274 287 outlet;
#X obj 329 288 outlet;
#X obj 119 286 outlet;
#X text 73 9 wandelt bis zu 5 "wörter" lange message in variable symbols
um (jeweils in einzelne) um zB irgendwo \$1 zu eretzen;
#X obj 121 97 pack s s s s s;
#X msg 120 69 maximal fünf wörter sind machbar;
#X connect 0 0 11 0;
#X connect 1 0 8 0;
#X connect 2 0 7 0;
#X connect 3 0 0 0;
#X connect 3 1 2 0;
#X connect 3 2 1 0;
#X connect 3 3 5 0;
#X connect 3 4 4 0;
#X connect 4 0 10 0;
#X connect 5 0 9 0;
#X connect 6 0 13 0;
#X connect 13 0 3 0;
#X connect 14 0 13 0;
