#N canvas -8 -8 1366 685 10;
#X obj 494 44 cnv 25 100 40 empty empty empty 20 12 0 14 -4034 -66577
0;
#X obj 468 482 cnv 40 300 40 empty empty empty 20 12 0 14 -258113 -66577
0;
#X obj 690 28 cnv 25 100 40 empty empty empty 20 12 0 14 -4034 -66577
0;
#X obj 347 48 cnv 25 100 40 empty empty empty 20 12 0 14 -4034 -66577
0;
#X obj 376 60 inlet;
#X obj 488 496 outlet;
#X obj 536 496 outlet;
#X obj 588 496 outlet;
#X obj 644 496 outlet;
#X obj 692 496 outlet;
#X obj 516 55 inlet;
#X obj 605 72 bng 15 250 50 0 empty empty empty 17 7 0 10 -262144 -1
-1;
#X obj 488 399 spigot;
#X obj 521 296 tgl 15 0 empty empty empty 17 7 0 10 -262144 -1 -1 0
1;
#X obj 569 296 tgl 15 0 empty empty empty 17 7 0 10 -262144 -1 -1 0
1;
#X obj 621 294 tgl 15 0 empty empty empty 17 7 0 10 -262144 -1 -1 0
1;
#X obj 677 295 tgl 15 0 empty empty empty 17 7 0 10 -262144 -1 -1 0
1;
#X obj 725 296 tgl 15 0 empty empty empty 17 7 0 10 -262144 -1 -1 0
1;
#X msg 637 227 0;
#X obj 605 92 t b b;
#X obj 536 399 spigot;
#X obj 588 399 spigot;
#X obj 644 399 spigot;
#X obj 692 399 spigot;
#X floatatom 376 195 5 0 0 0 - - -, f 5;
#X floatatom 488 448 5 0 0 0 - - -, f 5;
#X floatatom 536 448 5 0 0 0 - - -, f 5;
#X floatatom 588 448 5 0 0 0 - - -, f 5;
#X floatatom 644 448 5 0 0 0 - - -, f 5;
#X floatatom 692 448 5 0 0 0 - - -, f 5;
#X obj 195 155 metro 500;
#X obj 195 178 counter;
#X obj 195 136 tgl 15 0 empty empty empty 17 7 0 10 -262144 -1 -1 0
1;
#X obj 519 156 counter;
#X obj 726 38 inlet;
#X obj 521 228 sel 0 1 2 3 4;
#X obj 726 73 bng 15 250 50 0 empty empty empty 17 7 0 10 -262144 -1
-1;
#X obj 519 179 loop 5;
#X obj 521 199 - 1;
#X connect 4 0 24 0;
#X connect 10 0 11 0;
#X connect 11 0 19 0;
#X connect 12 0 25 0;
#X connect 13 0 12 1;
#X connect 14 0 20 1;
#X connect 15 0 21 1;
#X connect 16 0 22 1;
#X connect 17 0 23 1;
#X connect 18 0 13 0;
#X connect 18 0 14 0;
#X connect 18 0 15 0;
#X connect 18 0 16 0;
#X connect 18 0 17 0;
#X connect 19 0 33 0;
#X connect 19 1 18 0;
#X connect 20 0 26 0;
#X connect 21 0 27 0;
#X connect 22 0 28 0;
#X connect 23 0 29 0;
#X connect 24 0 12 0;
#X connect 24 0 20 0;
#X connect 24 0 21 0;
#X connect 24 0 22 0;
#X connect 24 0 23 0;
#X connect 25 0 5 0;
#X connect 26 0 6 0;
#X connect 27 0 7 0;
#X connect 28 0 8 0;
#X connect 29 0 9 0;
#X connect 30 0 31 0;
#X connect 31 0 24 0;
#X connect 32 0 30 0;
#X connect 33 0 37 0;
#X connect 34 0 36 0;
#X connect 35 0 13 0;
#X connect 35 1 14 0;
#X connect 35 2 15 0;
#X connect 35 3 16 0;
#X connect 35 4 17 0;
#X connect 36 0 33 2;
#X connect 37 0 38 0;
#X connect 38 0 35 0;
