#N canvas 0 0 1349 665 10;
#X obj 759 253 list;
#X obj 759 278 list trim;
#X obj 936 237 pack s s s;
#X msg 850 170 symbol pddplink;
#X symbolatom 964 196 25 0 0 0 - - -, f 25;
#X obj 524 100 inlet;
#X obj 964 170 symbol;
#X msg 1093 220 symbol -box;
#X msg 1073 153 https://youtube.com;
#X obj 323 142 bng 15 250 50 0 empty empty empty 17 7 0 10 -262144
-1 -1;
#X obj 132 168 iemguts/canvasdelete;
#N canvas 0 0 666 688 openLinksubWindow 0;
#X obj 414 226 inlet;
#X obj 300 500 pddplink https://www.youtube.com/watch?v=d-qe_6Tp2hc&list=PLQXEjMNYjt2xBu99q1O9SVN4Eq0mDv50C&index=2
-box;
#X connect 0 0 1 0;
#X restore 323 168 pd openLinksubWindow;
#X obj 539 362 s pd-openLinksubWindow;
#X msg 759 201 obj 300 500;
#X msg 599 293 delete 1;
#X msg 539 234 connect 0 0 1 0;
#X obj 1054 67 loadbang;
#X obj 1054 92 t b b b;
#X obj 524 125 t b b b b s b;
#X connect 0 0 1 0;
#X connect 1 0 12 0;
#X connect 2 0 0 1;
#X connect 3 0 2 0;
#X connect 4 0 2 1;
#X connect 5 0 18 0;
#X connect 6 0 4 0;
#X connect 7 0 2 2;
#X connect 8 0 6 0;
#X connect 9 0 11 0;
#X connect 13 0 0 0;
#X connect 14 0 12 0;
#X connect 15 0 12 0;
#X connect 16 0 17 0;
#X connect 17 0 3 0;
#X connect 17 1 8 0;
#X connect 17 2 7 0;
#X connect 18 0 9 0;
#X connect 18 1 15 0;
#X connect 18 2 13 0;
#X connect 18 3 3 0;
#X connect 18 4 6 0;
#X connect 18 5 14 0;
