#N canvas -8 -8 1366 685 10;
#X obj 681 279 t b f;
#X obj 681 318 spigot;
#X obj 681 348 bng 15 250 50 0 empty empty empty 17 7 0 10 -262144
-1 -1;
#X obj 605 84 inlet;
#X obj 782 82 inlet;
#X floatatom 605 148 5 0 0 0 - - -;
#X floatatom 782 197 5 0 0 0 - - -;
#X floatatom 604 348 5 0 0 0 - - -;
#X obj 604 318 spigot;
#X obj 681 382 outlet;
#X obj 603 382 outlet;
#X obj 605 120 t f f;
#X obj 681 213 bondo 3;
#X obj 700 83 inlet;
#X floatatom 700 153 5 0 0 0 - - -;
#X obj 700 121 f \$1;
#X obj 782 120 f \$2;
#X obj 761 39 loadbang;
#X obj 681 247 expr if(($f1 > $f2 || $f2 > $f3) \, 1 \, 0);
#X connect 0 0 1 0;
#X connect 0 1 1 1;
#X connect 0 1 8 1;
#X connect 1 0 2 0;
#X connect 2 0 10 0;
#X connect 3 0 11 0;
#X connect 4 0 16 0;
#X connect 5 0 8 0;
#X connect 5 0 12 1;
#X connect 6 0 12 2;
#X connect 7 0 9 0;
#X connect 8 0 7 0;
#X connect 11 0 5 0;
#X connect 11 1 12 1;
#X connect 12 0 18 0;
#X connect 12 1 18 1;
#X connect 12 2 18 2;
#X connect 13 0 15 0;
#X connect 14 0 12 0;
#X connect 15 0 14 0;
#X connect 16 0 6 0;
#X connect 17 0 15 0;
#X connect 17 0 16 0;
#X connect 18 0 0 0;
