#N canvas 0 0 1252 613 10;
#X obj 715 190 t b p;
#X obj 715 239 text get -s text t;
#X msg 715 214 0;
#X obj 138 364 bng 15 250 50 0 empty empty empty 17 7 0 10 -262144
-1 -1;
#X msg 1104 96 -1;
#X text 1136 96 clear whole text;
#X obj 715 52 openpanel;
#X msg 715 134 read \$1;
#X symbolatom 776 75 53 0 0 0 - - -, f 53;
#X obj 715 20 bng 29 250 50 0 empty empty empty 17 7 0 10 -262144 -1
-1;
#X obj 519 153 bng 15 250 50 0 empty empty empty 17 7 0 10 -262144
-1 -1;
#X floatatom 519 208 5 0 0 0 - - -, f 5;
#X obj 138 390 list;
#X text 758 -10 load textfile containing filter coefficients. After
each filter (after five coeffs.) " \; " needs to be to separate the
diferent filters;
#X obj 715 162 text define -k \$0-filterCoefs;
#A set 1.92597 -0.928617 0.963648 -1.9273 0.963648;
#X obj 159 236 text get \$0-filterCoefs;
#X obj 519 178 text size \$0-filterCoefs;
#X obj 500 96 del 100;
#X obj 715 -7 inlet;
#X obj 519 242 outlet;
#X obj 138 413 outlet;
#X text 878 451 in the following order: a1 \, a2 \, b0 \, b1 \, b2
;
#X text 878 488 a0 is per (PD) definition = 1 and does not need to
be expressed;
#X text 878 533 a-Terms are Poles (in the denominator) \, b-Terms are
Zeroes;
#X obj 715 79 t s b b;
#X obj 1104 118 text delete \$0-filterCoefs;
#X obj 197 264 text get \$0-filterCoefs;
#X obj 227 288 text get \$0-filterCoefs;
#X obj 257 315 text get \$0-filterCoefs;
#X obj 290 341 text get \$0-filterCoefs;
#X msg 159 143 0;
#X obj 198 160 + 1;
#X obj 227 177 + 1;
#X obj 257 194 + 1;
#X obj 290 211 + 1;
#X floatatom 333 228 5 0 0 0 - - -, f 5;
#X obj 176 446 list;
#X obj 176 470 outlet;
#X obj 206 496 list;
#X obj 206 520 outlet;
#X obj 236 440 list;
#X obj 236 464 outlet;
#X obj 269 379 list;
#X obj 269 403 outlet;
#X obj 138 13 inlet;
#X obj 138 143 bng 15 250 50 0 empty empty empty 17 7 0 10 -262144
-1 -1;
#X obj 500 126 t b b b;
#X text 878 399 outputs five lists of five biquad coefficients each
;
#X text 445 265 outputs the number of biquad filters in the read text
file;
#N canvas 0 0 450 300 check_filter 0;
#X msg 161 157 0 0 0 0 1;
#X obj 123 80 length;
#X obj 123 127 bng 15 250 50 0 empty empty empty 17 7 0 10 -262144
-1 -1;
#X obj 123 105 moses 5;
#X obj 213 129 bng 15 250 50 0 empty empty empty 17 7 0 10 -262144
-1 -1;
#X obj 174 105 moses 6;
#X obj 122 44 inlet;
#X obj 161 182 outlet;
#X connect 0 0 7 0;
#X connect 1 0 3 0;
#X connect 1 0 5 0;
#X connect 2 0 0 0;
#X connect 3 0 2 0;
#X connect 4 0 0 0;
#X connect 5 1 4 0;
#X connect 6 0 1 0;
#X restore 321 380 pd check_filter;
#N canvas 0 0 450 300 check_filter 0;
#X msg 161 157 0 0 0 0 1;
#X obj 123 80 length;
#X obj 123 127 bng 15 250 50 0 empty empty empty 17 7 0 10 -262144
-1 -1;
#X obj 123 105 moses 5;
#X obj 213 129 bng 15 250 50 0 empty empty empty 17 7 0 10 -262144
-1 -1;
#X obj 174 105 moses 6;
#X obj 122 44 inlet;
#X obj 161 182 outlet;
#X connect 0 0 7 0;
#X connect 1 0 3 0;
#X connect 1 0 5 0;
#X connect 2 0 0 0;
#X connect 3 0 2 0;
#X connect 4 0 0 0;
#X connect 5 1 4 0;
#X connect 6 0 1 0;
#X restore 289 440 pd check_filter;
#N canvas 0 0 450 300 check_filter 0;
#X msg 161 157 0 0 0 0 1;
#X obj 123 80 length;
#X obj 123 127 bng 15 250 50 0 empty empty empty 17 7 0 10 -262144
-1 -1;
#X obj 123 105 moses 5;
#X obj 213 129 bng 15 250 50 0 empty empty empty 17 7 0 10 -262144
-1 -1;
#X obj 174 105 moses 6;
#X obj 122 44 inlet;
#X obj 161 182 outlet;
#X connect 0 0 7 0;
#X connect 1 0 3 0;
#X connect 1 0 5 0;
#X connect 2 0 0 0;
#X connect 3 0 2 0;
#X connect 4 0 0 0;
#X connect 5 1 4 0;
#X connect 6 0 1 0;
#X restore 244 494 pd check_filter;
#N canvas 0 0 450 300 check_filter 0;
#X msg 161 157 0 0 0 0 1;
#X obj 123 80 length;
#X obj 123 127 bng 15 250 50 0 empty empty empty 17 7 0 10 -262144
-1 -1;
#X obj 123 105 moses 5;
#X obj 213 129 bng 15 250 50 0 empty empty empty 17 7 0 10 -262144
-1 -1;
#X obj 174 105 moses 6;
#X obj 122 44 inlet;
#X obj 161 182 outlet;
#X connect 0 0 7 0;
#X connect 1 0 3 0;
#X connect 1 0 5 0;
#X connect 2 0 0 0;
#X connect 3 0 2 0;
#X connect 4 0 0 0;
#X connect 5 1 4 0;
#X connect 6 0 1 0;
#X restore 77 444 pd check_filter;
#N canvas 0 0 450 300 check_filter 0;
#X msg 161 157 0 0 0 0 1;
#X obj 123 80 length;
#X obj 123 127 bng 15 250 50 0 empty empty empty 17 7 0 10 -262144
-1 -1;
#X obj 123 105 moses 5;
#X obj 213 129 bng 15 250 50 0 empty empty empty 17 7 0 10 -262144
-1 -1;
#X obj 174 105 moses 6;
#X obj 122 44 inlet;
#X obj 161 182 outlet;
#X connect 0 0 7 0;
#X connect 1 0 3 0;
#X connect 1 0 5 0;
#X connect 2 0 0 0;
#X connect 3 0 2 0;
#X connect 4 0 0 0;
#X connect 5 1 4 0;
#X connect 6 0 1 0;
#X restore 24 391 pd check_filter;
#X obj 38 158 del 100;
#X connect 0 0 2 0;
#X connect 0 1 1 3;
#X connect 2 0 1 0;
#X connect 3 0 12 0;
#X connect 3 0 36 0;
#X connect 3 0 38 0;
#X connect 3 0 40 0;
#X connect 3 0 42 0;
#X connect 4 0 25 0;
#X connect 6 0 8 0;
#X connect 6 0 24 0;
#X connect 7 0 14 0;
#X connect 9 0 6 0;
#X connect 10 0 16 0;
#X connect 11 0 19 0;
#X connect 12 0 20 0;
#X connect 12 0 53 0;
#X connect 14 0 0 0;
#X connect 15 0 12 1;
#X connect 16 0 11 0;
#X connect 17 0 46 0;
#X connect 18 0 9 0;
#X connect 24 0 7 0;
#X connect 24 1 17 0;
#X connect 24 2 4 0;
#X connect 26 0 36 1;
#X connect 27 0 38 1;
#X connect 28 0 40 1;
#X connect 29 0 42 1;
#X connect 30 0 31 0;
#X connect 30 0 15 0;
#X connect 31 0 26 0;
#X connect 31 0 32 0;
#X connect 32 0 27 0;
#X connect 32 0 33 0;
#X connect 33 0 28 0;
#X connect 33 0 34 0;
#X connect 34 0 29 0;
#X connect 34 0 35 0;
#X connect 36 0 37 0;
#X connect 36 0 52 0;
#X connect 38 0 39 0;
#X connect 38 0 51 0;
#X connect 40 0 41 0;
#X connect 40 0 50 0;
#X connect 42 0 43 0;
#X connect 42 0 49 0;
#X connect 44 0 45 0;
#X connect 45 0 11 0;
#X connect 45 0 3 0;
#X connect 45 0 54 0;
#X connect 46 0 45 0;
#X connect 46 1 10 0;
#X connect 46 2 30 0;
#X connect 49 0 42 1;
#X connect 50 0 40 1;
#X connect 51 0 38 1;
#X connect 52 0 36 1;
#X connect 53 0 12 1;
#X connect 54 0 3 0;
