#N canvas 0 0 1252 613 10;
#X obj 918 193 inlet;
#X obj 806 285 i;
#X obj 806 329 *;
#X obj 779 181 inlet;
#X floatatom 779 206 5 0 0 0 - - -, f 5;
#X obj 806 258 / 2;
#X obj 779 358 -;
#X obj 779 227 t f f;
#X floatatom 779 383 5 0 0 0 - - -, f 5;
#X floatatom 965 302 5 0 0 0 - - -, f 5;
#X floatatom 918 246 5 0 0 0 - - -, f 5;
#X obj 779 407 outlet;
#X obj 965 330 outlet;
#X text 929 360 number of times it is included in the division;
#X text 776 430 rest;
#X text 935 153 divide by;
#X obj 1114 193 loadbang;
#X obj 918 221 f \$1;
#X connect 0 0 17 0;
#X connect 1 0 2 0;
#X connect 1 0 9 0;
#X connect 2 0 6 1;
#X connect 3 0 4 0;
#X connect 4 0 7 0;
#X connect 5 0 1 0;
#X connect 6 0 8 0;
#X connect 7 0 6 0;
#X connect 7 1 5 0;
#X connect 8 0 11 0;
#X connect 9 0 12 0;
#X connect 10 0 2 1;
#X connect 16 0 17 0;
#X connect 17 0 5 1;
#X connect 17 0 10 0;
