#N canvas 0 0 1252 613 10;
#X obj 918 193 inlet;
#X floatatom 912 337 5 0 0 0 - - -, f 5;
#X floatatom 918 246 5 0 0 0 - - -, f 5;
#X obj 912 365 outlet;
#X text 904 397 number of times it is included in the division;
#X text 776 430 rest;
#X text 935 153 divide by;
#X obj 984 193 loadbang;
#X obj 918 221 f \$1;
#X obj 779 181 inlet~;
#X obj 749 241 /~ 2;
#X obj 701 275 int_fract~;
#X obj 779 323 *~;
#X obj 779 358 -~;
#X obj 918 270 sig~;
#X obj 779 407 outlet~;
#X obj 912 312 unsig~;
#X obj 848 325 outlet~;
#X connect 0 0 8 0;
#X connect 1 0 3 0;
#X connect 2 0 14 0;
#X connect 7 0 8 0;
#X connect 8 0 2 0;
#X connect 8 0 10 1;
#X connect 9 0 10 0;
#X connect 9 0 13 0;
#X connect 10 0 11 0;
#X connect 11 0 12 0;
#X connect 11 0 16 0;
#X connect 11 0 17 0;
#X connect 12 0 13 1;
#X connect 13 0 15 0;
#X connect 14 0 12 1;
#X connect 16 0 1 0;
