#N canvas -8 -8 1366 685 10;
#X symbolatom 719 98 10 0 0 0 - - -, f 10;
#X obj 235 79 symbol \$1;
#X obj 969 76 unpack f f;
#X obj 236 324 tabdump;
#X msg 236 121 set \$1;
#X symbolatom 236 100 10 0 0 0 - - -, f 10;
#X obj 599 371 pack f s;
#X msg 599 397 \; \$2 resize \$1;
#X obj 847 303 pack f f f f s;
#X msg 847 340 \; \$5 bounds \$1 \$2 \$3 \$4;
#X floatatom 299 324 5 0 0 0 - - -, f 5;
#X obj 210 278 bng 15 250 50 0 empty empty empty 17 7 0 10 -262144
-1 -1;
#X obj 281 420 tabset;
#X obj 847 248 bondo 4;
#X obj 615 294 -;
#X obj 615 267 bondo 2;
#X floatatom 614 324 5 0 0 0 - - -, f 5;
#X obj 846 -164 loadbang;
#X obj 599 343 f;
#X obj 480 194 f;
#X obj 599 71 bng 15 250 50 0 empty empty empty 17 7 0 10 -262144 -1
-1;
#X obj 599 96 t b b;
#X obj -122 -35 cnv 75 2000 100 empty empty empty 20 12 0 14 -4034
-66577 0;
#X text 82 -27 erster Inlet um den Namen des Arrays zu bestimmen;
#X text 77 46 Arrayname wird auch als creation argument genommen;
#X obj 235 11 inlet;
#X obj 1037 17 inlet;
#X obj 969 -15 inlet;
#X obj 850 19 inlet;
#X obj 736 -4 inlet;
#X msg 1158 139 \; \$2 const \$1;
#X obj 1158 114 pack f s;
#X obj 1158 9 inlet;
#X floatatom 1158 85 5 0 0 0 - - -, f 5;
#X text 697 -28 linke Granze float;
#X text 819 -1 rechte Grenze float;
#X text 904 -32 Grenze oben/unten als Liste;
#X text 1028 34 bang zum zuschneiden;
#X text 1105 -21 float/bang auf konstante zu setzen;
#X obj 480 217 t b f;
#X obj 236 369 zl slice;
#X obj 900 177 f;
#X obj 927 177 f;
#X obj 874 177 f;
#X obj 847 177 f;
#X obj 96 62 loadbang;
#X obj 846 -137 timeOffset 20;
#X msg 846 -111 0 1 1600 -1;
#X obj 846 -89 unpack f f f f;
#X floatatom 847 210 5 0 0 0 - - -, f 5;
#X floatatom 883 211 5 0 0 0 - - -, f 5;
#X floatatom 918 211 5 0 0 0 - - -, f 5;
#X floatatom 953 210 5 0 0 0 - - -, f 5;
#X obj 480 261 timeOffset 20;
#X obj 599 162 timeOffset 40;
#X connect 0 0 6 1;
#X connect 0 0 31 1;
#X connect 0 0 8 4;
#X connect 1 0 0 0;
#X connect 1 0 5 0;
#X connect 2 0 42 0;
#X connect 2 1 43 0;
#X connect 3 0 40 0;
#X connect 4 0 3 0;
#X connect 4 0 12 0;
#X connect 5 0 4 0;
#X connect 6 0 7 0;
#X connect 8 0 9 0;
#X connect 10 0 40 1;
#X connect 11 0 3 0;
#X connect 13 0 8 0;
#X connect 13 1 8 1;
#X connect 13 2 8 2;
#X connect 13 3 8 3;
#X connect 14 0 16 0;
#X connect 15 0 14 0;
#X connect 15 1 14 1;
#X connect 16 0 18 1;
#X connect 17 0 46 0;
#X connect 18 0 6 0;
#X connect 19 0 39 0;
#X connect 20 0 21 0;
#X connect 21 0 54 0;
#X connect 21 1 19 0;
#X connect 25 0 1 0;
#X connect 26 0 20 0;
#X connect 27 0 2 0;
#X connect 28 0 41 0;
#X connect 29 0 44 0;
#X connect 31 0 30 0;
#X connect 32 0 33 0;
#X connect 33 0 31 0;
#X connect 39 0 53 0;
#X connect 39 1 10 0;
#X connect 40 1 12 0;
#X connect 41 0 15 0;
#X connect 41 0 51 0;
#X connect 42 0 52 0;
#X connect 43 0 50 0;
#X connect 44 0 19 1;
#X connect 44 0 15 1;
#X connect 44 0 49 0;
#X connect 45 0 1 0;
#X connect 46 0 47 0;
#X connect 47 0 48 0;
#X connect 48 0 44 0;
#X connect 48 1 43 0;
#X connect 48 2 41 0;
#X connect 48 3 42 0;
#X connect 49 0 13 0;
#X connect 50 0 13 1;
#X connect 51 0 13 2;
#X connect 52 0 13 3;
#X connect 53 0 11 0;
#X connect 54 0 18 0;
