#N canvas 0 0 1888 970 10;
#N canvas 0 0 450 300 (subpatch) 0;
#X array \$0-temp 30 float 3 black black;
#A 0 35.05 0 0 44.8167 32 60.0667 39.9667 0 0 29.9834 45.1167 92.0334
0 71.3 123.017 31.8333 90.25 95.75 9.91667 159.633 34.2333 71.4333
120.967 0 182.883 68.9 60.85 190.5 93.1666 79.65;
#X coords 0 1 30 -1 200 140 1;
#X restore 1495 389 graph;
#X msg 1122 541 copy;
#X obj 1053 569 list prepend;
#X obj 1122 516 loadbang;
#X obj 1053 594 list trim;
#X obj 1220 515 arraysize;
#X floatatom 1220 540 5 0 0 0 - - -, f 5;
#X floatatom 1220 609 5 0 0 0 - - -, f 5;
#X obj 1208 433 t s b s;
#X msg 1220 634 \; \$0-temp resize \$1;
#X obj 1022 678 arraycopy \$0-temp;
#X obj 1307 590 s \$0-arraySize;
#X obj 942 855 arraycopy;
#X msg 889 822 copy \$0-temp;
#X obj 1254 309 inlet;
#X obj 889 734 bng 26 250 50 0 empty empty empty 17 7 0 10 -262144
-1 -1;
#X obj 480 732 moses 0;
#X floatatom 479 705 5 0 0 0 - - -, f 5;
#X msg 480 781 0;
#X floatatom 311 190 5 0 0 0 - - -, f 5;
#X obj 431 845 print;
#X obj 249 547 until;
#X obj 249 573 counter;
#X obj 249 751 +;
#X obj 249 722 t f f;
#X msg 294 884 0;
#X obj 249 853 moses 30;
#X obj 249 914 tabread \$0-temp;
#X obj 249 968 tabwrite \$0-temp;
#X obj 326 400 r \$0-arraySize;
#X obj 249 467 i;
#X obj 249 423 t b f;
#X obj 347 425 loadbang;
#X msg 347 450 30;
#X obj 409 642 r \$0-arraySize;
#X obj 249 503 t f b, f 9;
#X floatatom 249 777 5 0 0 0 - - -, f 5;
#X obj 409 667 - 1;
#X obj 334 659 * -1;
#X obj 334 684 +;
#X obj 249 603 demux . .;
#X floatatom 249 624 5 0 0 0 - - -, f 5;
#X floatatom 300 627 5 0 0 0 - - -, f 5;
#X obj 311 214 t f f;
#X floatatom 338 268 5 0 0 0 - - -, f 5;
#X obj 337 566 tgl 15 0 empty empty empty 17 7 0 10 -262144 -1 -1 0
1;
#X obj 338 245 < 0;
#X obj 210 823 moses 0;
#X msg 210 848 0;
#X obj 311 166 * -1;
#X obj 293 112 cnv 30 97 37 empty empty empty 20 12 0 14 -4033 -66577
0;
#X obj 315 77 inlet;
#X obj 601 111 bng 15 250 50 0 empty empty empty 17 7 0 10 -262144
-1 -1;
#X msg 238 119 5;
#X msg 172 119 -5;
#X obj 1208 390 symbol \$1;
#X obj 314 102 t b f b;
#X connect 1 0 2 1;
#X connect 2 0 4 0;
#X connect 3 0 1 0;
#X connect 4 0 10 0;
#X connect 5 0 6 0;
#X connect 6 0 7 0;
#X connect 6 0 11 0;
#X connect 7 0 9 0;
#X connect 8 0 2 0;
#X connect 8 1 5 0;
#X connect 8 2 5 1;
#X connect 8 2 12 1;
#X connect 13 0 12 0;
#X connect 14 0 55 0;
#X connect 15 0 13 0;
#X connect 16 0 18 0;
#X connect 17 0 16 0;
#X connect 18 0 20 0;
#X connect 19 0 43 0;
#X connect 21 0 22 0;
#X connect 22 0 40 0;
#X connect 23 0 36 0;
#X connect 24 0 23 0;
#X connect 24 1 28 1;
#X connect 25 0 28 0;
#X connect 26 0 27 0;
#X connect 26 1 25 0;
#X connect 27 0 28 0;
#X connect 29 0 30 1;
#X connect 30 0 35 0;
#X connect 31 0 30 0;
#X connect 31 1 23 1;
#X connect 32 0 33 0;
#X connect 33 0 30 1;
#X connect 34 0 26 1;
#X connect 34 0 37 0;
#X connect 35 0 21 0;
#X connect 35 1 22 2;
#X connect 36 0 47 0;
#X connect 37 0 39 1;
#X connect 38 0 39 0;
#X connect 39 0 24 0;
#X connect 40 0 41 0;
#X connect 40 1 42 0;
#X connect 41 0 24 0;
#X connect 42 0 38 0;
#X connect 43 0 31 0;
#X connect 43 1 46 0;
#X connect 44 0 45 0;
#X connect 45 0 40 1;
#X connect 46 0 44 0;
#X connect 47 0 48 0;
#X connect 47 1 26 0;
#X connect 48 0 28 0;
#X connect 49 0 19 0;
#X connect 51 0 56 0;
#X connect 52 0 15 0;
#X connect 53 0 49 0;
#X connect 54 0 49 0;
#X connect 55 0 8 0;
#X connect 56 0 52 0;
#X connect 56 1 49 0;
#X connect 56 2 55 0;
