#N canvas 312 0 626 613 10;
#X obj 419 262 inlet~;
#X obj 419 464 outlet~;
#X obj 419 434 cpole~ 1;
#X obj 47 35 block~ 1;
#X text 459 406 k;
#X floatatom 552 169 0 0 100 0 - - -;
#N canvas 321 0 600 434 delay-writer 0;
#X obj 96 107 inlet~;
#X obj 97 144 delwrite~ \$0-y_n-1 1000;
#X connect 0 0 1 0;
#X restore 303 464 pd delay-writer;
#N canvas 320 270 280 333 delay-reader 0;
#X obj 96 237 outlet~;
#X obj 111 133 inlet~;
#X obj 111 168 vd~ \$0-y_n-1;
#X connect 1 0 2 0;
#X connect 2 0 0 0;
#X restore 552 277 pd delay-reader;
#X obj 552 192 / 44.1;
#X obj 552 228 pack 0 30;
#X obj 552 254 line~;
#X text 601 185 (in samples);
#X text 605 169 <-- delay;
#X floatatom 507 228 5 0 0 0 - - -, f 5;
#X msg 552 144 1;
#X obj 419 324 -~;
#X obj 419 408 *~;
#X obj 262 341 >~ 0;
#X obj 314 341 <~ 0;
#X obj 262 391 +~;
#X obj 262 366 *~ 0.04;
#X obj 303 134 vsl 30 131 0 0.6 0 0 empty empty rise 0 -9 0 10 -4096
-64 -1 10875 1;
#X floatatom 303 274 5 0 0 0 - - -, f 5;
#X obj 350 134 vsl 30 131 0 0.1 0 0 empty empty fall 0 -9 0 10 -4096
-64 -1 1000 1;
#X floatatom 350 274 5 0 0 0 - - -, f 5;
#X obj 301 25 loadbang;
#X msg 301 93 0.165;
#X obj 301 49 t b b b;
#X text 240 132 rise time;
#X text 385 135 fall time;
#X msg 353 93 0.08;
#X obj 314 366 *~ 0.03;
#X obj 579 396 outlet~;
#X obj 579 311 >~ 0;
#X obj 631 311 <~ 0;
#X obj 579 361 +~;
#X obj 579 336 *~ 1;
#X obj 631 336 *~ 0;
#X connect 0 0 15 0;
#X connect 2 0 6 0;
#X connect 2 0 1 0;
#X connect 5 0 8 0;
#X connect 7 0 15 1;
#X connect 8 0 9 0;
#X connect 8 0 13 0;
#X connect 9 0 10 0;
#X connect 10 0 7 0;
#X connect 14 0 5 0;
#X connect 15 0 16 0;
#X connect 15 0 18 0;
#X connect 15 0 17 0;
#X connect 15 0 33 0;
#X connect 15 0 34 0;
#X connect 16 0 2 0;
#X connect 17 0 20 0;
#X connect 18 0 31 0;
#X connect 19 0 16 1;
#X connect 20 0 19 0;
#X connect 21 0 22 0;
#X connect 22 0 20 1;
#X connect 23 0 24 0;
#X connect 24 0 31 1;
#X connect 25 0 27 0;
#X connect 26 0 21 0;
#X connect 27 0 26 0;
#X connect 27 1 30 0;
#X connect 27 2 14 0;
#X connect 30 0 23 0;
#X connect 31 0 19 1;
#X connect 33 0 36 0;
#X connect 34 0 37 0;
#X connect 35 0 32 0;
#X connect 36 0 35 0;
#X connect 37 0 35 1;
#X coords 0 -1 1 1 89 174 2 297 120;
