#N canvas 0 0 667 669 10;
#X obj 351 433 throw~ pass;
#X msg 231 344 set block;
#X msg 441 338 set pass;
#X obj 441 249 bng 15 250 50 0 empty empty empty 17 7 0 10 -262144
-1 -1;
#X obj 519 127 f \$1;
#X floatatom 519 151 5 0 0 0 - - -;
#X obj 441 202 ==bng \$1;
#X obj 519 101 loadbang;
#X obj 66 418 inlet~;
#X obj 204 136 inlet;
#X obj 204 188 t f b;
#X floatatom 510 249 5 0 0 0 - - -;
#X floatatom 203 223 5 0 0 0 - - -;
#X connect 1 0 0 0;
#X connect 2 0 0 0;
#X connect 3 0 2 0;
#X connect 4 0 5 0;
#X connect 5 0 6 1;
#X connect 6 0 3 0;
#X connect 6 0 11 0;
#X connect 7 0 4 0;
#X connect 7 0 1 0;
#X connect 8 0 0 0;
#X connect 9 0 10 0;
#X connect 10 0 12 0;
#X connect 10 0 6 0;
#X connect 10 1 1 0;
