#N canvas -8 -8 1366 685 10;
#X obj 320 12 cnv 40 120 40 empty empty empty 20 12 0 14 -4034 -66577
0;
#X obj 582 47 cnv 40 120 40 empty empty empty 20 12 0 14 -4034 -66577
0;
#X obj 764 49 cnv 40 120 40 empty empty empty 20 12 0 14 -4034 -66577
0;
#X obj 685 606 cnv 40 120 40 empty empty empty 20 12 0 14 -258113 -66577
0;
#X obj 583 155 list fromsymbol;
#X symbolatom 583 130 10 0 0 0 - - -, f 10;
#X obj 583 105 list2symbol;
#X obj 608 61 inlet;
#X obj 768 149 list fromsymbol;
#X symbolatom 768 130 10 0 0 0 - - -, f 10;
#X obj 768 107 list2symbol;
#X obj 793 62 inlet;
#X obj 558 327 list split 1;
#X obj 558 295 list;
#X floatatom 558 434 5 0 0 0 - - -, f 5;
#X obj 743 313 list split 1;
#X obj 743 281 list;
#X floatatom 743 434 5 0 0 0 - - -, f 5;
#X obj 598 349 route bang;
#X obj 783 333 route bang;
#X obj 612 472 sel 1;
#X obj 807 557 sel 1;
#X obj 807 515 +;
#X obj 743 453 s on2;
#X obj 558 455 s on1;
#X obj 807 493 r on1;
#X obj 855 498 r on2;
#X obj 405 93 s on1;
#X obj 612 496 bng 15 250 50 0 empty empty empty 17 7 0 10 -262144
-1 -1;
#X obj 612 448 ==;
#X obj 644 496 bng 15 250 50 0 empty empty empty 17 7 0 10 -262144
-1 -1;
#X obj 558 221 bng 15 250 50 0 empty empty empty 17 7 0 10 -262144
-1 -1;
#X msg 598 371 -1;
#X msg 783 355 -2;
#X obj 807 537 == -3;
#X obj 558 243 until;
#X obj 558 264 t b b;
#X obj 404 115 s on2;
#X obj 342 68 t b b b;
#X obj 342 47 bng 15 250 50 0 empty empty empty 17 7 0 10 -262144 -1
-1;
#X msg 388 115 0, f 1;
#X msg 388 93 0, f 1;
#X obj 583 85 list;
#X obj 768 85 list;
#X obj 713 627 outlet;
#X msg 684 575 0;
#X msg 747 574 1;
#X floatatom 713 610 5 0 0 0 - - -, f 5;
#X obj 342 24 inlet;
#X text 970 604 Outlet: gibt 0 aus falsch die strings verschieden sind
\, oder 1 wenn sie gleich sind;
#X obj 682 214 loadbang;
#X msg 682 236 0 1 2;
#X text 972 23 inlet 1: bang zum überprüfen ob die strings gleich
sind Inlet 2: erster String Inlet 3: zweiter String;
#X connect 4 0 13 1;
#X connect 5 0 4 0;
#X connect 6 0 5 0;
#X connect 7 0 42 1;
#X connect 8 0 16 1;
#X connect 9 0 8 0;
#X connect 10 0 9 0;
#X connect 11 0 43 1;
#X connect 12 0 14 0;
#X connect 12 1 18 0;
#X connect 13 0 12 0;
#X connect 14 0 29 0;
#X connect 14 0 24 0;
#X connect 15 0 17 0;
#X connect 15 1 19 0;
#X connect 16 0 15 0;
#X connect 17 0 29 1;
#X connect 17 0 23 0;
#X connect 18 0 32 0;
#X connect 18 1 13 1;
#X connect 19 0 33 0;
#X connect 19 1 16 1;
#X connect 20 0 28 0;
#X connect 20 1 30 0;
#X connect 21 0 46 0;
#X connect 22 0 34 0;
#X connect 25 0 22 0;
#X connect 26 0 22 1;
#X connect 29 0 20 0;
#X connect 30 0 35 1;
#X connect 30 0 45 0;
#X connect 31 0 35 0;
#X connect 32 0 13 1;
#X connect 33 0 16 1;
#X connect 34 0 21 0;
#X connect 35 0 36 0;
#X connect 36 0 13 0;
#X connect 36 1 16 0;
#X connect 38 0 31 0;
#X connect 38 1 42 0;
#X connect 38 2 43 0;
#X connect 38 2 41 0;
#X connect 38 2 40 0;
#X connect 39 0 38 0;
#X connect 40 0 37 0;
#X connect 41 0 27 0;
#X connect 42 0 6 0;
#X connect 43 0 10 0;
#X connect 45 0 47 0;
#X connect 46 0 47 0;
#X connect 47 0 44 0;
#X connect 48 0 39 0;
#X connect 50 0 51 0;
#X connect 51 0 13 1;
#X connect 51 0 16 1;
