#N canvas -8 -8 1365 681 10;
#X msg 1267 485 set \$1;
#X obj 687 305 str_contains;
#X obj 1214 17 moses 1;
#X obj 1209 41 bng 15 250 50 0 empty empty empty 17 7 0 10 -262144
-1 -1;
#X obj 1260 41 bng 15 250 50 0 empty empty empty 17 7 0 10 -262144
-1 -1;
#X msg 1245 145 set \$1;
#X obj 1247 107 l2s;
#X msg 1299 74 could not be created;
#X msg 1174 75 created new file;
#X msg 699 588 obj 20 50 array define -k \$1 \$2;
#X obj 700 535 list;
#X floatatom 765 519 5 0 0 0 - - -, f 5;
#X obj 700 449 spigot;
#X obj 785 434 tgl 15 0 empty empty empty 17 7 0 10 -262144 -1 -1 -0
1;
#X obj 700 416 symbol;
#X obj 700 360 bng 15 250 50 0 empty empty empty 17 7 0 10 -262144
-1 -1;
#X obj 700 389 symbol;
#X msg 700 472 0;
#X obj 700 495 t s b;
#X msg 765 498 2000;
#X obj 765 476 loadbang;
#X text 1359 575 list of existing tables;
#X obj 1121 514 bng 21 250 50 0 empty empty empty 17 7 0 10 -262144
-1 -1;
#X obj 785 362 - 1;
#X obj 785 387 * -1;
#X floatatom 785 412 5 0 0 0 - - -, f 5;
#X msg 1315 399 empty;
#X obj 1315 425 symbol \$1;
#X msg 1315 462 set \$1;
#X obj 1267 460 l2s _;
#X obj 1267 608 symbol2list _;
#X msg 1267 517 something3_something4_exp1_rectify_linear_linear-rectify_soft_soft2_onesided_newrandom_newrandom2_newrandom3_test1509_testdistortion.txt
;
#X obj 1266 585 symbol;
#X msg 318 -6 newFile what;
#X obj 1315 353 t b b;
#X obj 463 93 zl slice 1;
#X obj 438 245 spigot;
#X obj 473 217 tgl 15 0 empty empty empty 17 7 0 10 -262144 -1 -1 0
1;
#X obj 507 237 spigot;
#X obj 540 216 tgl 15 0 empty empty empty 17 7 0 10 -262144 -1 -1 1
1;
#X msg 491 176 0;
#X msg 545 176 1;
#X msg 460 175 1;
#X msg 578 176 0;
#X obj 549 109 s newFile;
#X obj 459 154 r newFile;
#X obj 549 61 zl slice 1;
#X obj 1197 164 cnv 30 206 40 empty empty empty 20 12 0 14 -4033 -66577
0;
#X msg 1247 175 could\ not\ be\ created;
#X obj 1296 299 cnv 30 232 43 empty empty empty 20 12 0 14 -260097
-66577 0;
#X obj 1314 303 bng 35 250 50 0 empty empty empty 17 7 0 10 -262144
-1 -1;
#X text 1375 313 empty the list of tables;
#X obj 463 6 inlet;
#X obj 699 610 s pd-waveform.pd;
#X obj 1324 260 inlet;
#X obj 1098 234 outlet;
#X obj 463 44 t l l l;
#X obj 292 220 zl slice 1;
#X msg 299 275 copy temp;
#X obj 349 249 symbol;
#X text 813 501 size of array to be created;
#X obj 700 557 t b l;
#X obj 1267 637 outlet;
#X obj 1141 479 list prepend;
#X symbolatom 222 557 19 0 0 0 - - -, f 19;
#X obj 222 507 zl join;
#X obj 261 457 loadbang;
#X obj 222 532 list2symbol _;
#X msg 222 479 test;
#X obj 259 642 s pd-waveform.pd;
#X obj 298 298 arraycopy;
#X obj 157 641 arraycopy;
#X obj 216 587 t b s s;
#X text 1208 204 something here is not working;
#X msg 261 481 harmonics;
#X msg 259 617 obj 20 50 array define -k \$1 15;
#X msg 130 614 copy temp_harmonics;
#X obj 1123 420 t b s b;
#X symbolatom 95 320 19 0 0 0 - - -, f 19;
#X obj 95 270 zl join;
#X obj 134 220 loadbang;
#X obj 95 295 list2symbol _;
#X obj 132 405 s pd-waveform.pd;
#X obj 30 404 arraycopy;
#X obj 89 350 t b s s;
#X msg 134 244 THD;
#X msg 3 377 copy temp_THD;
#X msg 132 380 obj 20 50 array define -k \$1 1;
#N canvas 312 0 626 613 saveFile 0;
#X obj 192 194 textfile;
#X msg 423 175 set \$1;
#X obj 396 80 inlet;
#X obj 396 105 symbol;
#X obj 396 129 t b s;
#X msg 423 200 something3_something4_exp1_rectify_linear_linear-rectify_soft_soft2_onesided_newrandom_newrandom2_newrandom3_test1509_testdistortion.txt
;
#X msg 192 146 write tableManagerSaveFile.txt;
#X connect 1 0 0 0;
#X connect 1 0 5 0;
#X connect 2 0 3 0;
#X connect 3 0 4 0;
#X connect 4 0 6 0;
#X connect 4 1 1 0;
#X connect 6 0 0 0;
#X restore 1085 605 pd saveFile;
#N canvas 400 156 450 301 loadfile 0;
#X obj 167 271 outlet;
#X obj 128 39 loadbang;
#X obj 167 160 textfile;
#X msg 167 101 read tableManagerSaveFile.txt;
#X obj 128 66 t b b b;
#X msg 147 126 rewind;
#X obj 128 159 bng 15 250 50 0 empty empty empty 17 7 0 10 -262144
-1 -1;
#X obj 167 184 symbol;
#X msg 194 240 set \$1;
#X obj 92 43 bng 15 250 50 0 empty empty empty 17 7 0 10 -262144 -1
-1;
#X msg 244 271 something3_something4_exp1_rectify_linear_linear-rectify_soft_soft2_onesided_newrandom_newrandom2_newrandom3_test1509_testdistortion.txt
;
#X obj 167 210 t b s;
#X connect 1 0 4 0;
#X connect 2 0 7 0;
#X connect 3 0 2 0;
#X connect 4 0 6 0;
#X connect 4 1 5 0;
#X connect 4 2 3 0;
#X connect 5 0 2 0;
#X connect 6 0 2 0;
#X connect 7 0 11 0;
#X connect 8 0 0 0;
#X connect 8 0 10 0;
#X connect 9 0 4 0;
#X connect 11 0 0 0;
#X connect 11 1 8 0;
#X restore 1435 476 pd loadfile;
#X floatatom 831 111 5 0 0 0 - - -, f 5;
#X obj 832 176 delete_nth;
#X obj 832 147 t b f;
#X symbolatom 787 248 19 0 0 0 - - -, f 19;
#X obj 549 85 route newFile delete;
#X obj 617 109 s delete;
#X obj 544 155 r delete;
#X msg 324 43 delete what;
#X text 8 77 input must start with either "newFile" or "delete" and
a second argument for the name of the array;
#X obj 835 201 l2s _;
#X obj 951 219 t b s;
#X connect 0 0 31 0;
#X connect 1 0 23 0;
#X connect 1 1 15 0;
#X connect 2 0 3 0;
#X connect 2 1 4 0;
#X connect 3 0 8 0;
#X connect 4 0 7 0;
#X connect 5 0 48 0;
#X connect 5 0 55 0;
#X connect 6 0 5 0;
#X connect 7 0 6 0;
#X connect 8 0 6 0;
#X connect 9 0 53 0;
#X connect 10 0 61 0;
#X connect 11 0 10 1;
#X connect 12 0 18 0;
#X connect 13 0 12 1;
#X connect 14 0 12 0;
#X connect 15 0 14 0;
#X connect 16 0 14 1;
#X connect 17 0 13 0;
#X connect 18 0 10 0;
#X connect 18 0 65 0;
#X connect 18 0 77 0;
#X connect 18 0 79 0;
#X connect 18 1 17 0;
#X connect 19 0 11 0;
#X connect 20 0 19 0;
#X connect 22 0 31 0;
#X connect 23 0 24 0;
#X connect 24 0 13 0;
#X connect 24 0 25 0;
#X connect 26 0 27 0;
#X connect 27 0 28 0;
#X connect 28 0 31 0;
#X connect 29 0 0 0;
#X connect 30 0 1 1;
#X connect 30 0 62 0;
#X connect 30 0 91 1;
#X connect 31 0 32 0;
#X connect 31 0 63 1;
#X connect 31 0 88 0;
#X connect 32 0 30 0;
#X connect 33 0 56 0;
#X connect 34 0 22 0;
#X connect 34 1 26 0;
#X connect 35 1 36 0;
#X connect 35 1 38 0;
#X connect 36 0 1 0;
#X connect 36 0 16 0;
#X connect 37 0 36 1;
#X connect 38 0 90 0;
#X connect 39 0 38 1;
#X connect 40 0 37 0;
#X connect 41 0 39 0;
#X connect 42 0 37 0;
#X connect 43 0 39 0;
#X connect 45 0 42 0;
#X connect 45 0 43 0;
#X connect 46 0 94 0;
#X connect 50 0 34 0;
#X connect 52 0 56 0;
#X connect 54 0 50 0;
#X connect 56 0 57 0;
#X connect 56 1 35 0;
#X connect 56 2 46 0;
#X connect 57 1 59 0;
#X connect 58 0 70 0;
#X connect 59 0 70 1;
#X connect 61 0 58 0;
#X connect 61 1 9 0;
#X connect 63 0 29 0;
#X connect 64 0 72 0;
#X connect 65 0 67 0;
#X connect 66 0 74 0;
#X connect 67 0 64 0;
#X connect 68 0 65 0;
#X connect 72 0 76 0;
#X connect 72 1 71 1;
#X connect 72 2 75 0;
#X connect 74 0 65 1;
#X connect 75 0 69 0;
#X connect 76 0 71 0;
#X connect 77 0 22 0;
#X connect 77 1 63 0;
#X connect 77 2 31 0;
#X connect 78 0 84 0;
#X connect 79 0 81 0;
#X connect 80 0 85 0;
#X connect 81 0 78 0;
#X connect 84 0 86 0;
#X connect 84 1 83 1;
#X connect 84 2 87 0;
#X connect 85 0 79 1;
#X connect 86 0 83 0;
#X connect 87 0 82 0;
#X connect 89 0 31 0;
#X connect 90 0 92 0;
#X connect 91 0 99 0;
#X connect 92 0 91 0;
#X connect 92 1 91 2;
#X connect 94 0 44 0;
#X connect 94 1 95 0;
#X connect 94 2 43 0;
#X connect 94 2 40 0;
#X connect 96 0 40 0;
#X connect 96 0 41 0;
#X connect 97 0 56 0;
#X connect 99 0 93 0;
#X connect 99 0 100 0;
#X connect 100 0 31 0;
#X connect 100 1 0 0;
