#N canvas 111 12 667 669 10;
#X obj -4 370 phasor~;
#X floatatom 2 289 5 0 0 0 - - -, f 5;
#X obj 80 246 s sampleSize;
#X obj -4 399 *~;
#X obj 47 101 bng 15 250 50 0 empty empty empty 17 7 0 10 -4034 -1
-1;
#X floatatom 47 224 8 0 0 0 - - -, f 8;
#X obj -85 328 hsl 128 15 0 3 0 0 empty empty empty -2 -8 0 10 -262144
-1 -1 0 1;
#X obj 47 272 expr 44100 / $f1;
#X obj -5 479 *~;
#X obj 153 348 vsl 15 128 0 1 0 0 empty empty empty 0 -9 0 10 -262144
-1 -1 0 1;
#X floatatom 92 535 8 0 0 0 - - -, f 8;
#X obj 92 559 s position;
#X obj 93 512 unsig~ 30;
#X msg -88 304 0;
#X obj -33 279 bng 15 250 50 0 empty empty empty 17 7 0 10 -262144
-1 -1;
#X obj -33 303 1 *;
#X obj 53 382 r sampleSize;
#X obj -81 100 bng 15 250 50 0 empty empty empty 17 7 0 10 -258113
-1 -1;
#X text -82 63 Stop;
#X text 51 67 Play;
#X text 57 299 Anzahl Samples/Sekunde durch gesammte Samples = 1s/gesammte
s --> abspielgeschwindigkeit;
#X text 176 515 Position vom Phasor für den Balken darunter;
#X text 236 345 Phasor = Sägezahnschwingung von 0 bis 1 abgespielt
in seeehr langsamer Geschwindigkeit;
#X obj 47 45 inlet;
#X obj -88 45 inlet;
#X obj -59 101 hsl 100 15 0 3 0 0 empty empty empty -2 -8 0 10 -262144
-1 -1 0 1;
#X obj 47 200 arraysize;
#X obj 214 49 inlet;
#X symbolatom 214 112 10 0 0 0 - - -, f 10;
#X obj 214 71 pack s;
#X obj 214 90 unpack s;
#X obj -6 512 outlet~;
#X text 148 5 name (als messagebox) vom array festlegen welches gelesen
wird;
#X obj 177 443 loadbang;
#X msg 177 464 0.5;
#X obj -5 446 tabread4~;
#X msg 310 199 set \$1;
#X connect 0 0 3 0;
#X connect 0 0 12 0;
#X connect 1 0 15 1;
#X connect 3 0 35 0;
#X connect 4 0 14 0;
#X connect 4 0 26 0;
#X connect 5 0 2 0;
#X connect 5 0 7 0;
#X connect 6 0 0 0;
#X connect 7 0 1 0;
#X connect 8 0 31 0;
#X connect 9 0 8 1;
#X connect 10 0 11 0;
#X connect 12 0 10 0;
#X connect 13 0 6 0;
#X connect 14 0 15 0;
#X connect 15 0 6 0;
#X connect 16 0 3 1;
#X connect 17 0 13 0;
#X connect 23 0 4 0;
#X connect 24 0 17 0;
#X connect 25 0 6 0;
#X connect 26 0 5 0;
#X connect 27 0 29 0;
#X connect 28 0 26 1;
#X connect 28 0 36 0;
#X connect 29 0 30 0;
#X connect 30 0 28 0;
#X connect 33 0 34 0;
#X connect 34 0 9 0;
#X connect 35 0 8 0;
#X connect 36 0 35 0;
