#N canvas -1928 -8 1280 650 10;
#X floatatom 261 320 5 0 0 0 - - -, f 5;
#X obj 261 342 % 4;
#X floatatom 261 386 5 0 0 0 - - -, f 5;
#X obj 261 411 outlet;
#X obj 261 180 inlet;
#X floatatom 132 197 5 0 0 0 - - -, f 5;
#X text 241 153 loop (from 1 - 4) as inlet;
#X text 312 321 total number;
#X text 308 411 takt progression 1 - 4;
#X obj 261 255 counter;
#X obj 261 210 ==bng 1;
#X obj 172 411 outlet;
#X obj 540 192 bng 15 250 50 0 empty empty empty 17 7 0 10 -262144
-1 -1;
#X obj 194 238 bng 15 250 50 0 empty empty empty 17 7 0 10 -262144
-1 -1;
#X obj 261 276 + 1;
#X obj 261 299 / 2;
#X obj 540 163 inlet;
#X text 539 140 Reset des Zählers;
#X text 94 434 Anzahl Takte gesammt;
#X obj 261 365 + 0;
#X connect 0 0 1 0;
#X connect 0 0 11 0;
#X connect 1 0 19 0;
#X connect 2 0 3 0;
#X connect 4 0 5 0;
#X connect 4 0 10 0;
#X connect 9 0 14 0;
#X connect 10 0 9 0;
#X connect 10 0 13 0;
#X connect 12 0 9 2;
#X connect 14 0 15 0;
#X connect 15 0 0 0;
#X connect 16 0 12 0;
#X connect 19 0 2 0;
