#N canvas -8 -8 1366 685 10;
#X obj 378 239 random 10;
#X obj 372 197 metro 500;
#X obj 367 145 tgl 15 0 empty empty empty 17 7 0 10 -262144 -1 -1 0
1;
#X floatatom 386 273 5 0 0 0 - - -, f 5;
#X obj 711 131 loadbang;
#X obj 711 189 i \$1;
#X floatatom 711 211 5 0 0 0 - - -, f 5;
#X connect 0 0 3 0;
#X connect 1 0 0 0;
#X connect 2 0 1 0;
#X connect 4 0 5 0;
#X connect 5 0 6 0;
#X connect 6 0 0 1;
