#N canvas 419 59 667 669 10;
#X obj 208 206 bpm;
#X floatatom 420 209 5 0 0 0 - - -, f 5;
#X obj 269 230 tgl 15 0 empty empty empty 17 7 0 10 -262144 -1 -1 0
44;
#X floatatom 149 443 5 0 0 0 - - -, f 5;
#X obj 208 312 / 2;
#X obj 466 223 / 4;
#X obj 469 309 / 8;
#X obj 148 245 metro 800;
#X obj 149 333 metro 400;
#X obj 406 245 metro 200;
#X obj 409 330 metro 100;
#X floatatom 212 443 5 0 0 0 - - -, f 5;
#X floatatom 263 443 5 0 0 0 - - -, f 5;
#X floatatom 311 443 5 0 0 0 - - -, f 5;
#X obj 406 268 loop 16;
#X obj 148 268 loop 4;
#X obj 149 357 loop 8;
#X obj 409 354 loop 32;
#X text 149 462 Viertel;
#X text 212 462 Achtel;
#X text 311 462 32tel;
#X text 263 462 16tel;
#X obj 269 89 inlet;
#X obj 420 102 inlet;
#X text 459 97 beats per minute;
#X text 216 89 toggle;
#X obj 149 481 outlet;
#X obj 212 481 outlet;
#X obj 263 481 outlet;
#X obj 311 481 outlet;
#X obj 420 189 f \$1;
#X obj 474 141 loadbang;
#X connect 0 0 4 0;
#X connect 0 0 7 1;
#X connect 0 0 5 0;
#X connect 0 0 6 0;
#X connect 2 0 7 0;
#X connect 2 0 8 0;
#X connect 2 0 9 0;
#X connect 2 0 10 0;
#X connect 2 0 16 2;
#X connect 2 0 15 2;
#X connect 2 0 14 2;
#X connect 2 0 17 2;
#X connect 3 0 26 0;
#X connect 4 0 8 1;
#X connect 5 0 9 1;
#X connect 6 0 10 1;
#X connect 7 0 15 0;
#X connect 8 0 16 0;
#X connect 9 0 14 0;
#X connect 10 0 17 0;
#X connect 11 0 27 0;
#X connect 12 0 28 0;
#X connect 13 0 29 0;
#X connect 14 0 12 0;
#X connect 15 0 3 0;
#X connect 16 0 11 0;
#X connect 17 0 13 0;
#X connect 22 0 2 0;
#X connect 23 0 30 0;
#X connect 30 0 1 0;
#X connect 30 0 0 0;
#X connect 31 0 30 0;
