#N canvas 0 0 1366 685 10;
#X obj 404 198 line;
#X floatatom 404 226 5 0 0 0 - - -;
#X obj 404 270 bng 15 250 50 0 empty empty empty 17 7 0 10 -262144
-1 -1;
#X floatatom 492 319 5 0 0 0 - - -;
#X obj 492 244 expr if(($f1 == $f2) \, 1 \, 0);
#X obj 492 373 spigot;
#X obj 492 399 bng 15 250 50 0 empty empty empty 17 7 0 10 -262144
-1 -1;
#X obj 492 341 t b f;
#X floatatom 624 101 5 0 0 0 - - -;
#X floatatom 492 220 5 0 0 0 - - -;
#X obj 624 122 t b f;
#X obj 1398 300 expr ($f1 - $f2);
#X obj 1398 327 == 0;
#X obj 1535 162;
#X obj 1402 366 bng 15 250 50 0 empty empty empty 17 7 0 10 -262144
-1 -1;
#X obj 492 290 change;
#X msg 328 249 0;
#X obj 301 77 t f b;
#X floatatom 492 266 5 0 0 0 - - -;
#X obj 230 62 tgl 15 0 empty empty empty 17 7 0 10 -262144 -1 -1 0
154;
#X msg 404 114 \$1 \$2;
#X obj 404 64 pack f f;
#X obj 404 13 bondo 2;
#X obj 230 -97 inlet;
#X text 227 -112 Bang zum starten des Countdowns;
#X text 485 -73 Zeit in milisekunden für den Countdown;
#X obj 443 -71 inlet;
#X text 418 447 Bang nach abgelaufener Zeit;
#X obj 550 414 outlet;
#X text 872 135 Inlet 1 als bang zum starten Inlet 2 als Zahl zum festlegen
der Dauer Outlet 1 sendet Bang nach eingegebener Dauer;
#X msg 20 -69 \; pd dsp \$1;
#X obj 20 -93 tgl 15 0 empty empty empty 17 7 0 10 -262144 -1 -1 0
1;
#X floatatom 858 -81 5 0 0 0 - - -;
#X obj 882 7 outlet;
#X obj 882 -40 0 +;
#X floatatom 882 -18 5 0 0 0 - - -;
#X text 945 11 Hier: Outlet 2 sendet Zeitverzögerte zahlten (falls
elche in den Inlet 1 geschickt werden) zB für verzögerte frequenzen...
;
#X obj 443 -36 f \$1;
#X obj 526 -53 loadbang;
#X connect 0 0 1 0;
#X connect 1 0 2 0;
#X connect 1 0 8 0;
#X connect 3 0 7 0;
#X connect 4 0 18 0;
#X connect 5 0 6 0;
#X connect 6 0 28 0;
#X connect 6 0 34 0;
#X connect 7 0 5 0;
#X connect 7 1 5 1;
#X connect 8 0 10 0;
#X connect 9 0 4 0;
#X connect 10 0 9 0;
#X connect 10 1 4 1;
#X connect 11 0 12 0;
#X connect 15 0 3 0;
#X connect 16 0 18 0;
#X connect 17 0 9 0;
#X connect 17 0 22 0;
#X connect 17 1 16 0;
#X connect 18 0 15 0;
#X connect 19 0 17 0;
#X connect 20 0 0 0;
#X connect 21 0 20 0;
#X connect 22 0 21 0;
#X connect 22 1 21 1;
#X connect 23 0 19 0;
#X connect 23 0 32 0;
#X connect 26 0 37 0;
#X connect 31 0 30 0;
#X connect 32 0 34 1;
#X connect 34 0 35 0;
#X connect 35 0 33 0;
#X connect 37 0 22 1;
#X connect 38 0 37 0;
