#N canvas -10 99 1898 894 10;
#X obj 892 765 system;
#X obj 970 232 getdir;
#X symbolatom 970 257 73 0 0 0 - - -, f 73;
#X obj 951 144 bng 26 250 50 0 empty empty empty 17 7 0 10 -262144
-1 -1;
#X obj 992 311 list;
#X obj 992 336 l2s /;
#X symbolatom 1061 425 83 0 0 0 - - -, f 83;
#X msg 915 450 start;
#X obj 978 488 list;
#X symbolatom 978 592 82 0 0 0 - - -, f 82;
#X obj 978 563 l2s;
#X obj 951 184 t b b b;
#X msg 1043 294 Tux_Guitar/MIA.gpx;
#X obj 978 527 list trim;
#X obj 266 146 bng 36 250 50 0 empty empty empty 17 7 0 10 -2049 -1
-1;
#X obj 1138 662 set \$1;
#X msg 997 648 set \$1;
#X msg 997 673 D:/Diverses/PureData/2019onwards/Pd_GuitarApp;
#X obj 245 435 list;
#X obj 297 435 list;
#X obj 245 287 t b b;
#X obj 245 359 folder_list D:/Diverses/PureData/2019onwards/Pd_GuitarApp/Tux_Guitar/*
;
#X obj 413 488 list length;
#X floatatom 413 509 5 0 0 0 - - -, f 5;
#X obj 174 693 zl nth;
#X msg 243 693 1;
#X symbolatom 49 767 91 0 0 0 - - -, f 91;
#X obj 245 468 list trim;
#X obj 174 718 l2s;
#X obj 398 565 random;
#X obj 398 590 + 1;
#X floatatom 398 615 5 0 0 0 - - -, f 5;
#X obj 179 632 list;
#X obj 398 648 t b f;
#X obj 320 522 bng 41 250 50 0 empty empty empty 17 7 0 10 -4033 -1
-1;
#X msg 272 318 list;
#X text 292 570 choose randomly;
#X text 1212 294 <---- open the file specified;
#X text 314 152 create a list with elements of the folder and then
choose one at random --> open it with the right part;
#X obj 49 791 t b s;
#X connect 1 0 2 0;
#X connect 1 0 16 0;
#X connect 2 0 4 0;
#X connect 3 0 11 0;
#X connect 4 0 5 0;
#X connect 5 0 6 0;
#X connect 5 0 8 1;
#X connect 7 0 8 0;
#X connect 8 0 13 0;
#X connect 10 0 9 0;
#X connect 11 0 7 0;
#X connect 11 1 1 0;
#X connect 11 2 12 0;
#X connect 12 0 4 1;
#X connect 13 0 10 0;
#X connect 13 0 0 0;
#X connect 14 0 20 0;
#X connect 16 0 17 0;
#X connect 18 0 19 0;
#X connect 18 0 27 0;
#X connect 19 0 18 1;
#X connect 20 0 21 0;
#X connect 20 1 35 0;
#X connect 21 0 18 0;
#X connect 22 0 23 0;
#X connect 23 0 29 1;
#X connect 24 0 28 0;
#X connect 25 0 24 1;
#X connect 26 0 39 0;
#X connect 27 0 22 0;
#X connect 27 0 32 1;
#X connect 28 0 26 0;
#X connect 29 0 30 0;
#X connect 30 0 31 0;
#X connect 31 0 33 0;
#X connect 32 0 24 0;
#X connect 33 0 32 0;
#X connect 33 1 24 1;
#X connect 34 0 29 0;
#X connect 35 0 18 1;
#X connect 39 0 7 0;
#X connect 39 1 8 1;
