#N canvas 683 0 666 665 10;
#X obj 619 251 symbol;
#X obj 638 360 pack s s;
#X obj 713 271 loadbang;
#X msg 638 448 open \$1;
#X msg 824 98 Legato-Exercise.jpg;
#X obj 562 69 inlet;
#N canvas -8 -8 1365 704 image 0;
#X obj 200 162 image images/Legato-Exercise-2.jpg 0;
#X obj -304 -257 inlet;
#X connect 1 0 0 0;
#X restore 638 473 pd image;
#X msg 513 437 \; pd-image vis 1;
#X obj 619 286 t b b s;
#X obj 562 188 route bang;
#X obj 562 213 bng 15 250 50 0 empty empty empty 17 7 0 10 -262144
-1 -1;
#X obj 683 228 print no data stored;
#X symbolatom 730 430 39 0 0 0 - - -, f 39;
#X obj 638 325 symbol;
#X obj 659 195 bng 15 250 50 0 empty empty empty 17 7 0 10 -262144
-1 -1;
#X obj 638 385 l2s;
#X obj 713 368 symbol;
#X msg 824 74 Legato-Exercise-2.jpg;
#X obj 713 308 symbol \$1;
#X connect 0 0 8 0;
#X connect 1 0 15 0;
#X connect 2 0 16 0;
#X connect 2 0 18 0;
#X connect 3 0 6 0;
#X connect 4 0 9 0;
#X connect 5 0 9 0;
#X connect 8 0 7 0;
#X connect 8 1 13 0;
#X connect 8 2 1 1;
#X connect 9 0 10 0;
#X connect 9 1 0 0;
#X connect 9 1 14 0;
#X connect 10 0 11 0;
#X connect 13 0 1 0;
#X connect 15 0 12 0;
#X connect 15 0 3 0;
#X connect 16 0 15 1;
#X connect 17 0 9 0;
#X connect 18 0 13 1;
